<?xml version="1.0" encoding="utf-8"?>
<!-- Generator: Adobe Illustrator 24.3.0, SVG Export Plug-In . SVG Version: 6.00 Build 0)  -->
<svg version="1.1" id="Capa_1" xmlns="http://www.w3.org/2000/svg" xmlns:xlink="http://www.w3.org/1999/xlink" x="0px" y="0px"
	 viewBox="0 0 500 500" style="enable-background:new 0 0 500 500;" xml:space="preserve">
<style type="text/css">
	.st0{fill:#6B00FA;stroke:#000000;stroke-width:0.5;stroke-miterlimit:10;}
	.st1{fill:#4300BF;stroke:#000000;stroke-width:0.5;stroke-miterlimit:10;}
	.st2{display:none;}
	.st3{display:inline;fill:#848484;}
	.st4{display:inline;fill:#4C4C4C;}
	.st5{fill:#100342;stroke:#000000;stroke-width:0.5;stroke-miterlimit:10;}
	.st6{fill:#4300BF;}
	.st7{fill:#6B00FA;}
	.st8{fill:#100342;}
	.st9{fill:#100641;}
	.st10{fill:#E0E3BD;stroke:#000000;stroke-width:0.5;stroke-miterlimit:10;}
	.st11{fill:#E0E3BD;stroke:#000000;stroke-width:2;stroke-miterlimit:10;}
	.st12{fill:#272F49;}
</style>
<g>
	<g id="Color_Stone_1_">
		<path class="st0" d="M141,329.6c1.4-21,1-42.6,3.5-64.1c1.4-11.7,3.9-23.3,4.9-35c1.3-16-0.3-32-0.7-48.1
			c-0.1-4.7-0.6-9.4,0.6-14.1c0.6-2.4,1.5-4.9,4-5.4c4.3-1,3.1-3.4,2.2-6c-1-2.9-1.9-5.8-3-8.6c-6-14.7-0.9-27.9,6.4-40.3
			c6.2-10.6,14.3-20.1,22.8-29c9.5-10,21.3-15,35.2-15.2c2.6,0,5.2-0.1,7.9-0.3c1.3-0.1,2.6-0.1,4-0.2c1.2-0.1,2.5,0,3.7-0.2
			c0.4-0.1,0.8-0.2,1.2-0.3c0.7,0,1.4,0.2,2,0.2c1.5,0.2,2.9,0.4,4.4,0.7c2.9,0.5,5.8,1,8.7,1.6c5.8,1.1,11.5,2.5,17.2,4
			c3.1,0.8,6.2,1.7,9.1,3.2c5.3,2.9,9.1,7.8,14.2,11c3.5,2.2,7.4,3.5,10.6,6.1c3.6,2.9,5.9,7,8.1,11.1c2.4,4.4,4.8,8.8,6.4,13.6
			c0.4,1.2,0.8,2.5,1.1,3.7c1.2,5.1,1.8,10.3,2.4,15.5c0.6,5.1,1.3,10.3,3,15.2c0.4,1.2,0.9,2.4,1.4,3.6c0.2,0.5,0.5,1,0.6,1.5
			c0,0.7-0.1,1.4-0.1,2.1c-0.1,15.1-1.4,30.1-1.7,45.2c-0.5,24.4-2.2,48.8-4.9,73.1c-0.5,4.3,0.1,8.5,1.1,12.6
			c2.9,12.2,3.8,24.4,2,37c-1.5,10.6-1.5,21.5-2.2,32.3c-0.3,4.8-2.9,6.8-7.6,6.9c-5.5,0.1-10.5-2.2-16-2.3
			c-7.7-0.2-15.1,1.6-22.6,2.4c-12.6,1.2-24.8-1.1-37.2-2.6c-2.2-0.2-4.3-1.2-6.5-1.1c-2.3,0-4.5,0.1-6.8,0
			c-1.1-0.1-2.2-0.1-3.3-0.4c-0.7-0.2-1.2-0.5-1.9-0.6c-3-0.3-6-0.3-9-0.5c-3-0.1-6-0.3-9-0.4c-6-0.3-12.1-0.5-18.1-0.7
			s-12.1-0.4-18.1-0.6c-1.5,0-3-0.1-4.5-0.1c-1.4,0-3-0.3-4.4-0.1c-0.4,0.1-0.8,0.3-1.1,0.4c-1.4,0.4-3.1,0.2-4.5-0.1
			c-4.4-1.2-5.5-5.9-5.6-9.9c-0.1-2.7,0.2-5.4,0.3-8.1C141,335.6,141,332.9,141,329.6z"/>
		<path class="st1" d="M325.5,413.5c-0.8,5.2-0.1,11.1-1.6,16.7c-0.6,2.2-1.1,4.3-3.5,5.2c-2.3,0.8-3.9-0.2-5-2.2
			c-0.8-1.4-2.2-1.3-3.6-1.4c-11.3-0.7-22.6-1.4-33.8-2c-38.6-2-77.1-4-115.7-6c-10.8-0.5-21.6-0.8-32.4-1.4c-2.9-0.2-8.7,0-9.4-3.9
			c-0.2-1.2-0.9-2.2-1.2-3.4c-0.7-2.5-0.8-5.2-0.8-7.8c-0.2-6-0.3-12.1-0.5-18.1c0-1,0-2-0.1-3c0-0.7-0.2-1.1-0.5-1.6
			c-0.7-1.5-0.1-3.2,0.9-4.4c1.3-1.6,3.1-2.3,5-1.5c6.2,2.3,12.7,1.8,19,2.2c29.6,1.7,59.3,3,89,4.4c27,1.3,53.9,2.7,80.9,4.1
			c9.3,0.5,12.9,4.3,12.9,13.7C325.1,406.4,325.3,409.7,325.5,413.5z"/>
		<g class="st2">
			<path class="st3" d="M164.9,99.2c0.8-1.1,1.6-2.2,2.5-3.3c1.7-2,3.5-3.9,5.3-5.7c0.5-0.5,0.9-0.9,1.4-1.4
				c0.2-0.2,0.4-0.2,0.6-0.4c0.7-0.5,1.3-1.3,1.9-1.9c4.5-4.7,9.2-9.3,14.9-12.5c9.1-5.1,18.4-8.5,29.2-8.1c2.2,0.1,4.4,0.1,6.5,0
				c1.1,0,2.2-0.1,3.3-0.2c1-0.1,2.2,0.1,3.1-0.2c5.5-1.8,11.1-3.1,16.8-4c2.9-0.4,5.7-0.7,8.6-0.9c1.4-0.1,2.9-0.2,4.3-0.2
				c0.5,0,1,0,1.6,0.1c0.9,0,1.8-0.4,2.7-0.6c3.4-0.8,6.7-0.3,9.8,1c9.8,4.1,20.4,5.6,30.3,9.6c4.3,1.7,8.6,3.4,12.8,5.4
				c0.1,0,0.2,0.1,0.3,0.1c4,2,7.5,4.9,9.6,8.9c0.2,0.5,0.5,1,0.7,1.5s0.3,1,0.5,1.5c0.6,1.1,1.4,2.2,2.2,3.1
				c1.6,1.9,3.5,3.6,5.4,5.3c1.6,1.4,3.3,2.9,4.7,4.6c0.7,0.8,1.4,1.7,2,2.6c0.3,0.4,0.6,0.9,0.8,1.4c0.8,2.2,2.1,4.2,2.8,6.4
				c1.5,4.9,2.8,9.8,4,14.7c1.4,5.6,2.5,11.2,3.3,16.8s1.4,11.4,1.5,17.1c0.1,2.9,0.1,5.8,0,8.6c-0.1,1.4-0.1,2.9-0.2,4.4
				c-0.1,1.4,0,2.9,0.1,4.3c0.2,6,0.4,12.1,0.5,18.1s0.1,12.1,0.1,18.1s-0.2,12.1-0.3,18.1c-0.1,3-0.2,6-0.3,9.1
				c0,0.6-0.1,1.1-0.2,1.7c0,0.4,0.1,0.8,0.1,1.2c0.1,0.9,0.2,1.7,0.3,2.6c0.2,1.7,0.3,3.5,0.4,5.2c0.4,7.2-0.2,14.5-1.6,21.5
				c-2.5,12.4-1.7,25.1-2.1,37.7c-0.3,10.1-1.3,20.2-1.2,30.3c0,3.4-1.4,5.9-4.6,6.9c-7.2,2.3-13.6,6-20.2,9.6
				c-2.1,1.1-4.2,1.8-6.6,1.8c-4.8,0-6.2-1.2-6.4-6.1c-0.5-12,1.8-23.8,2.5-35.7c0.4-7.3,0.7-14.5-1.4-21.7c-0.9-3-1.1-6.2-0.9-9.4
				c0.9-11.5,2.4-23.1,2.5-34.6c0.2-18.9,3.2-37.6,3.5-56.5c0.1-10.6,0-21.2,0.2-31.8c0-4.5-0.6-8.9-1.4-13.3
				c-0.4-2.6-0.8-5.1-0.9-7.7c0-1,0.1-2,0-3s-0.4-1.9-1.1-2.6c-0.8-0.8-1.7-1.3-2.6-1.9c-1.1-0.7-2.1-1.6-2.9-2.5
				c-0.5-0.6-0.9-1.2-1.7-1.6c-1-0.4-2-0.6-2.8-1.3c-0.7-0.6-1.1-1.3-1.5-2.1c-0.7-1.6-0.8-3.3-1.1-4.9c-0.3-1.3-0.5-2.6-1.1-3.8
				c-1.1-2.2-3-3.7-5.5-3.8c-2.4,0-3.6,1.9-4.6,3.9c-3.4,7-3.6,7.1-11.8,6.2c-0.8-0.1-1.8-0.3-2.5,0c-4.1,1.8-7.2,1.7-10.3-2.6
				c-1.6-2.2-5.4-0.5-7.2,1.8c-2.6,3.4-5.4,6.7-6.3,11.1c-0.4,1.9-1.1,4.1-3.7,4.1c-2.2-0.1-2.8-2.1-3.5-3.7
				c-1.4-3.2-2.2-6.6-2.2-10.1c0.2-6.1-2.3-11.3-5.5-16.2c-1.7-2.6-3.9-4-7.1-2.7c-0.9,0.4-2.1,0.7-2.9,0.4
				c-8.2-2.9-15.5,1.4-23.1,2.9c-2.3,0.5-4.3,0-5.4-2.3c-0.9-1.8-1.8-3.5-2.6-5.4c-1.9-4.6-5.3-5.6-9.2-2.4c-2,1.7-3.8,3.6-6.4,4.6
				c-5.8,2.2-7.9,1-8.4-5.1c-0.1-0.8,0.1-1.7-0.9-2.6c-2.3,2.2-5.2,4.3-6.3,7.3c-3.5,9.4-10.3,16.8-14.9,25.6
				c-1.8,3.4-2.9,7.2-3.2,11.1c-0.1,0.9-0.2,1.8-0.2,2.7c0,0.2,0,0.4-0.2,0.5s-0.4,0-0.5-0.2c-0.4-0.4-0.9-0.9-0.9-1.4
				s0.1-1.1,0.1-1.7c0-1.4,0.2-2.9,0.4-4.3c0.4-2.8,1.1-5.6,2-8.3c0.1-0.2,0.2-0.5,0.2-0.7c0.4-1.2,1.1-2.5,1.4-3.7
				c0.1-0.4,0.1-0.8,0.2-1.2c0.1-0.6,0.5-1.2,0.8-1.7c1.3-2.6,2.5-5.2,3.6-8c0.9-2.3,1.5-4.6,2.5-6.9
				C162.2,103.4,163.5,101.2,164.9,99.2z M303.5,95.5c-0.2-0.2-0.4-0.6-0.7-0.6c-0.4-0.1-0.5,0.2-0.2,0.6c0.2,0.2,0.5,0.5,0.7,0.6
				C303.8,96.1,303.8,95.8,303.5,95.5z"/>
			<path class="st3" d="M188.3,385.5c-1.9-0.1-3.9,0.5-5.9,1.7c-1.1,0.7-2.4,1.1-3.6,1.7c-3.2,1.9-5.9,1.6-8.1-1.6
				c-1.4-2-3.3-3.7-5.5-5c-7.1-4.2-14.1-3.3-19.1,3.3c-3.5,4.6-7,6.4-12.7,4.3c-3.5-1.3-6.3,0.7-8.3,3.8c-1.2,1.8-2.1,3.7-2.8,5.7
				c-0.3,1-0.7,2-0.9,3c-0.1,0.5-0.1,0.8-0.5,1.1c-0.3,0.3-0.7,0.4-1.1,0.5c-1.1,0.3-2.2,0.5-3.3,0.5c-0.5,0-1,0-1.4-0.3
				c-0.8-0.5-0.8-1.6-0.8-2.5c0-1.5,0-3.1,0-4.6c0-0.6,0.1-1.1,0.2-1.6c0.2-1.2-0.2-2.7-0.4-3.9c-0.2-1.6-0.5-3.2-0.6-4.9
				c-0.1-1.4-0.2-2.8,0-4.2c0.1-1.1,0.3-2.2,0.3-3.3c0.1-2.2,2.9-3.8,4.5-4.9c1.8-1.2,3.6-2.4,5.5-3.4c1.3-0.7,2.6-1.2,3.7-2.2
				s1.8-2.3,3-3.2c0.5-0.3,0.9-0.7,1.3-1.1c0.8-0.7,1.8-1.2,2.7-1.7c1.8-1.1,3.7-2.1,5.5-3.2c3.1-1.8,6.2-2.1,9.9-1.1
				c4.1,1.1,8.5,1.1,12.8,1c7.3-0.2,14.6,0.1,21.9,0.8c1.8,0.2,3.6,0.4,5.3,0.6c0.8,0.1,1.5,0.2,2.2,0.2c0.7-0.1,1.5,0,2.2-0.1
				c3-0.1,6-0.1,9-0.1c6,0,12,0.2,18,0.6c2.3,0.1,4.6,0.3,6.9,0.5c1.7,0.2,3.4,0.3,5.1,0.8c1.3,0.3,2.6,0.8,3.9,1.1
				c0.6,0.1,1.3,0.2,2,0.2c0.6,0,1.2-0.2,1.8-0.3c1.4-0.2,3,0,4.5,0s3,0,4.5,0c5.5,0.1,11,0.4,16.5,1c12.7,1.4,25.5,0.2,38.2,1.8
				c2.8,0.3,5.4,1.9,7.5,3.8c1,0.9,1.8,1.9,2.7,2.9c0.2,0.2,0.3,0.3,0.4,0.6c0.6,1.2,1.1,2.6,1.6,3.9c1,2.6,1.7,5.3,2.3,8.1
				c0.3,1.4,0.4,2.8,0.7,4.2c0.2,0.9,0.6,1.6,0.9,2.4c0.4,1.1,0.2,2.2,0.2,3.3c0,1.5,0,2.9,0,4.4c0.1,5.8,0.4,11.7-0.7,17.5
				c-0.1,0.4-0.2,0.9-0.3,1.3c-0.3,1.2-0.1,3-1.8,3.1c-1.4,0.1-2.3-1.2-3.1-2.2c-2.1-2.5-2.6-5.7-3.3-8.7c-2-8.5-7.7-13.3-16.5-13.6
				c-1.8,0-3.2-0.5-4.6-1.5c-1.5-1-3.4-2-5.1-1.4c-4.9,1.5-9-0.5-13.3-2.3c-5.5-2.3-10.8-1.4-15.7,1.4c-4.8,2.8-9,2.3-13.4-0.8
				c-5.8-4-10.6-3.6-15.7,1c-2.2,2-4.2,4.2-6.1,6.5c-2.6,3.3-4.9,3.2-7.7,0.1c-1.9-2.2-2.9-4.8-4.1-7.3c-2.6-5.2-4.6-6-10.2-4.5
				c-2.2,0.6-4.1,0.8-6-0.9C191.7,386.3,190,385.5,188.3,385.5z M297.6,385.7c-26.2-6.7-53.1-2.6-79.5-5.7c0,0.7-0.1,1.4-0.1,2.1
				C244.6,382.6,271.1,384.4,297.6,385.7z M309.5,385.1c-2.6,0-4.1,0-5.6,0C305.6,385.9,307.1,386,309.5,385.1z M190.2,382.1
				c-0.9,0.1-2-1-2.7,0.4C188.4,382.7,189.4,383.2,190.2,382.1z"/>
			<path class="st3" d="M325.1,407.8c0-4.6,0-9.3,0-13.9c0-3.2,1.4-5.5,4.1-7.4c6.4-4.7,13.8-7.1,21.1-9.8c3.8-1.4,7.5-2.7,10.6-5.3
				c2.1-1.7,4.5-2.3,6.9-1c2.4,1.2,2.9,3.6,2.7,6c-0.6,7.4,0.6,14.9-0.5,22.3c-0.5,3.1-1.4,5.8-3.9,7.7
				c-10.2,7.8-21.5,13.7-32.4,20.3c-4.4,2.7-8.3,0.2-8.6-5.1C324.9,417.1,325.1,412.4,325.1,407.8z"/>
			<path class="st3" d="M158.5,318.4c0.4-0.3,0.8-0.5,1.2-0.7c1.1-0.6,2.2-0.9,3.3-1.5c-1,1.3-2.5,2-3.6,3.2
				c-1.2,1.5-1.6,3.5-2.9,4.9c-1.1,1.4-2.8,2.1-4.4,2.8c-1.3,0.5-2.6,1.1-3.9,1.7c-1.4,0.6-2.8,1.2-4.3,1.2c0-1.1,0-2.1-0.1-3.2
				c0-0.1,0-0.2,0-0.3c0.1-0.7,0.2-1.4,0.3-2c0.1-1.4,0.2-2.9,0.1-4.3c-0.1-2.7-0.4-5.4-0.6-8.1c-0.8-9-0.9-18.2,0.9-27.2
				c1.7-8.5,1.1-17.2,1.6-25.8c0.7-11.7,4-23.1,3.9-34.9c-0.1-4.8,0.7-9.6,0.2-14.4c-1.4-13.2-0.4-26.5-0.8-39.7
				c0-0.6,0.1-1.1,0.1-1.7c0-0.3,0-0.5,0.2-0.6c0.3-0.2,0.6-0.3,0.9-0.4c0.6-0.3,1.3-0.6,1.9-0.8c1.3-0.4,2.6-0.6,3.9-0.1h0.1
				c1,0.4,1.9,1.1,2.6,1.9c0.8,0.9,1.5,1.9,1.6,3c0.2,1.4-0.5,2.8-1.3,4s-1.7,2.4-2.1,3.7c-0.1,0.2-0.1,0.4-0.1,0.6
				c0.1,0.3,0.4,0.6,0.6,0.8c0.6,0.5,1.1,1,1.7,1.5c0.4,0.4,1.1,0.7,1.3,1.2c0.2,0.4,0.3,0.9,0.4,1.4c0.2,0.7,0.4,1.3,0.5,2
				c0.1,0.8,0.2,1.6,0.2,2.4c0,0.3-0.1,0.6,0,0.9c0.1,0.2,0.1,0.5,0.1,0.8c0.1,0.5,0.2,1.1,0.4,1.6c0.4,1.1,0.9,2.1,1.4,3
				c0.8,1.7,1.7,3.5,1.4,5.5c-0.4,2.8-3.2,5.1-3,7.9c-0.2-0.7-0.9-1.2-1-2c-0.1-0.4,0.1-0.7,0.2-1.1c0.5-1.3,1.2-2.5,2-3.7
				c0.1-0.2,0.3-0.4,0.3-0.6c0-0.2-0.1-0.4-0.1-0.7c-0.8-2.1-1.6-4.1-2.3-6.2c-0.4-1.1-0.9-2.1-2-2.6c-0.7-0.3-1.6-0.2-1.9,0.6
				c-0.1,0.4,0,0.9,0,1.4c0.1,0.5,0.1,1,0.2,1.4c0.1,0.3,0.2,0.7,0.3,1c0.2,0.7,0.2,1.4,0.1,2.1c-0.1,1.2-0.8,2.4-1.8,2.9
				c0.5-2.4,0.4-5-0.5-7.3c-0.1-0.2-0.2-0.5-0.2-0.7s0.1-0.4,0.1-0.5c0.3-0.9,0.7-1.7,1.2-2.5c0.9-1.5,2.2-3,1.4-4.8
				c-0.5-1.2-1.5-2-2.4-2.9c-0.9-1-1.8-2.1-2.5-3.2c-0.1-0.1-0.2-0.3-0.2-0.4c0-0.2,0.1-0.4,0.2-0.5c0.6-1,1.3-1.9,2-2.9
				c0.3-0.5,0.7-0.9,1.1-1.4c0.3-0.4,1.2-1.2,0.5-1.7c-1-0.8-2.3-1.2-3.6-1.5c-1.1-0.2-1.9,0.7-2,1.7c-0.2,1.6-0.2,3.3-0.1,4.9
				c0.6,17.2,1.5,34.4-0.2,51.6c-0.4,4.2-0.8,8.5-1.2,12.7c-0.4,4.5-0.8,9-1.2,13.6c-0.1,1.8-0.3,3.6-0.5,5.5
				c-0.1,1.1-0.1,2.2-0.3,3.4c0,0.3-0.2,0.6-0.2,1c-0.1,0.4,0,0.9,0,1.3c0.2,2.2,0.3,4.5,0.3,6.7s-0.1,4.5-0.2,6.7
				c-0.1,1.1-0.2,2.2-0.3,3.3c-0.1,0.5-0.1,1.1-0.2,1.6c-0.1,0.7-0.1,1.5-0.2,2.2c-0.1,1.3-0.3,2.5-0.5,3.8
				c-0.2,0.9-0.3,1.8-0.5,2.6c-0.4,2.1-0.9,4.3-1,6.4c0,0.5,0,1.1,0,1.6c0,0.2,0.1,0.4,0.1,0.6c0.2,1,0.1,2.2,0.1,3.2
				c0,1.2,0.1,2.4,0.1,3.7c0.1,3,0.3,6,0.5,9c0,0.8,0.1,1.5,0.1,2.3c0,0.4,0,0.8,0.1,1.1c0,0.2,0.1,0.4,0.1,0.7
				c-0.1,1.5-0.2,3-0.3,4.5c2.3-0.9,4.7-1.7,7-2.6c0.6-0.2,1.2-0.4,1.6-0.8c0.5-0.4,0.7-1,1.1-1.6
				C156.3,320.4,157.3,319.3,158.5,318.4z"/>
			<path class="st3" d="M271.1,360c-0.2-0.5,0.1-1.2,0.6-1.7c0.8-0.7,1.8-0.9,2.7-1.3h0.1c2.1-1,4.4-1.5,6.3-2.8
				c4.9-3.2,10-4.7,15.9-4.2c5,0.4,7.9-2.5,9.5-7.7c1.6-5.1,1-10.5,2.2-15.7c0.7-3.1,1.1-6.2,3.1-8.8c1.5-2.1,1.1-4.4,1.2-6.7
				c0-2.3,0-4.6,0.1-6.9c0-0.5-0.1-1.2,0-1.7v-0.2c0.1-0.1,0.2-0.1,0.4-0.1c0.8,0.1,1.4,0.9,1.6,1.6c0.3,0.9,0.3,1.8,0.3,2.7
				c-0.1,7.4-0.3,14.8-1.1,22.2c-0.3,2.3-0.6,4.7-0.8,7c-0.2,2.6-0.3,5.2-0.3,7.8c-0.1,3-0.1,6.1-0.2,9.1c-0.1,2.6-0.1,5.2,0.3,7.8
				c0,0.2-3.6,0.9-3.9,0.9c-1.3,0.2-2.7,0.4-4,0.5c-2.7,0.2-5.5,0.1-8.2,0c-5.6-0.3-11.1-1.1-16.7-1.4c-1.4-0.1-2.8-0.1-4.2-0.1
				c-0.7,0-1.4,0-2.1,0.1c-0.6,0-1.4,0.2-2,0.1C271.5,360.5,271.2,360.3,271.1,360z"/>
			<path class="st3" d="M296.4,429.6c-6.4-0.2-12.8-0.5-19.2-0.2c-2.5,0.1-3.1-1-1.5-2.9c2.2-2.6,4.6-5.2,7.2-7.4
				c1.5-1.2,3.5-0.6,5.2,0.3c2.7,1.5,5.4,2.3,8.5,1.3c0.9-0.3,2-0.2,3,0c3.2,0.9,5.5,3.5,5.2,6.4c-0.1,1.8-3.4,2.5-5.8,2.4
				C298.1,429.6,297.3,429.6,296.4,429.6z"/>
			<path class="st3" d="M182,129.6c2.8,5.1,0.3,9.5-3.4,13.6c-1.1,1.2-2,3.1-3.9,2.4c-1.8-0.8-1.5-2.8-1.3-4.4
				c0.8-5.4-1.5-11,1.7-16.2c0.8-1.3,0.2-3.7,2.4-3.8c2.2-0.1,3.7,1.3,4.3,3.4C182.2,126,182.8,127.4,182,129.6z"/>
			<path class="st3" d="M297.3,138.7c-0.1,3.9-1,7.6-4.5,10.3c-2.1,1.6-3.8,1.6-4-1.5c-0.2-2.4-0.8-4.6-2-6.5
				c-1.4-2.2-1.5-3.8,0.3-5.7c2.4-2.6,5.3-2.6,8.2-1.8C297.9,134.1,297.1,136.6,297.3,138.7z"/>
			<path class="st3" d="M292.5,196.5c0.1-4,3.4-7.9,5.7-7.4c3.6,0.9,3.8,3.7,3.1,6.7c-0.7,2.9-1.1,5.8-1.3,8.7
				c-0.1,1.8-0.9,3.9-3.1,3.8c-2-0.1-2.5-2.1-2.3-3.7C294.9,201.3,292.5,198.6,292.5,196.5z"/>
			<path class="st3" d="M145.6,334.4c-0.2,0.6-0.4,1.3-0.6,2c-0.1,0.6-0.2,1.3,0,1.9c0.1,0.2,0.2,0.3,0.3,0.5
				c0.3,0.6,0.4,1.3,0.7,1.9c1.1,2.3,3.1,4,5.1,5.6c1.1,0.8,2.1,1.6,3.2,2.4c0.6,0.4,1.1,0.9,1.6,1.3c0.2,0.2,0.5,0.4,0.7,0.6
				c0.1,0.1,0.5,0.6,0.6,0.6c-3.3,1-6.2,0.6-9,1.3c-2,0.5-3.9-1-4.3-3.3c-0.4-2.1-0.7-4.2-0.8-6.4c0-1.5-0.2-2.9-0.2-4.4
				s0.1-3,0.3-4.4c0.1-1.1,0.4-2.2,1.2-3c0.4-0.3,0.8-0.5,1.3-0.8c1.2-0.5,2.3-1.1,3.5-1.6c0.6-0.3,1.1-0.3,1.7-0.5
				c0.6-0.2,1.1-0.5,1.7-0.7c0.9-0.4,1.8-0.7,2.7-0.5c-1,0.6-2,1.2-3.1,1.7c-0.5,0.3-1,0.5-1.6,0.8c-1.3,0.6-2.8,1-3.7,2.2
				c-0.4,0.5-0.6,1-0.9,1.6C145.9,333.6,145.7,334,145.6,334.4z"/>
			<path class="st3" d="M277.6,313.3c0-0.5,0-1,0-1.5c0.1-2-0.8-5,2.1-5.2s3.2,2.8,3.6,5c0.2,1.6,0.1,3.3-0.2,4.9
				c-0.3,1.9-1.3,3.5-3.5,3.4c-2.5-0.1-2-2.1-2.1-3.7C277.6,315.2,277.6,314.2,277.6,313.3L277.6,313.3z"/>
			<path class="st3" d="M123.1,415.9c0.9-2.2,2.7-3.8,4.8-4.7c1.8-0.8,2.7,0.7,3.3,2.1c0.6,1.4,1.8,1.9,3,2.4
				c1.3,0.6,2.5,1.3,1.8,2.9c-0.6,1.4-2.1,1.2-3,0.7c-2.4-1.1-4.6-2.2-7.5-0.8C123.9,419.1,123.5,417.2,123.1,415.9z"/>
			<path class="st3" d="M273.4,329.5c-0.3,3.2-2.9,3.9-5.3,4.1c-2,0.2-3.6-0.9-3.4-3.2c0.2-2.5,0.9-5.1,4.1-5.2
				C271.6,325.1,272.8,327.1,273.4,329.5z"/>
			<path class="st3" d="M158.2,341.3c0.5-1.7,0.5-5,4.1-4.7c2,0.1,3.6,1.6,3.5,4c-0.2,3.3-2.6,4.4-5.3,4.7
				C158.5,345.5,157.7,344,158.2,341.3z"/>
			<path class="st3" d="M157.2,283.9c0-2.3,0-5,1.8-5c3.1,0.1,3.1,3.3,3.3,5.6c0.1,1.5-0.1,3.7-2.3,3.6
				C157.1,288,157.5,285.4,157.2,283.9z"/>
			<path class="st3" d="M169.9,303c0.6-1.5-0.8-4.3,1.9-4.2c2.4,0.1,3.1,2.6,3.1,4.9c0,1.8-0.2,4.2-2.4,4.3
				C169.2,308,170.5,304.9,169.9,303z"/>
			<path class="st3" d="M178,163.7c-1.9-0.1-2.1-1.4-1.9-2.5c0.6-2.4,1.8-4.4,4.3-4.8c1-0.2,1.5,1.3,1.2,2.3
				C181.2,161,180.5,163.2,178,163.7z"/>
			<path class="st3" d="M294.8,334.1c-0.4,1.3-0.8,2.7-2.5,2.6c-1.5-0.1-1.8-1.2-1.8-2.5c0-1.4,0.6-2.2,2-2.2
				S294.7,332.7,294.8,334.1z"/>
			<path class="st3" d="M227.3,414.2c-1.3-0.8-1.6-2.1-1.2-3.4c0.2-0.9,0.7-2.1,1.9-1.6s1.2,1.8,0.9,3
				C228.6,413,228.7,414.2,227.3,414.2z"/>
			<path class="st3" d="M311.9,292.2c0,0.5,0,0.8,0,1c0,0.3-0.1,0.5-0.2,0.8c0-0.3,0-0.6,0-0.9C311.8,292.9,311.8,292.6,311.9,292.2
				z"/>
		</g>
		<g class="st2">
			<path class="st4" d="M355.3,139.3c0,1.4,0.1,2.9,0,4.3c-0.2,1.9-1.4,4.1-3.1,3.7c-5.1-1.3-4.6,2-4.8,5c-0.1,1.8-0.2,4-2.3,4.3
				c-2.1,0.3-2.8-1.8-3.4-3.5c-1.4-3.8-2.6-7.6-4.2-11.3c-1-2.3-2.2-4-4.8-0.9c-2.4,2.9-5,2-5.4-1.8c-0.6-5.1-1.8-9.4-7.2-11.4
				c-2.2-0.8-1.8-3.3-2.3-5.1c-4.2-14.8-13.3-25.6-26.1-34.1c-9.1-6-17.4-13.3-27.5-17.7c-1.5-0.7-2.1-2-1.8-3.6
				c0.4-2.1,1.5-3.4,3.8-3.8c4.5-0.9,9-0.2,13.5,0.2c10.9,1,22,2.3,31.8,7c8.7,4.2,18.3,8.4,22.3,18.7c1.5,3.8,3.7,7,7.8,8.8
				c3.5,1.6,5.8,4.8,7.1,8.3C352.6,117,355.1,127.9,355.3,139.3z"/>
			<path class="st4" d="M353.1,349.9c2.8,0,10.2,6,10.8,8.9c0.5,2.6-0.8,4.1-2.9,5.6c-9.7,6.8-21.2,10.3-30.7,17.3
				c-0.2,0.2-0.6,0.3-0.9,0.4c-3.8,1.3-5.7-0.5-9.5-8.8c-1.3-2.9-2-5.6,1.5-8c7.7-5.2,16.7-7.7,24.7-12.1
				C348.4,352,350.3,350,353.1,349.9z"/>
			<path class="st4" d="M356.7,381c0-0.1,0-0.1,0.1-0.2c-0.3,0-0.6,0.3-0.8,0.6c-0.1,0.1-0.3,0.3-0.5,0.4c-0.1,0.1-0.2,0.1-0.2,0.2
				c-0.2,0.1-0.3,0.2-0.5,0.4c-1.5,1.3-2.9,2.7-3.9,4.4c-0.7,1.1-1.2,2.3-1.6,3.5c-0.4,1.3-0.6,2.7-0.7,4.1c0,1.2-0.7,2.2-1.9,2.5
				c-1.2,0.3-1.8-0.5-2.3-1.3c-1.3-2-1.6-6.2-4.5-5.2c-4,1.4-8.8,3-9.9,8.4c-1.2,6.3-2.2,12.6-3.3,18.9c0.6-8.5-0.5-16.9-1.4-25.3
				c-0.4-3.1,0.9-4.9,3.6-6.6c10.9-7,23.6-10.5,34.6-17.2c1.9-1.2,3.7-0.9,3.9,1.5c0.4,4.2,0.3,8.4,0.3,12.6c0,0.5-0.4,1.3-0.9,1.6
				c-0.9,0.5-1.4-0.2-1.9-0.8c-0.4-0.6-0.9-1.1-1.3-1.7c-0.3-0.4-0.7-0.8-1-1.2c-0.1-0.1-0.1-0.3-0.2-0.4s-0.4-0.2-0.6-0.3
				c-0.1,0-0.2,0-0.2,0c-0.1,0-0.1,0-0.2,0.1c-0.6,0.3-1.2,0.5-1.7,0.9c-0.7,0.5-1.2,1.3-1.4,2.1c-0.3,1-0.2,2-0.1,3
				c0,0.4,0.1,0.8,0.3,1.1s0.5,0.5,0.8,0.7c0.9,0.6,1.7,1.3,2.5,2.1c0.1,0.2,0.3,0.3,0.4,0.5c0.1,0.3,0.1,0.5,0.1,0.8
				c-0.2,2.6-0.6,5.2-1.1,7.8c-0.1,0.6-0.2,1.1-0.2,1.7c0.1,0.9,0.7,1.7,1.4,2.4c-0.1-0.1-0.2-0.1-0.4-0.2c-0.1-0.1-0.2-0.1-0.4-0.2
				c-0.2-0.1-0.5-0.3-0.7-0.5s-0.3-0.4-0.5-0.6s-0.4-0.4-0.7-0.5c0.1-0.3,0.3-0.6,0.4-0.9c0-0.1,0-0.2,0-0.3c0-0.4,0.1-0.8,0.2-1.2
				c0.5-2.2,0.8-4.5,1.1-6.8c0-0.2,0-0.4,0-0.5c0-0.2-0.1-0.3-0.2-0.4c-0.7-1-1.6-1.9-2.7-2.6c-0.3-0.2-0.6-0.3-0.9-0.3
				c-0.3,1-0.5,1.9-0.8,2.9c-0.2,0.7-0.4,1.4-0.8,2c-0.8,1.1-2,1.6-3.3,2c0.9-0.8,1.7-1.6,2.6-2.4c0.1-0.1,0.2-0.2,0.3-0.3
				c0.1-0.1,0.1-0.3,0.1-0.5c0-0.1,0-0.2,0-0.3c0-1.1,0-2.3,0-3.4c0-0.6,0-1.1,0-1.7c0-0.5-0.1-1.1-0.1-1.6c0-0.1,0-0.1,0-0.2
				s0.1-0.2,0.1-0.2c0.2-0.3,0.4-0.6,0.6-0.8c0.1-0.1,0.1-0.2,0.2-0.3c0-0.1,0.1-0.2,0.1-0.3c0.1-0.4,0.3-0.7,0.4-1.1
				C356.6,381.2,356.6,381.1,356.7,381z"/>
			<path class="st4" d="M352.9,303.8c2.5,1.9,2,3.7,2,5.2c-0.1,8.7-0.4,17.4-2.2,26c0,0.2-0.1,0.4-0.1,0.6c-0.2,1.4-0.1,2.8-0.3,4.2
				c0,0.4-0.1,0.7-0.1,1c-0.1,0.3-0.2,0.6-0.1,0.9c0,0.7,0,1.5-0.1,2.2c-0.7,0.4-1.4,0.8-2.1,1.1c-1,0.4-1.9,1-2.8,1.5
				c-1.6,0.7-3.3,1.2-4.9,2c-3.2,1.5-6.4,3.1-9.7,4.5c-0.6,0.3-1.1,0.5-1.6,0.8c-0.3,0.2-0.6,0.3-0.9,0.5c-1.2,0.6-2.5,1.2-3.7,1.8
				c-0.3,0.1-0.6,0.3-0.9,0.5c-2.2,1.3-4.4,3.3-7,3.1c0.1,0,0.7-4,0.8-4.4c0.2-1.5,0.4-3,0.6-4.4c0.1-0.7,0.2-1.5,0.2-2.2
				c0-0.3,0-0.6,0.1-0.9c0.1-0.2,0.1-0.4,0.2-0.7c0.1-1.4,0.1-2.7,0.2-4.1c0-0.8,0.1-1.5,0-2.3c-0.1-0.4,0-0.7,0-1.1
				c0-0.8,0-1.5,0-2.2c0-1.5,0-3,0-4.5c0.1-3,0.3-6,0.5-9c0.1-0.7,0.2-1.5,0.2-2.2c0-0.4,0-0.9,0-1.3c0.1-0.5,0.4,0.4,0.5,0.5
				c0.3,0.6,0.6,1.3,0.8,1.9c0.9,2.5,1.4,5.2,1.4,7.9c0,1.1-0.1,2.3-0.2,3.4c-0.9,6.4,4.5,9.1,7.1,13.3c1.5,2.4,10.9-1.7,13.3-5.1
				c5.3-7.5,6.6-16.1,7.3-25C351.8,313.3,352.4,308.9,352.9,303.8z"/>
			<path class="st4" d="M315.3,384c-2.5-1.5-4.6-2.2-5.9-3.6c-2-2.1-4.4-3.6-7-4.8c-3.4-1.5-7-2.4-10.6-3.5
				c-1.4-0.5-2.6-1.3-4.2-1.1c-1.9,0.2-3.8,0.7-5.7,0.9c-0.3,0-0.6,0.1-1,0.1s-0.8-0.2-1.1-0.5c-0.9-0.7-1.6-1.5-2.7-2
				c-2.6-1.4-5.5-2.3-8.4-2.8c0.7,0.1,1.9-0.4,2.6-0.5c0.9-0.2,1.8-0.3,2.8-0.4c1.8-0.2,3.7-0.2,5.5,0c3.1,0.4,6.2,0.3,9.4,0.5
				c3.3,0.2,6.6,0.5,9.9,0.9c1.9,0.2,4,0.4,5.7-0.2c3.4-1.2,5.4,0.5,6.9,2.8C313.9,373.7,315.3,378.2,315.3,384z"/>
			<path class="st4" d="M355.7,221.7c-0.2,0.1-0.5,0.2-0.7,0.3c-0.1,0-0.9,0.3-1,0.3c-0.3,2.9-0.3,5.9,0,8.8
				c-3.5,3.6-8.1,5.6-12.1,8.7c1.1,1.5,2.1,2.9,3.2,4.4c0.1,0.1,0.1,0.2,0.1,0.3c0,0.2-0.1,0.3-0.3,0.4c-1,0.7-1.9,1.4-2.9,2.1
				c-1.1,0.8-2.2,1.6-2.8,2.8c-0.5,1-0.6,2.1-0.7,3.1c-0.1,1.3-0.2,2.6-0.3,3.8c-0.1,1.5-0.3,3-0.4,4.5c0,0.6-0.1,1.2-0.3,1.9
				c-0.1,0.2-0.1,0.4,0,0.6c0,0.2,0.2,0.3,0.3,0.5c0.4,0.6,0.8,1.3,0.8,2.1c0.1,0.8-0.1,1.6-0.3,2.4c-0.5,2.2-0.5,4.5-0.1,6.7
				c-0.9-0.8-1.8-1.6-2-2.8c-0.1-0.5,0-1.1,0.1-1.6c0.2-1.2,0.4-2.4,0.6-3.7c0.1-0.5,0.2-1,0.2-1.5s-0.3-1-0.4-1.5
				c-1-4.2-1.1-8.5-0.9-12.8c0-0.7,0-1.4,0-2.1c0-0.4-0.2-0.9,0.1-1.2c0.5-0.5,1.2-0.9,1.8-1.3c0.6-0.4,1.2-0.8,1.8-1.3
				c0.3-0.2,0.5-0.4,0.6-0.7c0.1-0.2,0-0.5,0-0.8c-0.4-1.7-1-3.4-1.8-5c-0.1-0.2-0.3-0.5-0.3-0.8c0-0.8,0.8-1.2,1.5-1.5
				c3.4-1.3,6.6-3.3,9.4-5.7c0.3-0.3,0.6-0.6,0.9-1c0.3-0.5,0.3-1.1,0.4-1.6c0.1-2,0.2-4,0-6c-0.1-1.7-0.2-3.6,1-4.9
				c0.3-0.4,0.8-0.7,1-1.1c0.2-0.3,0.3-0.7,0.4-1c0.3-1.2,0.5-2.3,0.8-3.5c0.1-0.5,0.3-1,0.3-1.6c0-0.2,0-0.3,0.1-0.5
				c0.5-1,1.2,0.1,1.4,0.7c0.5,2.1,0.8,4.1,1,6.2c0.1,0.7,0.1,1.5,0.2,2.2c0,0.5,0.1,1,0.1,1.6c0,0.4-0.2,0.7-0.5,0.9
				C355.8,221.7,355.7,221.7,355.7,221.7z"/>
			<path class="st4" d="M129.6,371c4.8-4,9.8-7.8,14.4-12c3.2-2.9,7.4-2.2,9.9-0.9c7.3,3.7,14.8,1.9,22.2,2.4
				c1.5,0.1,3.2-0.8,4.5,1.2c-8.9,2-17.8,0.8-26.6,1.6c-8.7,0.8-15.5,7.3-24.1,8.9C129.9,371.7,129.8,371.4,129.6,371z"/>
			<path class="st4" d="M356.5,262.8c1.6,5,0.4,9.2-2.2,13.1c-1.7,2.5-1.5,5.2-1.2,7.9c0.1,1.6,0.4,3.3-1.5,4.2
				c-1.3,0.6-2.6,0.1-3.7-0.6c-1.8-1.1-1.2-2.7-0.9-4.3c0.2-1.4,0.7-2.9,0.5-4.3C346.5,271.3,350.5,266.6,356.5,262.8z"/>
			<path class="st4" d="M338.6,182c-0.2,2.1,0.5,6.3-2.2,6.1c-3.4-0.2-2-4.2-2-6.7c0-0.8,0.1-1.6,0.3-2.4c0.5-1.4-1-4.2,1.7-4.1
				c2,0.1,2.1,2.4,2.1,4.3C338.6,180.1,338.6,180.9,338.6,182z"/>
			<path class="st4" d="M330.9,317c0,2.2,0.1,4.3-2.7,4.4c-2.1,0.1-2.4-1.3-2.1-2.9c0.3-2.1,0-5.2,2.9-5.4
				C331.6,312.8,330.6,315.6,330.9,317z"/>
		</g>
		<path class="st0" d="M239.4,360c-9.1-0.3-18.3-0.7-27.3-2c-5.8-0.9-11.4-2.2-17.2-3c-6.2-0.8-12.6-0.9-18.8-1
			c-9.5-0.2-19.2-0.3-28.4,2s-18.2,7.4-23.1,15.6c8.7,6.4,20.1,7.2,30.9,7.8c6.6,0.4,13.2,0.7,19.8,1.1c48.7,2.7,97.4,5.4,146.1,5.5
			c-1.5-4.6-3-9.3-4.6-13.9c-1.4-4.1-3.4-8.9-8.2-9.9c-1.6-0.3-3.2,0-4.8,0.1c-2.8,0-5.7-0.2-8.5-0.3c-11.9-0.4-23.9-0.9-35.8-1.3
			C252.8,360.5,246.1,360.2,239.4,360z"/>
		<path class="st1" d="M350.1,351.6c1.5-0.8,3.2-1.6,4.1-3s1-3.1,1.1-4.7c0.4-6.6,0.8-13.1,1.2-19.7c0.5-7.4,0.9-14.8,0.8-22.2
			c-0.1-7-0.8-14-0.4-20.9c0.4-6.4,1.7-12.7,2.4-19.1c2.5-22.6-2.8-45.4-1.8-68.1c0.4-8.4,1.7-16.8,2.2-25.3
			c1.5-22.9-2.5-46.2-11.5-67.3c-0.8-1.8-1.6-3.6-3.1-4.8c-2-1.6-4.7-1.8-6.9-3.1c-3.1-1.9-4.3-5.7-6-9
			c-4.2-8.2-12.2-13.8-20.9-16.9s-17.9-4-27-4.9c-6.4-0.6-12.8-1.2-19.2-1.9c-3.1-0.3-7.6,0.7-7.1,3.8c9.2,6.9,19.8,11.9,29.5,18.1
			s18.9,14.1,23.5,24.7c2,4.5,3,9.4,4,14.3c3,14,5.9,28,6.6,42.3c0.5,10.4-0.2,20.9-0.9,31.4c-0.9,13.7-1.5,27.5-2.1,41.2
			s-1,27.5-1.2,41.2c-0.3,13.8-0.4,27.5-0.3,41.2c0,6.9,0.1,13.8,0.2,20.6c0,3.4,0.1,6.9,0.2,10.3c0.1,3.2-0.2,6.7,0.2,10
			c0.7,4.9,6.2,4.2,9.6,2.7c6.2-2.7,12.2-5.9,18.4-8.9C346.8,353.2,349,351.6,350.1,351.6z"/>
		<path class="st5" d="M324,384.8c0.4,0.7,0.9,1.5,1.7,1.5c0.5,0,1-0.3,1.4-0.5c4.6-3.1,8.4-7.3,13.4-9.6c3.4-1.6,7.1-2.2,10.6-3.4
			c5-1.7,9.5-4.6,14-7.4c1.6-1,3.4-2.5,3.1-4.4c-0.1-0.7-0.5-1.3-0.9-1.8c-2.5-3.4-5.5-6.3-8.9-8.7c-0.7-0.5-1.4-0.9-2.2-1
			c-1-0.1-2,0.4-2.9,0.8c-7.3,3.6-14.5,7.2-21.7,10.9c-3.6,1.8-7.2,3.7-10.8,5.5c-3,1.5-5.5,2.6-3.5,6.2
			C319.6,376.9,322,380.8,324,384.8z"/>
		<path class="st5" d="M327.2,427.8c0.1,0.7,0.2,1.5,0.6,2c1.1,1.2,3,0.5,4.4-0.3c12.1-6.8,24.2-13.6,36.3-20.4
			c1.2-0.7,2.5-1.4,3.3-2.6c0.8-1.3,0.9-2.9,1-4.4c0.4-8.1,0.7-16.2,1.1-24.4c0.1-2.3,0.1-4.8-1.2-6.6c-1.4-2-4.1-2.6-6.5-2.3
			s-4.6,1.5-6.7,2.7c-9.7,5.4-19.4,10.7-29.1,16c-3.2,1.8-7.1,3-6.8,7.2c0.3,4.9,1.1,9.8,1.6,14.6c0.3,3.1,0.7,6.1,1,9.2
			C326.5,421.6,327.2,424.8,327.2,427.8z"/>
		<path class="st6" d="M272.4,114c1.9,1.6,1.7,4.9-0.3,6.4s-5.2,0.5-6.1-1.8s0.8-5.2,3.2-5.6C270.3,112.9,271.5,113.2,272.4,114z"/>
		<path class="st6" d="M288.6,128.1c-0.1,0.5-0.2,0.9-0.2,1.4c0.1,0.9,0.7,1.6,1.5,1.9c2.1,1.1,5.2-0.5,5.5-2.9
			c0.2-2.4-2.4-4.7-4.7-4c-0.2-0.1-0.5,0.1-0.6,0.3C289.2,125.9,289,126.9,288.6,128.1z"/>
		<path class="st6" d="M278.7,142.2c-1.5,0-3,0-4.4,0c-0.4,0-0.8,0-1.1,0.3c-0.2,0.2-0.2,0.5-0.3,0.8c-0.2,1.2-0.3,2.3-0.4,3.5
			c-0.1,1.4-0.1,3.2,1.1,3.9c0.8,0.4,1.7,0.3,2.5,0.5c0.7,0.2,1.3,0.6,2,0.5c1.4,0,2.3-1.5,2.6-2.9c0.3-1.5,0.4-3-0.3-4.4
			s-2.1-2.4-3.6-2.2"/>
		<path class="st7" d="M346.2,185.7c-1-1-2.2-0.9-3.5-0.5c-1.2,0.4-1.9,1.6-1.8,2.8c0,1,0.7,2,1.4,2.7c1.1,1.1,3.1,0.1,3.9-0.9
			C347.2,188.8,347.2,186.9,346.2,185.7z"/>
		<path class="st7" d="M339.2,202.5c-0.1-0.6-0.5-1.6-1-2.1c-0.6-0.6-1.8-0.3-2.5,0c-0.6,0.3-1.2,0.7-1.7,1.2
			c-0.2,0.2-0.4,0.3-0.5,0.6c-0.3,0.5-0.4,1-0.5,1.6c0,0.3-0.3,1.7,0,1.9c1.2,0.8,2.8,1,4.2,0.4
			C338.4,205.4,339.4,203.9,339.2,202.5z"/>
		<path class="st6" d="M166.9,328.9c-1.9,0-3.7,0.9-4.6,2.5s-0.6,3.9,0.8,5.1c1.5,1.3,6.4,1.2,7.8-0.1s-0.5-3.6-1.3-5.5
			c-1.2-0.7-2.5-1.4-3.8-2"/>
		<path class="st6" d="M158.2,295.8c-0.6,1.6-1.1,3.2-1.4,4.9c-0.1,0.3-0.1,0.7,0.1,1c0.3,0.5,0.9,0.6,1.5,0.7
			c1.5,0.1,3.2,0.1,4.1-1c0.3-0.3,0.5-0.8,0.6-1.2c0.5-1.6,0.2-3.5-1.2-4.4s-3.6-0.4-3.9,1.2"/>
		<path class="st6" d="M180.5,312.2c-0.2-0.5-0.6-1.3-1.1-1.5c-0.3-0.1-0.8,0-1.2,0s-0.7,0-1.1,0c-0.3,0-0.6,0-0.8,0.1
			c-0.4,0.2-0.8,0.8-1.1,1.1c-0.2,0.1-0.3,0.2-0.4,0.4c-0.3,0.5-0.4,1.2-0.4,1.8c0,0.2,0,1.8,0.2,1.8c1,0.2,4.5,0.5,5.5,0.7
			c0.6,0.1-1.1,0.3-0.6-0.1c0.2-0.2,0.4-0.4,0.6-0.7C180.6,314.6,180.9,313.3,180.5,312.2z"/>
		<path class="st7" d="M278.5,419.6c1.9,1.4,5,1,6.3-1c1-1.5,0.8-3.4,0.5-5.2c-0.1-0.5-0.2-1-0.5-1.3s-0.8-0.4-1.3-0.4
			c-1.4-0.2-2.6-0.1-4-0.1c-0.2,0-0.4,0-0.6,0c-0.5,0.2-1,0.6-1.4,1c-1,1-1.4,2.2-1.1,3.6C276.7,417.5,277.4,418.8,278.5,419.6z"/>
		<path class="st7" d="M265.8,400.1c-1.4,0.6-2.1,2.3-1.6,3.7c0.8,0.7,1.8,1.3,2.9,1.4s2.3-0.6,2.5-1.7c0.2-0.9-0.3-1.7-0.8-2.5
			s-1.1-1.6-2-1.9c-0.9-0.2-2.1,0.6-1.7,1.5"/>
		<path class="st7" d="M335.9,330.7c-1.6-0.5-3.4,0.2-4.5,1.4c-1.1,1.3-1.6,3-1.7,4.6c-0.1,0.9,0,1.8,0.5,2.5c0.7,0.9,2,1,3.1,0.7
			c2.2-0.4,4.2-2,4.8-4.1s-0.8-4.8-3-5.1C336.7,330.5,334.8,329.6,335.9,330.7z"/>
		<path class="st7" d="M343,305.4c-2.1,0.4-4.1,1.9-4.3,4s2.2,4.1,4.1,3.1c1.9-1.8,1.7-5.3-0.3-7"/>
		<path class="st8" d="M277.3,101.8c-1.2,0.3-1.7,1.9-1.2,3s1.8,1.7,3.1,1.7c0.6,0,1.3-0.2,1.6-0.7c0.1-0.3,0.2-0.6,0.2-0.9
			c0-1.1,0-2.3-0.3-3.4c-1.1-0.1-2.2-0.1-3.3,0.1"/>
		<path class="st8" d="M266.3,119.5c-0.9,0.1-1.9,0.2-2.7,0.6s-1.5,1.3-1.4,2.2c0.1,1.2,1.4,2,2.5,2.5c0.9,0.4,2.1,0.8,2.9,0.1
			c0.8-0.7,0.5-1.9,1.1-2.8c0.2-0.3,0.5-0.6,0.6-1c0.1-0.7-0.7-1.2-1.4-1.3s-1.5-0.2-1.8-0.8"/>
		<path class="st8" d="M251.4,97.9c-0.9,0.5-1.9,1.2-2.4,2.1c-1,1.7-0.2,4.4,1.7,4.8s3.6-1.3,4.6-3c0.1-0.2,0.2-0.4,0.2-0.6
			s-0.2-0.4-0.4-0.5c-1.1-0.8-2.2-1.6-3.3-2.3c-0.3-0.2-0.8-0.4-1,0"/>
		<path class="st8" d="M174.3,115.5c-0.5,1.2-0.7,2.6-0.6,4c0.9,0.5,2,0.4,2.9,0c0.9-0.5,1.6-1.2,2.2-2.1c0.1-0.2,0.3-0.4,0.3-0.7
			c0-0.4-0.2-0.8-0.5-1.1c-0.6-0.7-1.4-1.2-2.3-1.3c-0.9-0.1-1.9,0.6-2,1.4"/>
		<path class="st8" d="M169.8,131.8c-0.8,0.4-0.9,1.7-0.4,2.4c0.6,0.7,1.6,1,2.5,0.9c0.6-0.1,1.3-0.3,1.5-0.8
			c0.4-0.8-0.2-1.7-0.8-2.3c-0.6-0.7-1.5-1.5-2.5-1.2"/>
		<path class="st8" d="M210.3,80.4c-0.4,1-0.4,2.2-0.1,3.3c0.5,0.8,1.7,1,2.5,0.5s1.2-1.5,1.1-2.5c-0.2-1.1-1.4-2.2-2.4-1.7"/>
		<path class="st8" d="M298.1,178.2c-0.7,1.2-0.4,3,0.8,3.8c1.2,0.8,3,0.4,3.7-0.8c0.4-0.6,0.4-1.5,0.2-2.2c-0.4-1-1.5-1.7-2.6-1.7
			c-1.1-0.1-2.2,0.4-3,1.1c0.4,0.1,0.7,0.3,1.1,0.4"/>
		<path class="st5" d="M291.6,325.1c-0.1,1.5-0.8,2.9-0.8,4.4s1,3.2,2.5,3.2c1.3,0,2.2-1.2,2.8-2.3c0.5-0.7,0.9-1.5,1.3-2.2
			c0.3-0.4,0.5-0.9,0.3-1.4c-0.1-0.2-0.3-0.4-0.5-0.5c-1.7-1.1-3.8-1.6-5.9-1.5"/>
		<path class="st9" d="M282.8,307.8c0.5,1.1,1.3,2.2,2.4,2.5c1.9,0.6,4.1-1.7,3.3-3.5s-4-1.9-4.8,0"/>
		<path class="st9" d="M242,334.6c-0.7,1.8,0.8,4,2.7,4.3s3.8-1.3,4.3-3.2c0.1-0.3,0.1-0.7-0.1-1c-0.2-0.3-0.5-0.4-0.9-0.5
			c-1.6-0.4-3.3-0.8-4.9-1.3c-0.2,0.5-0.4,1.1-0.5,1.6"/>
		<path class="st8" d="M167.3,262.4c-0.2,0.9-0.5,1.8-0.3,2.7c0.1,0.9,0.7,1.8,1.6,2c1,0.3,2.1-0.5,2.5-1.5s0.4-2.1,0.3-3.1
			c-1.2-0.2-2.4-0.4-3.5-0.6"/>
		<path class="st9" d="M157.8,397.1c-0.4,1.3-0.7,3,0.4,3.9c1.2,1,2.9,0.1,4.4,0.4c0.3-1.2,0.4-2.5,0.1-3.7s-1.2-2.4-2.4-2.6
			C159.1,394.8,157.7,395.8,157.8,397.1c0.2,0,0.6,0,0.9,0"/>
		<path class="st9" d="M180.6,405.8c0,1.6,0,3.1,0.1,4.7c1.1,0.2,2.3,0.3,3.5,0.5c0.3,0,0.7,0.1,1-0.1s0.4-0.6,0.5-1
			c0.4-1.7,0.4-3.6-0.8-4.9c-1.2-1.2-3.8-0.9-4,0.8"/>
		<path class="st9" d="M283.9,408.6c-1.1,0.9-1.7,2.5-1.1,3.8s2.4,2,3.6,1.1c0.5-1.1,1-2.3,0.8-3.5s-1.8-2.1-2.8-1.3"/>
		<path class="st9" d="M338.7,408.8c-0.2,0.8-0.3,1.7,0,2.5s1.4,1.3,2.1,0.8c0.3-0.2,0.4-0.5,0.5-0.8c0.4-0.9,0.6-1.8,0.5-2.7
			s-0.8-1.8-1.7-1.9c-0.9-0.1-1.9,0.8-1.6,1.6"/>
		<path class="st9" d="M333.3,288.5c-0.2,0.9-0.5,1.8-0.3,2.7s0.9,1.8,1.8,1.7c1.4,0,2-1.7,2.2-3.1c0.2-1.2,0.2-2.8-0.9-3.3
			c-1.2-0.5-2.3,0.8-3,1.8"/>
		<path class="st8" d="M343.4,137.7c-0.2,0.9-0.3,1.9,0.1,2.7s1.5,1.3,2.3,0.8c0.4-0.2,0.6-0.6,0.8-1c0.3-0.8,0.6-1.6,0.4-2.4
			c-0.2-0.8-0.8-1.6-1.6-1.7s-1.7,0.7-1.5,1.5"/>
		<path class="st8" d="M337.9,151.1c0,1.1,0,2.1,0.1,3.2c1.5,0.2,3-0.9,3.2-2.4s-1-3-2.5-3.1c0.1,0.7-0.1,1.4-0.4,2"/>
		<path class="st8" d="M351.1,153.6c-0.4,1.1-0.7,2.3-0.5,3.5s1.4,2.2,2.5,2c1.5-0.3,1.8-2.4,1.7-4c-0.1-1.1-0.2-2.4-1.1-3
			s-2.6,0.1-2.2,1.1"/>
	</g>
	<g id="Color_Skull_1_">
		<path class="st10" d="M196.2,267.4c1.7-6-1.5-11.4-6.1-16.8c-7.1-8.3-13.6-17-15.1-28.6c-3.3-26.2,11.3-51.8,35.4-61.1
			c25.3-9.8,53.3-1,68.4,21.4c6.7,9.9,10.1,20.8,10.1,32.8c0,11-3.5,20.5-11.2,28.4c-3.7,3.7-6.8,8-10.7,11.5
			c-4.1,3.6-5.6,7.7-5.3,12.9c0.2,4.1-0.3,8.2-0.2,12.3c0,0.3,0,0.6,0,0.8c0,0.4-0.1,0.7-0.1,1c0,0.2,0,2.1,0.1,2.1
			c-0.7,0-1.4,0-2,0.1c-0.8,0-1.6,0.1-2.4,0c-1.5-0.2-2.9-0.2-4.4-0.3c-0.3,0-0.6,0-1-0.1c-0.6,0-1.1-0.1-1.7-0.1
			c-0.2,0-0.4-0.1-0.7-0.1s-0.6,0-0.9,0c-1.1,0-2.3,0-3.5,0c0-0.6-0.1-1.2-0.1-1.8c-0.1-1.2-0.1-2.4-0.1-3.6c0-2.3-0.1-4.6-0.1-6.9
			c0-0.1,0-0.2-0.1-0.3c-0.1-0.1-0.2-0.1-0.3-0.1c-2.4-0.2-4.8,0-7.2,0.3c0,1.4,0,2.8-0.1,4.3c0,0.4,0,0.8,0,1.2
			c0,0.6,0,1.1-0.1,1.7c0,0.2-0.1,0.3-0.1,0.4c-0.1,0.2-0.1,0.5-0.1,0.7c-0.1,1.1-0.1,2.3,0.1,3.4c-0.7,0-1.4,0-2.2,0
			c-0.9,0-1.9,0-2.8-0.2c-1.1-0.2-2.3-0.1-3.4-0.2c-0.4,0-0.9,0-1.3-0.1c-1.1,0-2.2-0.2-3.3-0.2c-0.6,0-1.1,0-1.7,0
			c-0.1,0-1.6,0.1-1.7,0.2c0-1,0.1-2.1,0.1-3.1c0-0.5,0-1,0.1-1.6c0-0.5,0.1-1,0.1-1.5c0-2,0-4-0.1-6.1c-2.6-0.5-5.3-0.7-8-0.7
			c-0.1,2.3-0.2,4.6-0.4,6.9c-0.1,1.1-0.1,2.3-0.2,3.5c0,0.3,0,0.6,0,0.9c0,0.2,0,0.4-0.1,0.5c-0.1,0.2-0.6,0.2-0.8,0.2
			c-1.4,0.1-2.9,0-4.3-0.1c-0.6,0-1.3-0.1-1.9-0.1c-1.6-0.1-3.2-0.1-4.8-0.2c-0.5,0-1.1-0.1-1.6-0.1c-0.3-0.1-0.6-0.2-1-0.2
			c-0.1,0-1.7-0.1-1.7-0.1c0-0.1,0-0.2,0-0.3c0-1.1,0-2.3,0-3.5c0-0.5-0.1-1,0.1-1.5c0.1-0.2,0-0.4,0-0.6c0-0.5,0-1,0-1.5
			c0-1.3,0.1-2.5,0.1-3.8C196.1,269.4,196.1,269,196.2,267.4z M228.6,249c0.9,0.1,1.8,0.1,2.7,0.2c1.4,0.1,2.9,0.2,4.3,0.4
			c-0.5-1.5-1-3-1.6-4.4c-0.2-0.6-0.5-1.1-0.7-1.6s-0.5-0.9-0.7-1.4c-0.1-0.1-0.1-0.3-0.1-0.4c-0.1-0.5-0.3-0.9-0.4-1.4
			c-0.5-1.2-0.9-2.5-1.4-3.8c-0.2-0.6-0.4-1.1-0.7-1.7c0,0.1-0.2,0.4-0.2,0.4c-0.1,0.2-0.3,0.4-0.4,0.6c-1.3,1.8-2.5,3.6-3.6,5.5
			c-0.6,0.9-1.1,1.9-1.7,2.9c-0.3,0.5-0.5,1-0.8,1.4c-0.1,0.2-0.2,0.4-0.3,0.6c-0.1,0.4-0.5,0.8-0.8,1.2c-0.4,0.5-0.8,1-1.1,1.6
			c0,0,0.3,0,0.4,0c0.1,0,0.3,0,0.4,0c0.3,0,0.6,0,0.9,0c0.6,0,1.1,0,1.7-0.1c0.2,0,0.5-0.1,0.7-0.1c0.3,0,0.6,0,0.9,0.1
			c0.6,0,1.1,0.1,1.7,0.1C228.1,248.9,228.4,248.9,228.6,249z"/>
		<path class="st10" d="M193.9,264.6c1.6-5.9-1.5-11.2-6-16.5c-7-8.2-13.4-16.7-14.8-28c-3.2-25.7,11.1-50.7,34.7-59.8
			c24.8-9.6,52.2-1,67.1,21c6.5,9.7,9.9,20.4,10,32.1c0,10.8-3.4,20.1-11,27.8c-3.6,3.7-6.6,7.9-10.5,11.2c-4,3.5-5.5,7.5-5.2,12.7
			c0.2,4-0.3,8-0.2,12c0,0.3,0,0.5,0,0.8s-0.1,0.7-0.1,1c0,0.2,0,2,0.1,2c-0.7,0-1.3,0-2,0c-0.8,0-1.6,0.1-2.4,0
			c-1.4-0.2-2.9-0.2-4.3-0.3c-0.3,0-0.6,0-0.9-0.1c-0.6,0-1.1-0.1-1.7-0.1c-0.2,0-0.4-0.1-0.6-0.1c-0.3,0-0.6,0-0.9,0
			c-1.1,0-2.3,0-3.4,0c0-0.6-0.1-1.1-0.1-1.7c-0.1-1.2-0.1-2.3-0.1-3.5c0-2.3-0.1-4.5-0.1-6.8c0-0.1,0-0.2-0.1-0.3
			c-0.1-0.1-0.2-0.1-0.3-0.1c-2.3-0.2-4.7,0-7,0.3c0,1.4,0,2.8-0.1,4.2c0,0.4,0,0.8,0,1.2c0,0.5,0,1.1-0.1,1.7
			c0,0.2-0.1,0.3-0.1,0.4c-0.1,0.2-0.1,0.5-0.1,0.7c-0.1,1.1-0.1,2.2,0.1,3.3c-0.7,0-1.4,0-2.1,0c-0.9,0-1.8,0-2.7-0.2
			c-1.1-0.2-2.2-0.1-3.4-0.2c-0.4,0-0.9,0-1.3-0.1c-1.1,0-2.1-0.2-3.2-0.2c-0.6,0-1.1,0-1.7,0c-0.1,0-1.6,0.1-1.6,0.2
			c0-1,0.1-2,0.1-3.1c0-0.5,0-1,0.1-1.5c0-0.5,0.1-1,0.1-1.5c0-2,0-4-0.1-6c-2.6-0.4-5.2-0.7-7.8-0.7c-0.1,2.3-0.2,4.5-0.3,6.8
			c-0.1,1.1-0.1,2.3-0.2,3.4c0,0.3,0,0.6,0,0.9c0,0.2,0,0.4-0.1,0.5c-0.1,0.2-0.6,0.2-0.8,0.2c-1.4,0.1-2.8,0-4.2-0.1
			c-0.6,0-1.3-0.1-1.9-0.1c-1.6-0.1-3.2-0.1-4.7-0.2c-0.5,0-1-0.1-1.6-0.1c-0.3,0-0.6-0.2-1-0.2c-0.1,0-1.6-0.1-1.6-0.1
			c0-0.1,0-0.2,0-0.3c0-1.1,0-2.3,0-3.4c0-0.5-0.1-1,0.1-1.4c0.1-0.2,0-0.4,0-0.6c0-0.5,0-1,0-1.5c0-1.2,0.1-2.5,0.1-3.7
			C193.8,266.5,193.8,266.2,193.9,264.6z M225.7,246.5c0.9,0.1,1.8,0.1,2.6,0.2c1.4,0.1,2.8,0.2,4.2,0.4c-0.5-1.4-0.9-2.9-1.5-4.4
			c-0.2-0.6-0.5-1.1-0.7-1.6s-0.5-0.9-0.7-1.4c-0.1-0.1-0.1-0.3-0.1-0.4c-0.1-0.5-0.3-0.9-0.4-1.4c-0.5-1.2-0.9-2.5-1.4-3.7
			c-0.2-0.6-0.4-1.1-0.7-1.7c0,0.1-0.2,0.3-0.2,0.4c-0.1,0.2-0.3,0.4-0.4,0.6c-1.2,1.8-2.4,3.6-3.5,5.4c-0.6,0.9-1.1,1.9-1.6,2.8
			c-0.3,0.5-0.5,0.9-0.8,1.4c-0.1,0.2-0.2,0.4-0.3,0.6c-0.1,0.4-0.5,0.8-0.8,1.1c-0.4,0.5-0.7,1-1.1,1.5c0,0,0.3,0,0.4,0
			c0.1,0,0.3,0,0.4,0c0.3,0,0.6,0,0.9,0c0.6,0,1.1,0,1.7-0.1c0.2,0,0.5-0.1,0.7-0.1c0.3,0,0.6,0,0.9,0.1c0.6,0,1.1,0.1,1.7,0.1
			C225.2,246.5,225.5,246.5,225.7,246.5z"/>
	</g>
	<g id="Skull_1_">
		<path d="M264.4,166.1c-18.3-14.6-39-17-60.4-7.4c-34.3,15.4-43.5,61-22.9,83.7c2.9,3.2,5.1,6.9,8.1,10.1c2.7,2.9,3.6,6,3.4,9.9
			c-0.3,5.4-0.8,10.9,0,16.8l17.6,0.8l0.3-12.5l6.8,0.2v0.1c0,0.1,0,0.2,0,0.3c0,0.1,0,0.3,0,0.4c0,0.2,0,0.4,0,0.5
			c0,0.2,0,0.4,0,0.6s0,0.5,0,0.7c0,0.3,0,0.5,0,0.8s0,0.6,0,0.9s0,0.6,0,0.9s0,0.6,0,0.9s0,0.6,0,0.9s0,0.6,0,0.9s0,0.5,0,0.8
			c0,0.2,0,0.5,0,0.8c0,0.2,0,0.5,0,0.7s0,0.4,0,0.6c0,0.1,0,0.3,0,0.5c0,0.1,0,0.2,0,0.3c0,0.3-0.1,0.6-0.1,1c0.1,0,0.1,0,0.2,0
			h0.1l0,0h0.1c0.1,0,0.3,0,0.4,0c0.3,0,0.6,0,0.9,0c1.2,0,2.3,0.1,3.5,0.1c1.4,0.1,2.9,0.1,4.4,0.2c1.3,0.1,2.7,0.1,4,0.2
			c0.8,0,1.6,0.1,2.5,0.1c0.1,0,0.2,0,0.3,0c0.2,0,0.3,0,0.5-0.1c0-0.3,0.1-0.7,0.1-1v-0.1c0-0.1,0-0.3,0.1-0.4
			c0-0.3,0.1-0.6,0.1-0.8c0-0.2,0-0.4,0-0.6s0-0.4,0-0.5c0-0.2,0-0.3,0-0.5s0-0.4,0-0.6s0-0.5,0-0.8s0-0.6,0-0.8c0-0.3,0-0.6,0-0.9
			s0-0.6,0-0.9s0-0.6,0-0.9s0-0.6,0-0.9c0-0.2,0-0.5,0-0.8c0-0.2,0-0.4,0-0.6s0-0.3,0-0.5c0-0.1,0-0.2,0-0.3v-0.1l6.8,0.2l-0.3,12.4
			c1.1,0,18.5,0.8,18.5,0.8c0-3.6,0-7.2,0-10.9c0-1.7,0-3.4,0-5.1c0-0.5,0-1-0.1-1.4c0-1.2,0-2.4,0.2-3.5c0.2-1.2,0.6-2.5,1.4-3.5
			c0.2-0.2,0.4-0.5,0.6-0.7c0.3-0.3,0.5-0.5,0.8-0.8c0.5-0.5,1-1.1,1.5-1.6c1-1.1,2-2.1,3-3.2c1-1.1,1.9-2.1,2.9-3.2
			c1-1.1,1.9-2.1,2.8-3.2c0.9-1.1,1.9-2.1,2.8-3.2c0.9-1.1,1.8-2.1,2.7-3.2c0.5-0.5,0.9-1.1,1.4-1.6c3.4-4.2,5.8-8.9,6.6-14.3
			C289.6,199.7,282.5,180.5,264.4,166.1z M207.7,264.2c-0.2,0-0.4,0-0.7,0c-0.1,0-0.2,0-0.3,0c0,0.5,0,1,0,1.5c0,1-0.1,2.1-0.1,3.1
			c-0.1,2.1-0.2,4.3-0.2,6.4l-8.9-0.4c0-0.9,0.1-1.8,0.1-2.7c0.1-2,0.2-4,0.2-6.1c0.1-2.1,0.2-4.3,0.2-6.4c0-0.8,0.1-1.6,0.1-2.4
			c0-0.4-0.1-0.8-0.1-1.1c0-0.4-0.1-0.8-0.1-1.2c0-0.2-0.1-0.3-0.1-0.5c-0.1-0.1-0.1-0.3-0.2-0.4c-0.1-0.3-0.2-0.6-0.4-0.9
			c-0.3-0.6-0.6-1.2-0.9-1.8c-0.3-0.6-0.7-1.1-1.1-1.7c-0.2-0.3-0.5-0.7-0.8-1c-4.2-5.1-8.2-10.4-12.2-15.7
			c-5.7-7.8-6.7-16.9-5.6-26.1c2.5-20.7,13.3-35.7,32.6-43.4c19.1-7.6,37.2-4.4,52.4,9.3c15.5,13.9,21.2,31.6,16.2,52.3
			c-1.2,5.3-4.6,9.1-8,12.9c-4.2,4.7-8.5,9.3-12.8,13.9c-0.2,0.2-0.4,0.3-0.5,0.5c0,0.1,0,0.1-0.1,0.2c-0.1,0.1-0.1,0.2-0.2,0.3
			c-0.1,0.2-0.3,0.4-0.4,0.6c-0.1,0.1-0.1,0.2-0.2,0.3c-0.1,0.1-0.1,0.1-0.1,0.2c-0.2,0.4-0.4,0.8-0.6,1.2c-0.4,0.9-0.6,1.9-0.8,2.9
			c-0.1,0.5-0.1,1-0.1,1.5c0,0.2,0,0.5,0,0.7c0,0.1,0,0.2,0,0.4c0,0.2,0,0.4,0,0.6c0,0.3,0,0.7,0,1c0,0.6,0,1.1,0,1.7
			c0,1.1,0,2.3,0,3.4s0,2.3,0,3.4s0,2.3,0,3.4c0,0.6,0,1.1,0,1.7c0,0.3,0,0.6,0,0.9c0,0.1,0,0.2,0,0.3v0.1c-0.1,0.1-0.2,0-0.2,0
			c-0.1,0-0.3,0-0.4,0c-0.5,0-1.1,0-1.6-0.1c-2.2-0.1-4.4-0.2-6.6-0.3c0.1-1.9,0.1-3.8,0.2-5.6c0-0.6,0.1-1.3,0.1-1.9
			c0-0.8,0-1.5,0-2.3c0-0.3,0-0.5,0-0.8l-1.3-0.2c-0.5-0.1-1-0.2-1.5-0.2c-1.1-0.1-2.1-0.2-3.2-0.3c-1.1-0.1-2.2-0.1-3.3-0.1
			s-2.2,0-3.3,0c-0.9,0-1.9,0-2.8,0l-0.4,11.5l-8.9-0.4l0.4-11.3c-0.5-0.1-1.1-0.2-1.6-0.3c-1.1-0.2-2.1-0.3-3.2-0.4
			c-1.1-0.1-2.2-0.1-3.3-0.2c-1.1,0-2.2,0-3.3-0.1c-0.5,0-1.1,0-1.6,0"/>
		<path d="M229.9,230.8c-0.1-0.1-0.1-0.3-0.2-0.4c-0.2-0.3-0.3-0.7-0.5-1c-0.1-0.2-0.2-0.4-0.3-0.6c-0.1-0.2-0.2-0.3-0.3-0.5
			c-0.4-0.6-0.7-1.3-1.1-1.9c-0.2-0.3-0.3-0.6-0.5-1c0-0.1-0.1-0.2-0.1-0.2c0-0.1-0.1-0.2-0.1-0.2c-0.1,0-0.1,0-0.1,0.1
			s-0.1,0.1-0.1,0.2c0,0.1-0.1,0.2-0.1,0.3c-0.1,0.2-0.2,0.4-0.3,0.5c-0.4,0.6-0.8,1.3-1.1,1.9c-0.4,0.6-0.8,1.3-1.1,1.9
			c-0.5,0.8-0.9,1.6-1.4,2.5c-0.2,0.3-0.3,0.6-0.5,0.8c-0.2,0.3-0.4,0.6-0.5,0.9c-0.2,0.3-0.4,0.6-0.6,1c-0.2,0.3-0.4,0.7-0.6,1
			c-0.2,0.4-0.4,0.7-0.6,1.1c-0.2,0.4-0.4,0.7-0.6,1.1c-0.2,0.4-0.4,0.8-0.6,1.1c-0.2,0.4-0.4,0.8-0.6,1.1c-0.2,0.4-0.4,0.7-0.6,1.1
			c-0.2,0.4-0.4,0.7-0.6,1.1c-0.2,0.4-0.4,0.7-0.6,1.1c-0.2,0.3-0.4,0.7-0.6,1c-0.2,0.3-0.4,0.6-0.5,0.9c-0.2,0.3-0.3,0.6-0.5,0.9
			c-0.1,0.3-0.3,0.5-0.4,0.8c-0.1,0.2-0.3,0.4-0.4,0.7c-0.1,0.2-0.2,0.4-0.3,0.6c-0.1,0.1-0.2,0.3-0.2,0.4c-0.1,0.1-0.1,0.2-0.2,0.3
			l-0.1,0.1h0.1c0.6,0,1.1,0,1.7,0.1c0.1,0,0.2,0,0.4,0c0.1,0,0.3,0,0.4,0c0.1,0,0.1,0,0.2,0c0.1,0,0.2,0,0.3,0s0.2,0,0.4,0
			c0.1,0,0.3,0,0.4,0c0.2,0,0.4,0,0.5,0c0.2,0,0.4,0,0.6,0c0.2,0,0.4,0,0.6,0c0.2,0,0.5,0,0.7,0s0.5,0,0.7,0c0.3,0,0.5,0,0.8,0
			s0.5,0,0.8,0s0.6,0,0.8,0c0.3,0,0.6,0,0.9,0s0.6,0,0.9,0s0.6,0,0.9,0s0.6,0,0.9,0c0.3,0,0.6,0,0.9,0c0.3,0,0.6,0,0.9,0
			c0.3,0,0.6,0,0.9,0c0.3,0,0.6,0,0.9,0c0.3,0,0.6,0,0.8,0c0.3,0,0.5,0,0.8,0s0.5,0,0.8,0c0.2,0,0.5,0,0.7,0s0.5,0,0.7,0
			s0.4,0,0.6,0c0.2,0,0.4,0,0.6,0c0.2,0,0.3,0,0.5,0l3.6,0.1c0.1,0,0.1,0,0.1,0c-0.2-0.6-0.5-1.1-0.7-1.7c-0.6-1.4-1.2-2.7-1.8-4.1
			c-0.8-1.7-1.5-3.5-2.3-5.2c-0.7-1.6-1.4-3.3-2.1-4.9c-0.5-1.1-0.9-2.2-1.4-3.2C230.1,231.2,230,231,229.9,230.8
			C229.9,230.9,229.9,230.9,229.9,230.8z M219.6,245.9c2.4-4.1,4.6-7.8,7.1-12.1c1.7,4.6,3.1,8.2,4.8,12.6
			C227.4,246.2,224,246,219.6,245.9z"/>
	</g>
	<g id="Stone_1_">
		<path class="st11" d="M162.9,168.8c0,0.5,0.1,0.9,0.1,1.3 M162.9,168.8c0,0.5,0.1,0.9,0.1,1.3"/>
		<path class="st11" d="M374.6,359.8c-5.1-4.1-8.9-9.4-13.7-14c0.3-5.1,0.9-9.7,0.9-14.3c-0.1-12.6,0.7-25.2-0.3-37.8
			c-0.6-7.7,1.5-15.1,3.6-22.5c4.1-14.1,1.8-28.6-0.3-42.5c-1.5-9.9-1.7-19.5-1-29.3c0.7-8.6,0.8-17.2,1.5-25.8
			c0.9-12.2,2-24.2-1.1-36.5c-2.7-10.4-3.3-21.3-7.5-31.3c-3.3-7.8-3.3-7.8-13.5-21.3c-9.1-9.6-10.5-9.7-18.3-14.4
			c-6-3.6-11.9-7-19.2-7.7c-9.3-0.9-17.9-5-27.1-6.5c-16-2.6-31.8-1.2-47.6,1.2c-21.2,3.3-42.1,7.4-58.4,23.6
			c-7.7,7.7-15.6,15-18.9,25.7c-0.9,3-2.9,5.6-4.4,8.3c-6.9,11.7-5.3,17-6.3,32.2c0.6,1.1-1.4,7.7-2.1,9.5c-0.9,10.2-1,3.7-0.9,8.1
			c0.3,13.3,0.4,26.6,0.5,39.8c0.1,12,0.6,24-1.6,35.8c-2.4,12.5-2.2,25.1-2.3,37.7c0,2.8,0.1,5.7-0.6,8.4
			c-2.1,9.4-1.6,18.8-1.1,28.2c0.7,12.8,0.1,25.5,1.6,38.6c-7.4,5.8-14.7,11.6-22.1,17.2c-2.6,1.9-4.1,4-4.1,7.4
			c0.2,14.1,0.2,28.2,0.3,42.3c0,3.8,1.8,5.9,5.7,6.2c18.1,1.1,36.1,2.2,54.1,3.4c23.4,1.5,46.7,2.9,70.1,4.4
			c26.5,1.7,53,3.5,79.5,5.2c3.6,0.2,6.9-0.6,10-2.5c13.9-8.4,27.9-16.8,41.9-25c3.4-2,4.7-4.6,4.7-8.5c0.1-12.3,0.4-24.6,0.7-36.8
			C377.3,363.8,376.8,361.5,374.6,359.8z M144.5,296.6c1.2-8.4,2.3-16.7,2.1-25.2c-0.3-11,1-21.8,2.6-32.6c2.2-15,1.4-30.1,1.1-45.2
			c-0.1-5.5-0.2-11-0.1-16.4c0-1.4,0.1-2.8,0.2-4.2c0.1-0.8,0.2-1.6,0.2-2.5c0-0.4,0.3-0.7,0.6-1c0.4-0.5,0.9-1,1.3-1.5
			c0.1-0.1,0.2-0.2,0.4-0.3c0.1,0,0.3,0,0.4,0.1c1.8,0.8,4.9,3.7,5,3.9c0,0.1,3.6,2.8,3.6,2.9c0.1,0.1-2.2,5.1-2.2,5.3
			c4.3,0,3.2-1.4,6.7-7.7c0.2-0.4-3.5-2.9-3.5-3.4c-0.6-0.6-0.8-1.4-1.1-2.1c-0.3-0.9-0.8-1.7-1.3-2.4c-0.3-0.4-0.6-0.7-0.9-1.1
			c-0.3-0.3-0.6-0.6-0.9-0.9c-0.2-0.2-0.3-0.4-0.3-0.7c-0.1-0.4-0.3-0.7-0.4-1.1c-0.4-0.9-0.8-1.9-1.1-2.9c-0.7-1.9-1.3-3.9-1.9-5.9
			s-1.2-4-1.9-6c-0.4-1.1-0.8-2.1-1.2-3.2c0.7-9.4,2.5-18.4,8.7-26c1.4-1.8,2.3-4.1,3-6.2c2.8-9.2,9-15.8,16.1-21.7
			c4.4-3.7,8.4-8.1,13.5-10.6c0.1-0.1,0.5,0.2,0.6,0.2c0.2,0.1,0.4,0.2,0.6,0.3c0.4,0.3,0.7,0.6,0.9,1c0.4,0.5,0.5,1.2,0.8,1.7
			c0.2,0.5,0.4,1.1,0.6,1.6c0.4,1.1,0.8,2.1,1.1,3.2c0.1,0.2,0.1,0.3,0.2,0.4c0,0.1,0.1,0.2,0.1,0.2s0.2,0.1,0.3,0.1
			c0.4,0.1,0.8,0.3,1.2,0.4c0.1,0-0.4,2.7-0.4,2.9v0.5c0,0.4-0.1,0.9-0.1,1.3c-0.1,0.9-0.1,1.8-0.2,2.7c0,0.3-0.1,0.7,0,1
			s0.2,0.5,0.3,0.8c0.8,1.6,1.7,3.2,2.6,4.8c-0.1-0.2-0.1-0.6-0.2-0.8c-0.1-0.3-0.1-0.5-0.2-0.8c-0.1-0.5-0.2-1.1-0.3-1.6
			c-0.1-0.7-0.2-1.4-0.3-2.2c0-0.3-0.1-0.5-0.1-0.8c0-0.2-0.1-0.3,0-0.5c0.1-0.3,0.2-0.6,0.4-0.8c0.1-0.3,0.3-0.6,0.4-0.9
			c0,0,0.6,0.1,0.7,0.2c0.2,0.1,0.4,0.2,0.6,0.2c0.6,0.1,1.1,0.3,1.6,0.6c0.2,0.1,0.4,0.2,0.6,0.4c0.1,0.2,0.2,0.4,0.3,0.6
			c0.5,1.3,1,2.7,1.6,4c0.1,0.2,0.2,0.5,0.4,0.7s0.4,0.3,0.6,0.4c1.3,0.8,2.7,1.6,4,2.4c-0.6-1-1.5-1.8-2.3-2.8
			c-1.2-1.5-2-3.3-2.3-5.2c-0.1-0.4-0.1-0.8-0.1-1.2c-1-0.7-2-1.3-3-2c-0.4-0.3-0.9-0.5-1.2-0.8c-0.1-0.1-0.2-0.3-0.2-0.5
			c-0.1-0.3-0.2-0.5-0.3-0.8c-0.4-1.1-0.7-2.2-1.1-3.2c-0.1-0.3-0.2-0.7-0.5-0.8c-0.1-0.1-0.3-0.1-0.5-0.2c-0.3-0.2-0.4-0.6-0.5-0.9
			c-0.1-0.4-0.2-0.9-0.3-1.3c-0.1-0.3-0.2-0.7-0.2-1.1V81c-0.1-0.7-0.3-1.4-0.3-2.1c-0.1-1.8,0.3-3.6,1.3-5.2
			c30.5-4.5,61.3-8.2,88.1,15.3v14c0,0.4,0,0.9-0.2,1.3c-0.1,0.1-0.1,0.2-0.2,0.4c-0.1,0.3-0.2,0.6-0.4,0.8c-0.3,0.5-0.6,1-1,1.6
			s-0.8,1.2-1,1.9c0.1-0.1,0.2-0.1,0.3-0.2l0.3-0.3c0.2-0.2,0.5-0.4,0.7-0.5c0.5-0.3,0.9-0.7,1.3-1.1c0.2-0.2,0.3-0.4,0.5-0.7
			s0.4-0.8,0.6-1.1c0.3-0.3,0.5-0.8,0.6-1.3c0.1-0.2,0.2-0.3,0.2-0.5c0.1-0.2,0.1-0.4,0.2-0.7c0.1-0.5,0.2-0.9,0.3-1.4
			c0.4-2,0.5-4,0.8-6c0.1-0.8,0.3-1.5,0.5-2.3c8.3,6.5,16.9,12.2,18.1,23.6c1,9.6,2.7,19,5.4,28.3c0.8,2.7,1.5,5.5,1.5,8.3
			c0,18.7,0.9,37.3-2.1,55.9c-1.6,9.9-1.5,20.2-1.6,30.3c0,10.8-0.6,21.6-1.6,32.3c-1,10.5-1,20.9,1.6,31.1
			c1.4,5.4,0.5,10.8-0.1,16.3c-1.2,10.7-1.7,21.5-2.4,32.3c-0.2,2.6-0.1,5.3-1.2,8.1c-54.4-3-108.7-6-163.3-9.1c0,0-0.2-1.7-0.2-1.8
			c-0.1-0.7-0.2-1.4-0.3-2.1c-0.2-1.4-0.3-2.7-0.4-4.1c-0.1-1.4,0-2.7,0.1-4v-0.5c0-0.5,0.1-1.1,0.2-1.5c0.1-0.5,0.2-1.1,0.3-1.6
			c0.3-1.2,0.6-2.4,1.1-3.6c0.1-0.2,0.1-0.3,0.2-0.5c0.1-0.1,0.3-0.2,0.5-0.3c2.6-1,5.1-2,7.7-3c0.3-0.1,0.4-0.5,0.6-0.8
			c0.2-0.3,0.4-0.6,0.7-0.9c0.2-0.2,0.5-0.4,0.7-0.6c0.4-0.4,0.6-0.9,0.8-1.4c0.4-0.8,0.8-1.7,1.1-2.5c0.2-0.4,0.4-0.8,0.5-1.1
			c0-0.1,0-0.2,0.1-0.3c0.3-0.5,1-0.9,1.4-1.2c0.9-0.7,1.7-1.5,2.3-2.4c-0.8,0.4-1.4,0.9-2.2,1.4c-0.3,0.2-0.7,0.4-1.1,0.5
			c-0.1,0-0.2,0-0.4,0.1c-0.1,0-0.1,0.1-0.1,0.1c-0.2,0.2-0.4,0.5-0.6,0.8c-0.4,0.6-0.8,1.2-1.2,1.8c-0.5,0.7-1,1.4-1.5,2.2
			s-0.8,1.6-1.6,2c-0.2,0.1-0.5,0.2-0.8,0.3c-2.5,0.8-5.1,1.7-7.6,2.5c-0.5,0.2-1,0.3-1.5,0.7v-1c0.1-0.5,0-1,0.1-1.4v-2
			c0-1.4-0.1-2.7-0.1-4.1c-0.1-2.7-0.3-5.4-0.4-8C143.9,307,143.8,301.8,144.5,296.6z M142.3,361.5c1.4-1.1,3.2-0.8,4.8-0.7
			c32.1,1.8,64.2,3.5,96.3,5.3c21,1.2,42,2.4,63.1,3.5c1,0.1,2,0.3,3.1,0.4c2,4,3.6,8.1,4.8,13.1c-61.3-4-122.1-7.9-184-11.9
			C134.6,367,138.6,364.4,142.3,361.5z M317.6,428.4c-4.5,0.7-8.9,0.1-13-0.4c-0.2,0-0.4-0.2-0.5-0.3c-0.2-0.1-0.3-0.2-0.5-0.4
			c-0.3-0.2-0.6-0.5-0.9-0.8c-0.6-0.6-1-1.4-1.6-2c-0.2-0.2-0.5-0.4-0.6-0.6c-0.2-0.4-0.3-0.8-0.4-1.2c0-0.1,0-0.2-0.1-0.4
			c-0.1-0.1-0.2-0.2-0.2-0.4c-0.5-0.6-0.9-1.2-1.2-1.9c-0.1-0.2-0.1-0.5-0.1-0.7c0.1-0.6-0.2-1.2-0.4-1.7c-0.1-0.5-0.2-0.9-0.3-1.4
			c0-0.1-0.1-0.3-0.2-0.4c-0.2-0.3-0.5-0.5-0.8-0.7c-0.7-0.8-1.4-1.5-2.1-2.2c-0.3-0.3-0.6-0.5-0.9-0.7c0.2,0.1,0.3,0.4,0.5,0.6
			c0.1,0.2,0.3,0.4,0.5,0.6c0.3,0.4,0.6,0.8,0.8,1.4c0,0.2,0.2,0.5,0.3,0.7c0.3,0.6,0.5,1.1,0.6,1.7c0.2,0.8,0.3,1.6,0.3,2.4
			c0.1,0.7,0.1,1.5,0.2,2.2c0,0,0.5,0.2,0.6,0.2c0.1,0.1,0.1,0.3,0.1,0.5c0.2,0.5,0.5,1,0.8,1.5c0.1,0.2,0.2,0.4,0.3,0.6v1.7
			c0,0.2,0,0.5-0.1,0.7c-0.2,0.3-0.6,0.5-0.5,0.9c-0.4,0-1,0.1-1.4,0c-0.1,0-0.2,0-0.3-0.1c-0.7-0.1-1.3-0.1-2-0.1
			c-1.3-0.1-2.6-0.2-3.9-0.2c-11.3-0.7-22.6-1.5-33.9-2.2s-22.6-1.5-33.9-2.2c-11.3-0.7-22.6-1.5-33.9-2.2
			c-11.3-0.7-22.6-1.5-33.9-2.2c-5.7-0.4-11.3-0.7-17-1.1c-2.8-0.2-5.7-0.4-8.5-0.5c-1.4-0.1-2.8-0.2-4.2-0.3
			c-0.3,0-4.1-0.2-4.1-0.3v-9.6l0.1-0.1c0.1-0.1,0.1-0.1,0.2-0.2c0.1-0.2,0.2-0.3,0.3-0.5c0.3-0.4,0.5-0.7,0.8-1.1s0.7-0.8,1-1.2
			c0.1-0.2,0.2-0.3,0.3-0.5c0.2-0.2,0.5-0.4,0.7-0.5c0.3-0.2,0.6-0.3,0.9-0.5c0.6-0.3,1.2-0.6,1.9-0.8c0.5-0.2,1-0.3,1.5-0.2
			c0.4,0.1,0.8,0.3,1.1,0.6c1.1,0.8,2.3,1.6,3.6,1.9c0.3,0.1,0.4-0.2,0.6-0.3c0.5-0.5,1.1-0.9,1.6-1.2c0.1-0.1,0.3-0.2,0.4-0.2
			c0.3-0.2,0.6-0.3,0.9-0.5c1.2-0.5,2.5-0.6,3.8-0.7c-0.9-0.3-1.9-0.5-3-0.6c-0.6,0-1.2,0-1.7,0.3c-0.1,0.1-0.2,0.2-0.2,0.2
			c-0.1,0.1-0.3,0.2-0.4,0.3l-0.9,0.6c-0.1,0-0.1,0.1-0.2,0.1c-0.2,0.1-0.4,0.2-0.5,0.4c-0.1,0.1-0.4,0.3-0.6,0.3
			c-0.1,0-0.3-0.1-0.5-0.2c-0.1-0.1-0.3-0.1-0.4-0.2c-0.3-0.2-0.6-0.4-0.8-0.5c-0.8-0.6-1.6-1.4-2.4-2.1c-0.1-0.1-0.2-0.1-0.3-0.2
			h-0.4c-0.3,0.1-0.6,0.1-0.9,0.2c-0.2,0-0.3,0.1-0.5,0.1h-0.3c-0.3,0-0.6,0.1-0.9,0.1c-0.4,0.1-0.9,0.2-1.3,0.3
			c-1.3,0.3-2.5,0.6-3.8,1v-20.1c65.6,4.2,131,8.5,196.7,12.7L317.6,428.4L317.6,428.4z M298.9,85.9l-2.9-4.1h-1.3
			c-0.2,0-0.3-0.2-0.5-0.2l-3-2.4c-2-1.6-4.1-3.1-6.2-4.5c-4.2-2.9-8.6-5.6-13.3-7.8c-2.1-0.2-3.8-1.2-6.2-2.7
			c2.6,0.4,4.4,0.7,6.2,1c6.2-0.1,12,1.9,17.9,3.7c4.6,1.4,9.2,2.9,14,3.3c7.3,0.5,13,4.4,18.7,8.3c4.5,3.1,6,8.2,7.4,13
			c1,3.7-2.5,5.3-4.7,7.4v0.4c0,0.2,0.1,0.4,0.1,0.6c0.1,0.4,0.3,0.7,0.4,1.1c0.4,0.8,0.8,1.5,1.1,2.3c0.2,0.4,0.3,0.8,0.4,1.2
			s0.2,0.9,0.1,1.3c0,0.2-0.3,0.4-0.4,0.5c-0.6,0.8-1.3,1.6-1.9,2.3l4.2-1.4c0.3-0.3,0.5-0.6,0.8-0.8c0.3-0.2,0.6-0.5,0.9-0.7
			c-0.3-0.2-0.3-0.3-0.3-0.6c-0.1-0.4-0.2-0.9-0.3-1.3c-0.1-0.4-0.2-0.8-0.3-1.2c0-0.2-0.1-0.4-0.1-0.6c0-0.1-0.2-0.5-0.1-0.6
			c1.1-2.2,3.5-2.6,4.7-4c7.4,0.5,11.5,4.4,13.6,11.1c2.7,8.5,3.4,17.5,5.9,26c4.3,15.2,1.6,30.2,0.5,45.3
			c-0.6,8.7,0.3,17.6-1.4,26.2c-0.7,3.3-1.5,6.4-4.1,8.3c-0.9,3.7-0.1,7.1-0.3,10.5c-0.4,1-1.3,1.8-2.1,2.5
			c-0.7,0.7-1.5,1.3-2.3,1.9c0,0,0,0-0.1,0.1c-0.7,0.5-1.5,1-2.1,1.6c-0.3,0.3-0.6,0.6-0.9,0.9s-0.7,0.5-1.1,0.8
			c-0.7,0.4-1.4,0.9-2.1,1.4c-0.2,0.2-0.5,0.3-0.6,0.6l-0.4,0.4c-0.1,0.1-0.3,0.3-0.4,0.4c-0.1,0.1-0.2,0.2-0.2,0.3s0.1,0.1,0.1,0.2
			c0.5,0.6,0.7,1.5,1.1,2.2c0.1,0.2,0.3,0.4,0.4,0.7c0.1,0.1,0.1,0.2,0.1,0.4c0.2,0.4,0.3,0.8,0.3,1.2v0.6c-0.1,0.4,0.1,0.8-0.2,1.1
			c-0.4,0.4-0.9,0.8-1.3,1.2c-0.2,0.2-0.4,0.4-0.6,0.5c-0.4,0.4-0.9,0.7-1.3,1.1c-0.1,0.1-0.2,0.1-0.2,0.2c-0.1,0.1-0.1,0.3,0,0.5
			c0.3,2.2,0.6,4.5,0.9,6.7c0,0.3,0.1,0.7,0.1,1.1c-0.1,0.3-0.1,0.6-0.1,1c0,0.9,0.1,1.8,0.2,2.6l1.9-9.3c1.4-2.6,4.9-3.1,5.8-5.7
			c0-2.3-2.1-2.9-2.8-4.9c3.7-2.7,7.5-5.5,11.7-8.6c0.1-2,0.3-4.4,0.4-6.9c1.4,0.3,1.6,1.4,1.7,2.3c0.7,13.5,4,27,1.1,40.6
			c-1,4.9-2.7,9.6-3.3,14.5c-1.6,13.8,0.5,27.5,0.2,41.2c-0.2,6.9,0.7,13.9-1.6,21.1c-10,5.2-20.1,9.9-31,15.1
			c0.5-6.1,0.7-11.5,1.3-16.9c0.9-8.7,0.5-17.6,2.4-26.2c0.8-3.7,0.5-7.7-0.4-11.4c-3.1-12-3-24-1.5-36.1
			c1.6-13.2,1.2-26.5,1.4-39.8s2.2-26.4,2.9-39.7c0.7-13.9,1.9-27.9-0.5-41.6c-1.9-10.9-5-21.6-6.3-32.7c-1-8.2-5.1-15-11.5-20.3
			c-2.4-2-4.6-4.1-7-6.2C300,87,299.5,86.5,298.9,85.9c-0.1-0.1-0.2-0.1-0.2-0.2c-0.2-0.2-0.2-0.4-0.3-0.7 M351.5,359.2
			c0,0,0.1,0.1,0.2,0.1s0.1,0,0.2,0.1c0.2,0,0.3,0.1,0.4,0.2c0.2,0.2,0.3,0.4,0.4,0.6c0,0.3,0.1,0.6,0.1,1c0,0.7,0.1,1.5,0,2.2
			c0,0.4,0,0.7-0.1,1.1v0.4c0,0.2,0.2,0.2,0.4,0.3c0.3,0.1,0.5,0.4,0.6,0.6s0.2,0.4,0.1,0.6c0,0.2-0.1,0.4-0.2,0.5
			c-0.2,0.4-0.5,0.6-0.9,0.8c-0.9,0.4-1.8,0.9-2.6,1.4c-8,4.2-16,8.5-24.4,12.9c-2.2-4.1-3.7-8.2-5.2-12.9
			c11.1-5.2,22.1-10.4,33.2-15.7c3.7,2.3,6,5.8,8.7,8.8c-1.5,1.7-3.4,2.2-5.3,3.1c-0.2-0.1-0.4-0.2-0.6-0.3s-0.5-0.3-0.7-0.4
			s-0.4-0.3-0.7-0.3c-0.3-0.1-0.7-0.3-0.9-0.5c-0.1-0.1-0.1-0.2-0.1-0.4c-0.1-0.4-0.2-0.7-0.2-1.1c-0.1-0.5-0.2-0.9-0.4-1.4
			c-0.1-0.4-0.3-0.9-0.4-1.3l-2.1-0.8l2.1,0.8 M358.3,386.3v-1.5c0-0.3,0-0.7,0.2-1c0.1-0.2,0.1-0.3,0.2-0.4c0-0.1,0.1-0.1,0.1-0.2
			c0.3-0.5,0.6-1,1-1.5c1.7-2,2.7-4.3,2.5-7.1c1.1-0.8,2.2-1.7,4.1-1.6c0.7,9.8,0.2,20-0.1,30.4c-12.6,7.5-25.2,15-38.3,22.7v-33.9
			c10.2-5.4,20.3-10.7,30.5-16c0.3,0.4,0.5,0.9,0.6,1.4c0.1,0.3,0,0.7,0,1c0,0.2-0.1,0.3-0.2,0.5c0,0.1-0.1,0.2-0.2,0.4
			c-0.1,0.1-0.3,0.3-0.4,0.4c-0.2,0.1-0.3,0.3-0.5,0.5s-0.4,0.5-0.5,0.7c-0.1,0.1-0.2,0.2-0.2,0.4c-0.1,0.1-0.2,0.3-0.2,0.5
			c-0.3,0.5-0.6,1.1-1,1.6c-0.2,0.2-0.4,0.5-0.4,0.8c0,0.1,0,0.2,0.1,0.3v3.9c0,0.7,0.1,1.3,0.1,2c0,0.5-0.1,1.2-0.4,1.6l-0.3,0.3
			c0,0-0.1,0.1-0.1,0.2s-0.1,0.1-0.2,0.2c-0.7,0.8-1.6,1.4-2.5,2c0.6-0.1,1.2-0.2,1.7-0.5c0.4-0.2,0.8-0.5,1.3-0.7
			c0.1,0,0.2-0.2,0.4-0.2c0,0,0,0,0.1,0c0.2-0.3,0.3-0.6,0.5-1c0.1-0.1,0.1-0.3,0.2-0.5s0.1-0.3,0.2-0.5c0-0.1,0.1-0.2,0.1-0.3
			c0.1-0.4,0.2-0.8,0.4-1.2c0.1-0.2,0.1-0.4,0.2-0.6c0-0.1,0.1-0.2,0.1-0.4s0-0.4,0.1-0.5c0-0.2,0.1-0.4,0.3-0.5c0.1,0,0.1,0,0.2,0
			L358.3,386.3z"/>
	</g>
	<g id="Eyes_B_1_">
		<path class="st0" d="M244.1,211.6c-2.4,3.6-2.6,8.5-0.9,12.5c0.5,1.2,1.2,2.3,2.3,3c2.2,1.3,5,0.1,7.3-1.1c3-1.6,6.1-3.5,7.3-6.7
			c0.9-2.3,0.5-5-0.6-7.2c-0.6-1.4-1.5-2.6-2.5-3.7c-0.7-0.7-1.3-1.6-2.4-1.7c-2.5-0.4-5.2,0.4-7.3,1.7
			C246,209.3,244.9,210.4,244.1,211.6z"/>
		<path class="st0" d="M198.6,212.3c-0.8,1.4-1.4,2.9-1.5,4.5c-0.2,2.7,1.1,5.2,2.3,7.6c0.2,0.5,0.5,1,0.9,1.3s0.9,0.4,1.4,0.5
			c5,0.7,10.2-1.3,13.4-5.2c0.6-0.8,1.1-1.6,1.4-2.5c0.4-1.4,0.4-2.8,0.3-4.2c-0.1-2-0.3-4.3-1.8-5.7c-0.7-0.7-1.6-1.2-2.5-1.6
			c-1.1-0.6-2.4-1.3-3.6-1.7c-0.9-0.2-2,0.1-2.8,0.4c-2.1,0.7-3.9,2.1-5.4,3.7c-0.4,0.5-0.8,0.9-1.2,1.4c-0.2,0.3-0.4,0.5-0.5,0.8
			C198.9,211.7,198.8,212.1,198.6,212.3z"/>
		<path class="st12" d="M248.2,228c-1-0.1-2-0.3-3-0.5c-0.4-0.6-0.7-1.1-1-1.7c-0.3-0.6-0.4-1.1-0.7-1.7c-0.6-1.2-0.9-2.4-1.1-3.7
			c-0.4-2.9,0.1-5.9,1.6-8.3s3.9-4.4,6.6-5.3c1.1-0.4,2.4-0.6,3.6-0.2c0.8,0.2,1.4,0.7,2,1.3c0.3,0.3,0.6,0.6,0.8,0.9
			c0.2,0.3,0.5,0.6,0.7,0.9c-0.3,0-0.6-0.1-0.9-0.1s-0.7-0.1-1-0.1c-5.9,0-10.8,4.8-10.8,10.8C245,223.2,246.2,226,248.2,228z"/>
		<path class="st12" d="M200.6,226.2c-0.1,0-0.4-0.6-0.4-0.7c-0.1-0.2-0.3-0.5-0.4-0.8c-0.2-0.5-0.5-1.1-0.6-1.6
			c-0.2-0.6-0.2-1.1-0.4-1.7c-0.2-0.7-0.4-1.4-0.6-2.1c-0.4-1.4-0.6-2.8-0.4-4.3c0.2-2.4,1.5-4.7,3.3-6.4s4.1-2.8,6.5-3.3
			c0.8-0.2,1.6-0.3,2.5-0.1c1,0.2,1.9,0.8,2.6,1.6c0.4,0.4,0.7,0.8,1,1.2c0.1,0.2,0.3,0.4,0.1,0.6c-0.1,0.1-0.2,0.1-0.3,0.1
			c-0.3,0-0.7-0.1-1-0.1s-0.7-0.1-1-0.1c-5.9,0-10.8,4.8-10.8,10.8c0,2.9,1.1,5.5,3,7.5C203.6,226.8,200.6,226.2,200.6,226.2z"/>
		<path d="M205,229c-7.6,0-13.8-6.2-13.8-13.8s6.2-13.8,13.8-13.8s13.8,6.2,13.8,13.8S212.6,229,205,229z M205,205.4
			c-5.4,0-9.8,4.4-9.8,9.8s4.4,9.8,9.8,9.8s9.8-4.4,9.8-9.8S210.4,205.4,205,205.4z"/>
		<path d="M249.4,230c-7.6,0-13.8-6.2-13.8-13.8s6.2-13.8,13.8-13.8s13.8,6.2,13.8,13.8S257,230,249.4,230z M249.4,206.4
			c-5.4,0-9.8,4.4-9.8,9.8s4.4,9.8,9.8,9.8s9.8-4.4,9.8-9.8S254.8,206.4,249.4,206.4z"/>
		<path d="M198.6,224.1c-1.4-2.1-2.1-4.5-2.1-6.9c0-7.1,5.7-12.8,12.8-12.8c0.1,0,0.3,0,0.4,0c0.8,0.8,1.6,1.5,2.2,2.3
			c-0.9-0.2-1.7-0.3-2.6-0.3c-5.9,0-10.8,4.8-10.8,10.8c0,2.9,1.1,5.5,3,7.5L198.6,224.1z"/>
		<path d="M246.2,225.9c-1-0.1-2-0.3-3-0.5c-1.4-2.1-2.2-4.6-2.2-7.2c0-6.8,5.4-12.4,12.1-12.8l2.6,2.1c-0.6-0.1-1.3-0.2-2-0.2
			c-5.9,0-10.8,4.8-10.8,10.8C243,221.2,244.2,223.9,246.2,225.9z"/>
	</g>
</g>
</svg>
