<?xml version="1.0" encoding="utf-8"?>
<!-- Generator: Adobe Illustrator 24.3.0, SVG Export Plug-In . SVG Version: 6.00 Build 0)  -->
<svg version="1.1" id="Capa_1" xmlns="http://www.w3.org/2000/svg" xmlns:xlink="http://www.w3.org/1999/xlink" x="0px" y="0px"
	 viewBox="0 0 500 500" style="enable-background:new 0 0 500 500;" xml:space="preserve">
<style type="text/css">
	.st0{fill:#FFFFFF;stroke:#000000;stroke-width:0.5;stroke-miterlimit:10;}
	.st1{fill:#E0E3BD;stroke:#000000;stroke-width:0.5;stroke-miterlimit:10.0004;}
	.st2{fill:#847F88;stroke:#000000;stroke-width:0.5;stroke-miterlimit:10.0004;}
	.st3{fill:#272F49;}
	.st4{fill:#4300BF;stroke:#000000;stroke-width:0.5;stroke-miterlimit:10.0004;}
	.st5{fill:#E0E3BD;}
	.st6{fill:#4300BF;stroke:#FFFFFF;stroke-width:2;stroke-miterlimit:10.0004;}
</style>
<g>
	<g id="Color_Stone_3.0_1_">
		<path class="st0" d="M149.1,190.5c-0.5-14.6-1.7-29.4-0.3-43.9c1.4-14.6,5.7-29.3,15-40.7c5.1-6.3,11.6-11.3,18-16.3
			c10-7.7,20.2-15.4,32.1-20c30.2-11.6,65.8,0.8,88.4,23.9c4.8,4.9,9.1,10.3,12.6,16.2c13.5,22.8,13.1,50.9,12.3,77.4
			c-1.7,59.6-3.1,119.2-4.3,178.8c-43.1,2.2-86.3,1.9-129.3-1c-13.6-0.9-27.3-2-40.5-5.7c-2.8-0.8-4.3-0.9-4.6-3.9
			c-0.3-3.5-0.6-7-0.9-10.5c-0.5-7-0.8-14.1-0.9-21.1c-0.3-14.2,0-28.4,0.5-42.6s1.2-28.4,1.7-42.7s0.8-28.5,0.4-42.8
			C149.2,194,149.1,192.3,149.1,190.5z"/>
		<path class="st1" d="M123.9,423.9c68.3,7.6,137,10.1,205.6,12.6c0.1-15.6-1-31.3-3.4-46.8c-17.9,2.5-36,1.5-54,0.5
			c-14.9-0.9-29.8-1.7-44.7-2.5c-9.6-0.5-19.3-1.1-28.9-1.6c-9.7-0.5-19.4-1-29.1-1.5c-9.7-0.5-19.5-0.9-29.2-1.2
			c-4.9-0.2-9.7-0.3-14.6-0.4c-1.7,0-3.2-0.2-3.5,1.7c-0.3,2.1,0.1,4.5,0.2,6.6c0.5,9.7,0.9,19.3,1.4,29
			C123.7,421.5,123.8,422.7,123.9,423.9z"/>
		<path class="st1" d="M138.3,366.3c2-1.9,4.1-3.9,6.8-4.8c2.3-0.8,4.8-0.7,7.3-0.7c47.3,1.5,94.6,3.1,141.8,4.8
			c6.7,0.2,13.4,0.5,20,1.3c1.8,0.2,3.6,0.5,5,1.7c1.1,1,1.8,2.4,2.3,3.9c2.8,7.2,4.5,14.7,5.2,22.4c-15-6.3-32.2-2.2-48.4-3.4
			c-7.2-0.5-14.2-2.1-21.4-3c-16.4-2.1-33-0.5-49.6-0.4c-17.7,0.1-35.4-1.6-53.1-3.2c-7.3-0.7-14.6-1.4-21.8-2
			c-1.7-0.2-7.9,0.2-8.2-2.2c-0.2-2.2,4-5,5.3-6.2C132.5,371.7,135.4,369,138.3,366.3z"/>
		<path class="st2" d="M326.5,172.9c0.7-10.3,1.5-20.6-0.1-30.8c-2.7-16.8-11.8-32-23.1-44.6s-25.1-22.9-38.6-33
			c31.3-3.1,65.8,6.2,84.3,31.6c17.5,23.9,17.2,56,16.3,85.6c-1.8,56.7-3.6,113.3-5.4,170c-9.6,5.4-19.9,9.5-30.6,12.2
			c-2.4,0.6-5.8,1.2-7.5-1c-1.4-1.8-1-3.8-0.8-5.9c0.6-6.3,0-13,0-19.4c0-13.4,0.1-26.7,0.3-40c0.2-13.3,0.5-26.6,1-39.9
			c0.4-13.3,1-26.7,1.7-40s1.4-26.6,2.3-39.8C326.3,176.1,326.4,174.5,326.5,172.9z"/>
		<path class="st2" d="M332.2,431.6c14.5-5.2,28.5-11.5,42-18.9c0.8-0.4,1.6-0.9,2.1-1.7c0.4-0.7,0.5-1.5,0.6-2.3
			c1.4-11.8,2.8-23.8,1.7-35.6c-0.1-1.3-0.4-2.8-1.6-3.2c-0.8-0.3-1.8,0-2.6,0.4c-13,5.4-26,10.8-39,16.3c-2.6,1.1-5.5,2.4-7.4,4.6
			c-1.6,1.9-0.8,5.1-0.8,7.5c0,7.1,0.7,14.3,2.1,21.3C330.1,423.8,331.1,427.7,332.2,431.6z"/>
		<path class="st2" d="M327,389c0.5,0.8,1.1,1.5,2,1.7c0.8,0.2,1.7-0.3,2.4-0.7c15.2-8.5,30.4-16.9,45.6-25.4
			c-5.7-3.9-11.3-7.9-17-11.8c-0.6-0.4-1.3-0.9-2-1c-1-0.2-1.9,0.1-2.9,0.5c-9.8,3.4-19.5,6.8-29.3,10.2c-2.6,0.9-5.5,2-6.8,4.5
			c-0.2,0.4,1.5,1.3,1.7,1.6c0.3,0.6,0.2,1.6,0.2,2.3c0.1,2.1,0.5,4.3,1,6.3C322.9,381.5,324.6,385.5,327,389z"/>
	</g>
	<g id="Color_Skull_3.0_1_">
		<path class="st3" d="M202.5,270.3c1.7-6-1.5-11.4-6.1-16.8c-7.1-8.3-13.6-17-15.1-28.6c-3.3-26.2,11.3-51.8,35.4-61.1
			c25.3-9.8,53.3-1,68.4,21.4c6.7,9.9,10.1,20.8,10.1,32.8c0,11-3.5,20.5-11.2,28.4c-3.7,3.7-6.8,8-10.7,11.5
			c-4.1,3.6-5.6,7.7-5.3,12.9c0.2,4.1-0.3,8.2-0.2,12.3c0,0.3,0,0.6,0,0.8c0,0.4-0.1,0.7-0.1,1c0,0.2,0,2.1,0.1,2.1
			c-0.7,0-1.4,0-2,0.1c-0.8,0-1.6,0.1-2.4,0c-1.5-0.2-2.9-0.2-4.4-0.3c-0.3,0-0.6,0-1-0.1c-0.6,0-1.1-0.1-1.7-0.1
			c-0.2,0-0.4-0.1-0.7-0.1s-0.6,0-0.9,0c-1.1,0-2.3,0-3.5,0c0-0.6-0.1-1.2-0.1-1.8c-0.1-1.2-0.1-2.4-0.1-3.6c0-2.3-0.1-4.6-0.1-6.9
			c0-0.1,0-0.2-0.1-0.3c-0.1-0.1-0.2-0.1-0.3-0.1c-2.4-0.2-4.8,0-7.2,0.3c0,1.4,0,2.8-0.1,4.3c0,0.4,0,0.8,0,1.2
			c0,0.6,0,1.1-0.1,1.7c0,0.2-0.1,0.3-0.1,0.4c-0.1,0.2-0.1,0.5-0.1,0.7c-0.1,1.1-0.1,2.3,0.1,3.4c-0.7,0-1.4,0-2.2,0
			c-0.9,0-1.9,0-2.8-0.2c-1.1-0.2-2.3-0.1-3.4-0.2c-0.4,0-0.9,0-1.3-0.1c-1.1,0-2.2-0.2-3.3-0.2c-0.6,0-1.1,0-1.7,0
			c-0.1,0-1.6,0.1-1.7,0.2c0-1,0.1-2.1,0.1-3.1c0-0.5,0-1,0.1-1.6c0-0.5,0.1-1,0.1-1.5c0-2,0-4-0.1-6.1c-2.6-0.5-5.3-0.7-8-0.7
			c-0.1,2.3-0.2,4.6-0.4,6.9c-0.1,1.1-0.1,2.3-0.2,3.5c0,0.3,0,0.6,0,0.9c0,0.2,0,0.4-0.1,0.5c-0.1,0.2-0.6,0.2-0.8,0.2
			c-1.4,0.1-2.9,0-4.3-0.1c-0.6,0-1.3-0.1-1.9-0.1c-1.6-0.1-3.2-0.1-4.8-0.2c-0.5,0-1.1-0.1-1.6-0.1c-0.3-0.1-0.6-0.2-1-0.2
			c-0.1,0-1.7-0.1-1.7-0.1c0-0.1,0-0.2,0-0.3c0-1.1,0-2.3,0-3.5c0-0.5-0.1-1,0.1-1.5c0.1-0.2,0-0.4,0-0.6c0-0.5,0-1,0-1.5
			c0-1.3,0.1-2.5,0.1-3.8C202.4,272.3,202.4,271.9,202.5,270.3z M234.9,251.9c0.9,0.1,1.8,0.1,2.7,0.2c1.4,0.1,2.9,0.2,4.3,0.4
			c-0.5-1.5-1-3-1.6-4.4c-0.2-0.6-0.5-1.1-0.7-1.6s-0.5-0.9-0.7-1.4c-0.1-0.1-0.1-0.3-0.1-0.4c-0.1-0.5-0.3-0.9-0.4-1.4
			c-0.5-1.2-0.9-2.5-1.4-3.8c-0.2-0.6-0.4-1.1-0.7-1.7c0,0.1-0.2,0.4-0.2,0.4c-0.1,0.2-0.3,0.4-0.4,0.6c-1.3,1.8-2.5,3.6-3.6,5.5
			c-0.6,0.9-1.1,1.9-1.7,2.9c-0.3,0.5-0.5,1-0.8,1.4c-0.1,0.2-0.2,0.4-0.3,0.6c-0.1,0.4-0.5,0.8-0.8,1.2c-0.4,0.5-0.8,1-1.1,1.6
			c0,0,0.3,0,0.4,0c0.1,0,0.3,0,0.4,0c0.3,0,0.6,0,0.9,0c0.6,0,1.1,0,1.7-0.1c0.2,0,0.5-0.1,0.7-0.1c0.3,0,0.6,0,0.9,0.1
			c0.6,0,1.1,0.1,1.7,0.1C234.4,251.8,234.7,251.8,234.9,251.9z"/>
		<path class="st4" d="M200.2,267.5c1.6-5.9-1.5-11.2-6-16.5c-7-8.2-13.4-16.7-14.8-28c-3.2-25.7,11.1-50.7,34.7-59.8
			c24.8-9.6,52.2-1,67.1,21c6.5,9.7,9.9,20.4,10,32.1c0,10.8-3.4,20.1-11,27.8c-3.6,3.7-6.6,7.9-10.5,11.2c-4,3.5-5.5,7.5-5.2,12.7
			c0.2,4-0.3,8-0.2,12c0,0.3,0,0.5,0,0.8s-0.1,0.7-0.1,1c0,0.2,0,2,0.1,2c-0.7,0-1.3,0-2,0c-0.8,0-1.6,0.1-2.4,0
			c-1.4-0.2-2.9-0.2-4.3-0.3c-0.3,0-0.6,0-0.9-0.1c-0.6,0-1.1-0.1-1.7-0.1c-0.2,0-0.4-0.1-0.6-0.1c-0.3,0-0.6,0-0.9,0
			c-1.1,0-2.3,0-3.4,0c0-0.6-0.1-1.1-0.1-1.7c-0.1-1.2-0.1-2.3-0.1-3.5c0-2.3-0.1-4.5-0.1-6.8c0-0.1,0-0.2-0.1-0.3
			c-0.1-0.1-0.2-0.1-0.3-0.1c-2.3-0.2-4.7,0-7,0.3c0,1.4,0,2.8-0.1,4.2c0,0.4,0,0.8,0,1.2c0,0.5,0,1.1-0.1,1.7
			c0,0.2-0.1,0.3-0.1,0.4c-0.1,0.2-0.1,0.5-0.1,0.7c-0.1,1.1-0.1,2.2,0.1,3.3c-0.7,0-1.4,0-2.1,0c-0.9,0-1.8,0-2.7-0.2
			c-1.1-0.2-2.2-0.1-3.4-0.2c-0.4,0-0.9,0-1.3-0.1c-1.1,0-2.1-0.2-3.2-0.2c-0.6,0-1.1,0-1.7,0c-0.1,0-1.6,0.1-1.6,0.2
			c0-1,0.1-2,0.1-3.1c0-0.5,0-1,0.1-1.5c0-0.5,0.1-1,0.1-1.5c0-2,0-4-0.1-6c-2.6-0.4-5.2-0.7-7.8-0.7c-0.1,2.3-0.2,4.5-0.3,6.8
			c-0.1,1.1-0.1,2.3-0.2,3.4c0,0.3,0,0.6,0,0.9c0,0.2,0,0.4-0.1,0.5c-0.1,0.2-0.6,0.2-0.8,0.2c-1.4,0.1-2.8,0-4.2-0.1
			c-0.6,0-1.3-0.1-1.9-0.1c-1.6-0.1-3.2-0.1-4.7-0.2c-0.5,0-1-0.1-1.6-0.1c-0.3,0-0.6-0.2-1-0.2c-0.1,0-1.6-0.1-1.6-0.1
			c0-0.1,0-0.2,0-0.3c0-1.1,0-2.3,0-3.4c0-0.5-0.1-1,0.1-1.4c0.1-0.2,0-0.4,0-0.6c0-0.5,0-1,0-1.5c0-1.2,0.1-2.5,0.1-3.7
			C200.1,269.4,200.1,269.1,200.2,267.5z M232,249.4c0.9,0.1,1.8,0.1,2.6,0.2c1.4,0.1,2.8,0.2,4.2,0.4c-0.5-1.4-0.9-2.9-1.5-4.4
			c-0.2-0.6-0.5-1.1-0.7-1.6s-0.5-0.9-0.7-1.4c-0.1-0.1-0.1-0.3-0.1-0.4c-0.1-0.5-0.3-0.9-0.4-1.4c-0.5-1.2-0.9-2.5-1.4-3.7
			c-0.2-0.6-0.4-1.1-0.7-1.7c0,0.1-0.2,0.3-0.2,0.4c-0.1,0.2-0.3,0.4-0.4,0.6c-1.2,1.8-2.4,3.6-3.5,5.4c-0.6,0.9-1.1,1.9-1.6,2.8
			c-0.3,0.5-0.5,0.9-0.8,1.4c-0.1,0.2-0.2,0.4-0.3,0.6c-0.1,0.4-0.5,0.8-0.8,1.1c-0.4,0.5-0.7,1-1.1,1.5c0,0,0.3,0,0.4,0
			c0.1,0,0.3,0,0.4,0c0.3,0,0.6,0,0.9,0c0.6,0,1.1,0,1.7-0.1c0.2,0,0.5-0.1,0.7-0.1c0.3,0,0.6,0,0.9,0.1c0.6,0,1.1,0.1,1.7,0.1
			C231.5,249.4,231.8,249.4,232,249.4z"/>
	</g>
	<g id="Skull_3.0_1_">
		<path class="st5" d="M270.7,169c-18.3-14.6-39-17-60.4-7.4c-34.3,15.4-43.5,61-22.9,83.7c2.9,3.2,5.1,6.9,8.1,10.1
			c2.7,2.9,3.6,6,3.4,9.9c-0.3,5.4-0.8,10.9,0,16.8l17.6,0.8l0.3-12.5l6.8,0.2v0.1c0,0.1,0,0.2,0,0.3c0,0.1,0,0.3,0,0.4
			c0,0.2,0,0.4,0,0.5c0,0.2,0,0.4,0,0.6s0,0.5,0,0.7c0,0.3,0,0.5,0,0.8s0,0.6,0,0.9s0,0.6,0,0.9s0,0.6,0,0.9s0,0.6,0,0.9
			s0,0.6,0,0.9s0,0.5,0,0.8c0,0.2,0,0.5,0,0.8c0,0.2,0,0.5,0,0.7s0,0.4,0,0.6c0,0.1,0,0.3,0,0.5c0,0.1,0,0.2,0,0.3
			c0,0.3-0.1,0.6-0.1,1c0.1,0,0.1,0,0.2,0h0.1l0,0h0.1c0.1,0,0.3,0,0.4,0c0.3,0,0.6,0,0.9,0c1.2,0,2.3,0.1,3.5,0.1
			c1.4,0.1,2.9,0.1,4.4,0.2c1.3,0.1,2.7,0.1,4,0.2c0.8,0,1.6,0.1,2.5,0.1c0.1,0,0.2,0,0.3,0c0.2,0,0.3,0,0.5-0.1
			c0-0.3,0.1-0.7,0.1-1v-0.1c0-0.1,0-0.3,0.1-0.4c0-0.3,0.1-0.6,0.1-0.8c0-0.2,0-0.4,0-0.6s0-0.4,0-0.5c0-0.2,0-0.3,0-0.5
			s0-0.4,0-0.6s0-0.5,0-0.8s0-0.6,0-0.8c0-0.3,0-0.6,0-0.9s0-0.6,0-0.9s0-0.6,0-0.9s0-0.6,0-0.9c0-0.2,0-0.5,0-0.8
			c0-0.2,0-0.4,0-0.6s0-0.3,0-0.5c0-0.1,0-0.2,0-0.3v-0.1l6.8,0.2l-0.3,12.4c1.1,0,18.5,0.8,18.5,0.8c0-3.6,0-7.2,0-10.9
			c0-1.7,0-3.4,0-5.1c0-0.5,0-1-0.1-1.4c0-1.2,0-2.4,0.2-3.5c0.2-1.2,0.6-2.5,1.4-3.5c0.2-0.2,0.4-0.5,0.6-0.7
			c0.3-0.3,0.5-0.5,0.8-0.8c0.5-0.5,1-1.1,1.5-1.6c1-1.1,2-2.1,3-3.2c1-1.1,1.9-2.1,2.9-3.2c1-1.1,1.9-2.1,2.8-3.2
			c0.9-1.1,1.9-2.1,2.8-3.2c0.9-1.1,1.8-2.1,2.7-3.2c0.5-0.5,0.9-1.1,1.4-1.6c3.4-4.2,5.8-8.9,6.6-14.3
			C295.9,202.6,288.8,183.4,270.7,169z M214,267.1c-0.2,0-0.4,0-0.7,0c-0.1,0-0.2,0-0.3,0c0,0.5,0,1,0,1.5c0,1-0.1,2.1-0.1,3.1
			c-0.1,2.1-0.2,4.3-0.2,6.4l-8.9-0.4c0-0.9,0.1-1.8,0.1-2.7c0.1-2,0.2-4,0.2-6.1c0.1-2.1,0.2-4.3,0.2-6.4c0-0.8,0.1-1.6,0.1-2.4
			c0-0.4-0.1-0.8-0.1-1.1c0-0.4-0.1-0.8-0.1-1.2c0-0.2-0.1-0.3-0.1-0.5c-0.1-0.1-0.1-0.3-0.2-0.4c-0.1-0.3-0.2-0.6-0.4-0.9
			c-0.3-0.6-0.6-1.2-0.9-1.8c-0.3-0.6-0.7-1.1-1.1-1.7c-0.2-0.3-0.5-0.7-0.8-1c-4.2-5.1-8.2-10.4-12.2-15.7
			c-5.7-7.8-6.7-16.9-5.6-26.1c2.5-20.7,13.3-35.7,32.6-43.4c19.1-7.6,37.2-4.4,52.4,9.3c15.5,13.9,21.2,31.6,16.2,52.3
			c-1.2,5.3-4.6,9.1-8,12.9c-4.2,4.7-8.5,9.3-12.8,13.9c-0.2,0.2-0.4,0.3-0.5,0.5c0,0.1,0,0.1-0.1,0.2c-0.1,0.1-0.1,0.2-0.2,0.3
			c-0.1,0.2-0.3,0.4-0.4,0.6c-0.1,0.1-0.1,0.2-0.2,0.3c-0.1,0.1-0.1,0.1-0.1,0.2c-0.2,0.4-0.4,0.8-0.6,1.2c-0.4,0.9-0.6,1.9-0.8,2.9
			c-0.1,0.5-0.1,1-0.1,1.5c0,0.2,0,0.5,0,0.7c0,0.1,0,0.2,0,0.4c0,0.2,0,0.4,0,0.6c0,0.3,0,0.7,0,1c0,0.6,0,1.1,0,1.7
			c0,1.1,0,2.3,0,3.4s0,2.3,0,3.4s0,2.3,0,3.4c0,0.6,0,1.1,0,1.7c0,0.3,0,0.6,0,0.9c0,0.1,0,0.2,0,0.3v0.1c-0.1,0.1-0.2,0-0.2,0
			c-0.1,0-0.3,0-0.4,0c-0.5,0-1.1,0-1.6-0.1c-2.2-0.1-4.4-0.2-6.6-0.3c0.1-1.9,0.1-3.8,0.2-5.6c0-0.6,0.1-1.3,0.1-1.9
			c0-0.8,0-1.5,0-2.3c0-0.3,0-0.5,0-0.8l-1.3-0.2c-0.5-0.1-1-0.2-1.5-0.2c-1.1-0.1-2.1-0.2-3.2-0.3c-1.1-0.1-2.2-0.1-3.3-0.1
			s-2.2,0-3.3,0c-0.9,0-1.9,0-2.8,0l-0.4,11.5l-8.9-0.4l0.4-11.3c-0.5-0.1-1.1-0.2-1.6-0.3c-1.1-0.2-2.1-0.3-3.2-0.4
			c-1.1-0.1-2.2-0.1-3.3-0.2c-1.1,0-2.2,0-3.3-0.1c-0.5,0-1.1,0-1.6,0"/>
		<path class="st5" d="M236.2,233.7c-0.1-0.1-0.1-0.3-0.2-0.4c-0.2-0.3-0.3-0.7-0.5-1c-0.1-0.2-0.2-0.4-0.3-0.6
			c-0.1-0.2-0.2-0.3-0.3-0.5c-0.4-0.6-0.7-1.3-1.1-1.9c-0.2-0.3-0.3-0.6-0.5-1c0-0.1-0.1-0.2-0.1-0.2c0-0.1-0.1-0.2-0.1-0.2
			c-0.1,0-0.1,0-0.1,0.1s-0.1,0.1-0.1,0.2c0,0.1-0.1,0.2-0.1,0.3c-0.1,0.2-0.2,0.4-0.3,0.5c-0.4,0.6-0.8,1.3-1.1,1.9
			c-0.4,0.6-0.8,1.3-1.1,1.9c-0.5,0.8-0.9,1.6-1.4,2.5c-0.2,0.3-0.3,0.6-0.5,0.8c-0.2,0.3-0.4,0.6-0.5,0.9c-0.2,0.3-0.4,0.6-0.6,1
			c-0.2,0.3-0.4,0.7-0.6,1c-0.2,0.4-0.4,0.7-0.6,1.1c-0.2,0.4-0.4,0.7-0.6,1.1c-0.2,0.4-0.4,0.8-0.6,1.1c-0.2,0.4-0.4,0.8-0.6,1.1
			c-0.2,0.4-0.4,0.7-0.6,1.1c-0.2,0.4-0.4,0.7-0.6,1.1c-0.2,0.4-0.4,0.7-0.6,1.1c-0.2,0.3-0.4,0.7-0.6,1c-0.2,0.3-0.4,0.6-0.5,0.9
			c-0.2,0.3-0.3,0.6-0.5,0.9c-0.1,0.3-0.3,0.5-0.4,0.8c-0.1,0.2-0.3,0.4-0.4,0.7c-0.1,0.2-0.2,0.4-0.3,0.6c-0.1,0.1-0.2,0.3-0.2,0.4
			c-0.1,0.1-0.1,0.2-0.2,0.3l-0.1,0.1h0.1c0.6,0,1.1,0,1.7,0.1c0.1,0,0.2,0,0.4,0c0.1,0,0.3,0,0.4,0c0.1,0,0.1,0,0.2,0
			c0.1,0,0.2,0,0.3,0s0.2,0,0.4,0c0.1,0,0.3,0,0.4,0c0.2,0,0.4,0,0.5,0c0.2,0,0.4,0,0.6,0c0.2,0,0.4,0,0.6,0c0.2,0,0.5,0,0.7,0
			s0.5,0,0.7,0c0.3,0,0.5,0,0.8,0s0.5,0,0.8,0s0.6,0,0.8,0c0.3,0,0.6,0,0.9,0s0.6,0,0.9,0s0.6,0,0.9,0s0.6,0,0.9,0
			c0.3,0,0.6,0,0.9,0c0.3,0,0.6,0,0.9,0c0.3,0,0.6,0,0.9,0c0.3,0,0.6,0,0.9,0c0.3,0,0.6,0,0.8,0c0.3,0,0.5,0,0.8,0s0.5,0,0.8,0
			c0.2,0,0.5,0,0.7,0s0.5,0,0.7,0s0.4,0,0.6,0c0.2,0,0.4,0,0.6,0c0.2,0,0.3,0,0.5,0l3.6,0.1c0.1,0,0.1,0,0.1,0
			c-0.2-0.6-0.5-1.1-0.7-1.7c-0.6-1.4-1.2-2.7-1.8-4.1c-0.8-1.7-1.5-3.5-2.3-5.2c-0.7-1.6-1.4-3.3-2.1-4.9c-0.5-1.1-0.9-2.2-1.4-3.2
			C236.4,234.1,236.3,233.9,236.2,233.7C236.2,233.8,236.2,233.8,236.2,233.7z M225.9,248.8c2.4-4.1,4.6-7.8,7.1-12.1
			c1.7,4.6,3.1,8.2,4.8,12.6C233.7,249.1,230.3,248.9,225.9,248.8z"/>
	</g>
	<g id="Stone_3.0_1_">
		<g>
			<path class="st6" d="M365.1,349c5.7,5.4,11.5,10.9,17.2,16.2c0.4,16.2-0.9,31.7-1.2,47.1c-1,1.9-2.6,2.7-4.2,3.6
				c-14.6,8.2-29.1,16.4-43.7,24.6c-2.4,1.4-4.7,2.1-7.4,1.9c-18.3-1.2-36.7-2.2-55-3.4c-17.2-1.1-34.4-2.4-51.5-3.5
				c-28.1-1.9-56.3-3.8-84.4-5.7c-3.8-0.2-7.5-0.3-11.3-0.4s-5.9-2.1-5.9-5.8c-0.1-14.9-0.1-29.9-0.1-44.8c0-2.7,1.7-4.4,3.8-6
				c7.2-5.5,14.2-11.1,22.3-17.4c0-18.2-0.2-36.9,0-55.6c0.6-49.9,1.4-99.8,2.3-149.7c0.7-36.9,25.6-70.6,60.9-81.9
				c23.2-7.4,47-12,71.6-10.4c31.4,2.2,58.5,13,77.1,39.9c10,14.5,15.4,30.7,15.5,48.4c0.1,32.2-1.5,64.3-2.5,96.5
				c-1.1,33.8-2.2,67.6-3.3,101.4C365.1,345.4,365.1,346.7,365.1,349z M152.7,355c54.2,2.6,108.1,5.2,161.7,7.7
				c1.1-1.8,0.8-3.3,0.8-4.7c0.7-22.1,1.4-44.3,2.1-66.5c1.2-41.7,2.5-83.4,3.6-125c0.2-8.2,0.7-16.5-0.3-24.6
				c-2.9-23.5-15.8-41.3-34.3-55.1c-24-17.8-50.5-17.7-77.3-8.5c-32.3,11-52.6,39.8-53.2,74.1c-1.1,62.2-2.1,124.4-3.1,186.6
				C152.7,344.2,152.7,349.3,152.7,355z M354.9,347.1c0.1-1.7,0.3-2.8,0.3-3.9c0.7-22.2,1.4-44.3,2.2-66.5
				c1.2-36.4,2.5-72.9,3.7-109.3c0.4-12.5,0.9-25-2.2-37.2c-8.7-34.2-31.8-53.1-65.4-60.4c-2.4-0.5-4.9-0.8-7.3-1.1
				c-2.3-0.3-4.5-0.7-6.8-0.8c-2.2-0.1-4.5,0-6.8,0c11,4.6,20.6,10.6,29,18.6c19.5,18.7,30.9,40.7,29.8,68.5
				c-1.2,30-1.6,60.1-2.4,90.1c-0.8,26.1-1.9,52.2-2.5,78.3c-0.3,12.2-0.1,24.5-0.1,37C335.4,356.1,345,351.7,354.9,347.1z
				 M322.6,432.4c0-12,0-23.4,0-35.1c-65.1-3.3-129.9-6.6-194.8-9.9c0,10.8,0,21.2,0,32C192.8,423.7,257.5,428.1,322.6,432.4z
				 M316.4,373c-5.8-1.1-11.7-0.6-17.5-0.9c-49.3-2.4-98.7-4.8-148-7.2c-1.1,0-2.5-0.2-3.3,0.4c-5,3.6-10.2,6.9-14.8,12.3
				c62.9,3.2,125.1,6.4,187.8,9.5C319.2,382.3,317.9,378,316.4,373z M333.1,396.3c0,10.8,0,21.4,0,32.8c13.1-7.4,25.6-14.4,38-21.4
				c0.4-10.8,1.4-21.3,0.9-32.4C358.7,382.5,345.9,389.4,333.1,396.3z M367.9,366.1c-2.8-3.7-5.9-6.6-9.2-9.7
				c-10.5,4.9-21,9.7-31.6,14.7c1.3,5.1,2.4,9.8,4.5,14.6C343.9,379,355.8,372.6,367.9,366.1z"/>
		</g>
	</g>
	<g id="Eyes_B_3.0_1_">
		<path class="st0" d="M250.4,214.5c-2.4,3.6-2.6,8.5-0.9,12.5c0.5,1.2,1.2,2.3,2.3,3c2.2,1.3,5,0.1,7.3-1.1c3-1.6,6.1-3.5,7.3-6.7
			c0.9-2.3,0.5-5-0.6-7.2c-0.6-1.4-1.5-2.6-2.5-3.7c-0.7-0.7-1.3-1.6-2.4-1.7c-2.5-0.4-5.2,0.4-7.3,1.7
			C252.3,212.2,251.2,213.3,250.4,214.5z"/>
		<path class="st0" d="M204.9,215.2c-0.8,1.4-1.4,2.9-1.5,4.5c-0.2,2.7,1.1,5.2,2.3,7.6c0.2,0.5,0.5,1,0.9,1.3s0.9,0.4,1.4,0.5
			c5,0.7,10.2-1.3,13.4-5.2c0.6-0.8,1.1-1.6,1.4-2.5c0.4-1.4,0.4-2.8,0.3-4.2c-0.1-2-0.3-4.3-1.8-5.7c-0.7-0.7-1.6-1.2-2.5-1.6
			c-1.1-0.6-2.4-1.3-3.6-1.7c-0.9-0.2-2,0.1-2.8,0.4c-2.1,0.7-3.9,2.1-5.4,3.7c-0.4,0.5-0.8,0.9-1.2,1.4c-0.2,0.3-0.4,0.5-0.5,0.8
			C205.2,214.6,205.1,215,204.9,215.2z"/>
		<path class="st3" d="M254.5,230.9c-1-0.1-2-0.3-3-0.5c-0.4-0.6-0.7-1.1-1-1.7c-0.3-0.6-0.4-1.1-0.7-1.7c-0.6-1.2-0.9-2.4-1.1-3.7
			c-0.4-2.9,0.1-5.9,1.6-8.3s3.9-4.4,6.6-5.3c1.1-0.4,2.4-0.6,3.6-0.2c0.8,0.2,1.4,0.7,2,1.3c0.3,0.3,0.6,0.6,0.8,0.9
			c0.2,0.3,0.5,0.6,0.7,0.9c-0.3,0-0.6-0.1-0.9-0.1s-0.7-0.1-1-0.1c-5.9,0-10.8,4.8-10.8,10.8C251.3,226.1,252.5,228.9,254.5,230.9z
			"/>
		<path class="st3" d="M206.9,229.1c-0.1,0-0.4-0.6-0.4-0.7c-0.1-0.2-0.3-0.5-0.4-0.8c-0.2-0.5-0.5-1.1-0.6-1.6
			c-0.2-0.6-0.2-1.1-0.4-1.7c-0.2-0.7-0.4-1.4-0.6-2.1c-0.4-1.4-0.6-2.8-0.4-4.3c0.2-2.4,1.5-4.7,3.3-6.4s4.1-2.8,6.5-3.3
			c0.8-0.2,1.6-0.3,2.5-0.1c1,0.2,1.9,0.8,2.6,1.6c0.4,0.4,0.7,0.8,1,1.2c0.1,0.2,0.3,0.4,0.1,0.6c-0.1,0.1-0.2,0.1-0.3,0.1
			c-0.3,0-0.7-0.1-1-0.1s-0.7-0.1-1-0.1c-5.9,0-10.8,4.8-10.8,10.8c0,2.9,1.1,5.5,3,7.5C209.9,229.7,206.9,229.1,206.9,229.1z"/>
		<path class="st5" d="M211.3,231.9c-7.6,0-13.8-6.2-13.8-13.8s6.2-13.8,13.8-13.8s13.8,6.2,13.8,13.8S218.9,231.9,211.3,231.9z
			 M211.3,208.3c-5.4,0-9.8,4.4-9.8,9.8s4.4,9.8,9.8,9.8s9.8-4.4,9.8-9.8S216.7,208.3,211.3,208.3z"/>
		<path class="st5" d="M255.7,232.9c-7.6,0-13.8-6.2-13.8-13.8s6.2-13.8,13.8-13.8s13.8,6.2,13.8,13.8S263.3,232.9,255.7,232.9z
			 M255.7,209.3c-5.4,0-9.8,4.4-9.8,9.8s4.4,9.8,9.8,9.8c5.4,0,9.8-4.4,9.8-9.8S261.1,209.3,255.7,209.3z"/>
		<path class="st5" d="M204.9,227c-1.4-2.1-2.1-4.5-2.1-6.9c0-7.1,5.7-12.8,12.8-12.8c0.1,0,0.3,0,0.4,0c0.8,0.8,1.6,1.5,2.2,2.3
			c-0.9-0.2-1.7-0.3-2.6-0.3c-5.9,0-10.8,4.8-10.8,10.8c0,2.9,1.1,5.5,3,7.5L204.9,227z"/>
		<path class="st5" d="M252.5,228.8c-1-0.1-2-0.3-3-0.5c-1.4-2.1-2.2-4.6-2.2-7.2c0-6.8,5.4-12.4,12.1-12.8l2.6,2.1
			c-0.6-0.1-1.3-0.2-2-0.2c-5.9,0-10.8,4.8-10.8,10.8C249.3,224.1,250.5,226.8,252.5,228.8z"/>
	</g>
</g>
</svg>
