<?xml version="1.0" encoding="utf-8"?>
<!-- Generator: Adobe Illustrator 24.3.0, SVG Export Plug-In . SVG Version: 6.00 Build 0)  -->
<svg version="1.1" id="Capa_1" xmlns="http://www.w3.org/2000/svg" xmlns:xlink="http://www.w3.org/1999/xlink" x="0px" y="0px"
	 viewBox="0 0 500 500" style="enable-background:new 0 0 500 500;" xml:space="preserve">
<style type="text/css">
	.st0{fill:#6B00FA;stroke:#000000;stroke-width:0.5;stroke-miterlimit:10;}
	.st1{fill:#4300BF;}
	.st2{fill:#4300BF;stroke:#000000;stroke-width:0.5;stroke-miterlimit:10;}
	.st3{fill:#3E4E3E;}
	.st4{fill:#100342;}
	.st5{fill:#3A4C4B;}
	.st6{fill:#100342;stroke:#000000;stroke-width:0.5;stroke-miterlimit:10;}
	.st7{fill:#2C382C;}
	.st8{fill:#684C9B;}
	.st9{fill:#6B00FA;}
	.st10{fill:#272F49;}
	.st11{fill:#847F88;stroke:#000000;stroke-width:0.5;stroke-miterlimit:10;}
	.st12{fill:#847F88;stroke:#000000;stroke-width:2;stroke-miterlimit:10;}
</style>
<g id="Color_Stone_2.0">
	<path class="st0" d="M138.9,329.9c1.4-21,1-42.6,3.5-64.1c1.4-11.7,3.9-23.3,4.9-35c1.3-16-0.3-32-0.7-48.1
		c-0.1-4.7-0.6-9.4,0.6-14.1c0.6-2.4,1.5-4.9,4-5.4c4.3-1,3.1-3.4,2.2-6c-1-2.9-1.9-5.8-3-8.6c-6-14.7-0.9-27.9,6.4-40.3
		c6.2-10.6,14.3-20.1,22.8-29c9.5-10,21.3-15,35.2-15.2c2.6,0,5.2-0.1,7.9-0.3c1.3-0.1,2.6-0.1,4-0.2c1.2-0.1,2.5,0,3.7-0.2
		c0.4-0.1,0.8-0.2,1.2-0.3c0.7,0,1.4,0.2,2,0.2c1.5,0.2,2.9,0.4,4.4,0.7c2.9,0.5,5.8,1,8.7,1.6c5.8,1.1,11.5,2.5,17.2,4
		c3.1,0.8,6.2,1.7,9.1,3.2c5.3,2.9,9.1,7.8,14.2,11c3.5,2.2,7.4,3.5,10.6,6.1c3.6,2.9,5.9,7,8.1,11.1c2.4,4.4,4.8,8.8,6.4,13.6
		c0.4,1.2,0.8,2.5,1.1,3.7c1.2,5.1,1.8,10.3,2.4,15.5c0.6,5.1,1.3,10.3,3,15.2c0.4,1.2,0.9,2.4,1.4,3.6c0.2,0.5,0.5,1,0.6,1.5
		c0,0.7-0.1,1.4-0.1,2.1c-0.1,15.1-1.4,30.1-1.7,45.2c-0.5,24.4-2.2,48.8-4.9,73.1c-0.5,4.3,0.1,8.5,1.1,12.6
		c2.9,12.2,3.8,24.4,2,37c-1.5,10.6-1.5,21.5-2.2,32.3c-0.3,4.8-2.9,6.8-7.6,6.9c-5.5,0.1-10.5-2.2-16-2.3
		c-7.7-0.2-15.1,1.6-22.6,2.4c-12.6,1.2-24.8-1.1-37.2-2.6c-2.2-0.2-4.3-1.2-6.5-1.1c-2.3,0-4.5,0.1-6.8,0c-1.1-0.1-2.2-0.1-3.3-0.4
		c-0.7-0.2-1.2-0.5-1.9-0.6c-3-0.3-6-0.3-9-0.5c-3-0.1-6-0.3-9-0.4c-6-0.3-12.1-0.5-18.1-0.7s-12.1-0.4-18.1-0.6
		c-1.5,0-3-0.1-4.5-0.1c-1.4,0-3-0.3-4.4-0.1c-0.4,0.1-0.8,0.3-1.1,0.4c-1.4,0.4-3.1,0.2-4.5-0.1c-4.4-1.2-5.5-5.9-5.6-9.9
		c-0.1-2.7,0.2-5.4,0.3-8.1C139,335.9,138.9,333.2,138.9,329.9z"/>
	<path class="st0" d="M323.4,413.8c-0.8,5.2-0.1,11.1-1.6,16.7c-0.6,2.2-1.1,4.3-3.5,5.2c-2.3,0.8-3.9-0.2-5-2.2
		c-0.8-1.4-2.2-1.3-3.6-1.4c-11.3-0.7-22.6-1.4-33.8-2c-38.6-2-77.1-4-115.7-6c-10.8-0.5-21.6-0.8-32.4-1.4c-2.9-0.2-8.7,0-9.4-3.9
		c-0.2-1.2-0.9-2.2-1.2-3.4c-0.7-2.5-0.8-5.2-0.8-7.8c-0.2-6-0.3-12.1-0.5-18.1c0-1,0-2-0.1-3c0-0.7-0.2-1.1-0.5-1.6
		c-0.7-1.5-0.1-3.2,0.9-4.4c1.3-1.6,3.1-2.3,5-1.5c6.2,2.3,12.7,1.8,19,2.2c29.6,1.7,59.3,3,89,4.4c27,1.3,53.9,2.7,80.9,4.1
		c9.3,0.5,12.9,4.3,12.9,13.7C323,406.7,323.2,410,323.4,413.8z"/>
	<path class="st1" d="M165.7,98.6c0.8-1.1,1.6-2.2,2.5-3.3c1.7-2,3.5-3.9,5.3-5.7c0.5-0.5,0.9-0.9,1.4-1.4c0.2-0.2,0.4-0.2,0.6-0.4
		c0.7-0.5,1.3-1.3,1.9-1.9c4.5-4.7,9.2-9.3,14.9-12.5c9.1-5.1,18.4-8.5,29.2-8.1c2.2,0.1,4.4,0.1,6.5,0c1.1,0,2.2-0.1,3.3-0.2
		c1-0.1,2.2,0.1,3.1-0.2c5.5-1.8,11.1-3.1,16.8-4c2.9-0.4,5.7-0.7,8.6-0.9c1.4-0.1,2.9-0.2,4.3-0.2c0.5,0,1,0,1.6,0.1
		c0.9,0,1.8-0.4,2.7-0.6c3.4-0.8,6.7-0.3,9.8,1c9.8,4.1,20.4,5.6,30.3,9.6c4.3,1.7,8.6,3.4,12.8,5.4c0.1,0,0.2,0.1,0.3,0.1
		c4,2,7.5,4.9,9.6,8.9c0.2,0.5,0.5,1,0.7,1.5s0.3,1,0.5,1.5c0.6,1.1,1.4,2.2,2.2,3.1c1.6,1.9,3.5,3.6,5.4,5.3
		c1.6,1.4,3.3,2.9,4.7,4.6c0.7,0.8,1.4,1.7,2,2.6c0.3,0.4,0.6,0.9,0.8,1.4c0.8,2.2,2.1,4.2,2.8,6.4c1.5,4.9,2.8,9.8,4,14.7
		c1.4,5.6,2.5,11.2,3.3,16.8s1.4,11.4,1.5,17.1c0.1,2.9,0.1,5.8,0,8.6c-0.1,1.4-0.1,2.9-0.2,4.4c-0.1,1.4,0,2.9,0.1,4.3
		c0.2,6,0.4,12.1,0.5,18.1s0.1,12.1,0.1,18.1s-0.2,12.1-0.3,18.1c-0.1,3-0.2,6-0.3,9.1c0,0.6-0.1,1.1-0.2,1.7c0,0.4,0.1,0.8,0.1,1.2
		c0.1,0.9,0.2,1.7,0.3,2.6c0.2,1.7,0.3,3.5,0.4,5.2c0.4,7.2-0.2,14.5-1.6,21.6c-2.5,12.4-1.7,25.1-2.1,37.7
		c-0.3,10.1-1.3,20.2-1.2,30.3c0,3.4-1.4,5.9-4.6,6.9c-7.2,2.3-13.6,6-20.2,9.6c-2.1,1.1-4.2,1.8-6.6,1.8c-4.8,0-6.2-1.2-6.4-6.1
		c-0.5-12,1.8-23.8,2.5-35.7c0.4-7.3,0.7-14.5-1.4-21.7c-0.9-3-1.1-6.2-0.9-9.4c0.9-11.5,2.4-23.1,2.5-34.6
		c0.2-18.9,3.2-37.6,3.5-56.5c0.1-10.6,0-21.2,0.2-31.8c0-4.5-0.6-8.9-1.4-13.3c-0.4-2.6-0.8-5.1-0.9-7.7c0-1,0.1-2,0-3
		s-0.4-1.9-1.1-2.6c-0.8-0.8-1.7-1.3-2.6-1.9c-1.1-0.7-2.1-1.6-2.9-2.5c-0.5-0.6-0.9-1.2-1.7-1.6c-1-0.4-2-0.6-2.8-1.3
		c-0.7-0.6-1.1-1.3-1.5-2.1c-0.7-1.6-0.8-3.3-1.1-4.9c-0.3-1.3-0.5-2.6-1.1-3.8c-1.1-2.2-3-3.7-5.5-3.8c-2.4,0-3.6,1.9-4.6,3.9
		c-3.4,7-3.6,7.1-11.8,6.2c-0.8-0.1-1.8-0.3-2.5,0c-4.1,1.8-7.2,1.7-10.3-2.6c-1.6-2.2-5.4-0.5-7.2,1.8c-2.6,3.4-5.4,6.7-6.3,11.1
		c-0.4,1.9-1.1,4.1-3.7,4.1c-2.2-0.1-2.8-2.1-3.5-3.7c-1.4-3.2-2.2-6.6-2.2-10.1c0.2-6.1-2.3-11.3-5.5-16.2c-1.7-2.6-3.9-4-7.1-2.7
		c-0.9,0.4-2.1,0.7-2.9,0.4c-8.2-2.9-15.5,1.4-23.1,2.9c-2.3,0.5-4.3,0-5.4-2.3c-0.9-1.8-1.8-3.5-2.6-5.4c-1.9-4.6-5.3-5.6-9.2-2.4
		c-2,1.7-3.8,3.6-6.4,4.6c-5.8,2.2-7.9,1-8.4-5.1c-0.1-0.8,0.1-1.7-0.9-2.6c-2.3,2.2-5.2,4.3-6.3,7.3c-3.5,9.4-10.3,16.8-14.9,25.6
		c-1.8,3.4-2.9,7.2-3.2,11.1c-0.1,0.9-0.2,1.8-0.2,2.7c0,0.2,0,0.4-0.2,0.5s-0.4,0-0.5-0.2c-0.4-0.4-0.9-0.9-0.9-1.4
		s0.1-1.1,0.1-1.7c0-1.4,0.2-2.9,0.4-4.3c0.4-2.8,1.1-5.6,2-8.3c0.1-0.2,0.2-0.5,0.2-0.7c0.4-1.2,1.1-2.5,1.4-3.7
		c0.1-0.4,0.1-0.8,0.2-1.2c0.1-0.6,0.5-1.2,0.8-1.7c1.3-2.6,2.5-5.2,3.6-8c0.9-2.3,1.5-4.6,2.5-6.9
		C163,102.9,164.2,100.7,165.7,98.6z M304.3,94.9c-0.2-0.2-0.4-0.6-0.7-0.6c-0.4-0.1-0.5,0.2-0.2,0.6c0.2,0.2,0.5,0.5,0.7,0.6
		C304.5,95.6,304.6,95.3,304.3,94.9z"/>
	<path class="st1" d="M189.1,384.9c-1.9-0.1-3.9,0.5-5.9,1.7c-1.1,0.7-2.4,1.1-3.6,1.7c-3.2,1.9-5.9,1.6-8.1-1.6
		c-1.4-2-3.3-3.7-5.5-5c-7.1-4.2-14.1-3.3-19.1,3.3c-3.5,4.6-7,6.4-12.7,4.3c-3.5-1.3-6.3,0.7-8.3,3.8c-1.2,1.8-2.1,3.7-2.8,5.7
		c-0.3,1-0.7,2-0.9,3c-0.1,0.5-0.1,0.8-0.5,1.1c-0.3,0.3-0.7,0.4-1.1,0.5c-1.1,0.3-2.2,0.5-3.3,0.5c-0.5,0-1,0-1.4-0.3
		c-0.8-0.5-0.8-1.6-0.8-2.5c0-1.5,0-3.1,0-4.6c0-0.6,0.1-1.1,0.2-1.6c0.2-1.2-0.2-2.7-0.4-3.9c-0.2-1.6-0.5-3.2-0.6-4.9
		c-0.1-1.4-0.2-2.8,0-4.2c0.1-1.1,0.3-2.2,0.3-3.3c0.1-2.2,2.9-3.8,4.5-4.9c1.8-1.2,3.6-2.4,5.5-3.4c1.3-0.7,2.6-1.2,3.7-2.2
		s1.8-2.3,3-3.2c0.5-0.3,0.9-0.7,1.3-1.1c0.8-0.7,1.8-1.2,2.7-1.7c1.8-1.1,3.7-2.1,5.5-3.2c3.1-1.8,6.2-2.1,9.9-1.1
		c4.1,1.1,8.5,1.1,12.8,1c7.3-0.2,14.6,0.1,21.9,0.8c1.8,0.2,3.6,0.4,5.3,0.6c0.8,0.1,1.5,0.2,2.2,0.2c0.7-0.1,1.5,0,2.2-0.1
		c3-0.1,6-0.1,9-0.1c6,0,12,0.2,18,0.6c2.3,0.1,4.6,0.3,6.9,0.5c1.7,0.2,3.4,0.3,5.1,0.8c1.3,0.3,2.6,0.8,3.9,1.1
		c0.6,0.1,1.3,0.2,2,0.2c0.6,0,1.2-0.2,1.8-0.3c1.4-0.2,3,0,4.5,0s3,0,4.5,0c5.5,0.1,11,0.4,16.5,1c12.7,1.4,25.5,0.2,38.2,1.8
		c2.8,0.3,5.4,1.9,7.5,3.8c1,0.9,1.8,1.9,2.7,2.9c0.2,0.2,0.3,0.3,0.4,0.6c0.6,1.2,1.1,2.6,1.6,3.9c1,2.6,1.7,5.3,2.3,8.1
		c0.3,1.4,0.4,2.8,0.7,4.2c0.2,0.9,0.6,1.6,0.9,2.4c0.4,1.1,0.2,2.2,0.2,3.3c0,1.5,0,2.9,0,4.4c0.1,5.8,0.4,11.7-0.7,17.5
		c-0.1,0.4-0.2,0.9-0.3,1.3c-0.3,1.2-0.1,3-1.8,3.1c-1.4,0.1-2.3-1.2-3.1-2.2c-2.1-2.5-2.6-5.7-3.3-8.7c-2-8.5-7.7-13.3-16.5-13.6
		c-1.8,0-3.2-0.5-4.6-1.5c-1.5-1-3.4-2-5.1-1.4c-4.9,1.5-9-0.5-13.3-2.3c-5.5-2.3-10.8-1.4-15.7,1.4c-4.8,2.8-9,2.3-13.4-0.8
		c-5.8-4-10.6-3.6-15.7,1c-2.2,2-4.2,4.2-6.1,6.5c-2.6,3.3-4.9,3.2-7.7,0.1c-1.9-2.2-2.9-4.8-4.1-7.3c-2.6-5.2-4.6-6-10.2-4.5
		c-2.2,0.6-4.1,0.8-6-0.9C192.5,385.7,190.8,385,189.1,384.9z M298.4,385.1c-26.2-6.7-53.1-2.6-79.5-5.7c0,0.7-0.1,1.4-0.1,2.1
		C245.4,382,271.9,383.9,298.4,385.1z M310.3,384.5c-2.6,0-4.1,0-5.6,0C306.4,385.4,307.9,385.5,310.3,384.5z M190.9,381.5
		c-0.9,0.1-2-1-2.7,0.4C189.2,382.2,190.1,382.6,190.9,381.5z"/>
	<path class="st2" d="M325.9,407.2c0-4.6,0-9.3,0-13.9c0-3.2,1.4-5.5,4.1-7.4c6.4-4.7,13.8-7.1,21.1-9.8c3.8-1.4,7.5-2.7,10.6-5.3
		c2.1-1.7,4.5-2.3,6.9-1c2.4,1.2,2.9,3.6,2.7,6c-0.6,7.4,0.6,14.9-0.5,22.3c-0.5,3.1-1.4,5.8-3.9,7.7c-10.2,7.8-21.5,13.7-32.4,20.3
		c-4.4,2.7-8.3,0.2-8.6-5.1C325.6,416.5,325.9,411.9,325.9,407.2z"/>
	<path class="st3" d="M159.3,317.9c0.4-0.3,0.8-0.5,1.2-0.7c1.1-0.6,2.2-0.9,3.3-1.5c-1,1.3-2.5,2-3.6,3.2c-1.2,1.5-1.6,3.5-2.9,4.9
		c-1.1,1.4-2.8,2.1-4.4,2.8c-1.3,0.5-2.6,1.1-3.9,1.7c-1.4,0.6-2.8,1.2-4.3,1.2c0-1.1,0-2.1-0.1-3.2c0-0.1,0-0.2,0-0.3
		c0.1-0.7,0.2-1.4,0.3-2c0.1-1.4,0.2-2.9,0.1-4.3c-0.1-2.7-0.4-5.4-0.6-8.1c-0.8-9-0.9-18.2,0.9-27.2c1.7-8.5,1.1-17.2,1.6-25.8
		c0.7-11.7,4-23.1,3.9-34.9c-0.1-4.8,0.7-9.6,0.2-14.4c-1.4-13.2-0.4-26.5-0.8-39.7c0-0.6,0.1-1.1,0.1-1.7c0-0.3,0-0.5,0.2-0.6
		c0.3-0.2,0.6-0.3,0.9-0.4c0.6-0.3,1.3-0.6,1.9-0.8c1.3-0.4,2.6-0.6,3.9-0.1h0.1c1,0.4,1.9,1.1,2.6,1.9c0.8,0.9,1.5,1.9,1.6,3
		c0.2,1.4-0.5,2.8-1.3,4s-1.7,2.4-2.1,3.7c-0.1,0.2-0.1,0.4-0.1,0.6c0.1,0.3,0.4,0.6,0.6,0.8c0.6,0.5,1.1,1,1.7,1.5
		c0.4,0.4,1.1,0.7,1.3,1.2c0.2,0.4,0.3,0.9,0.4,1.4c0.2,0.7,0.4,1.3,0.5,2c0.1,0.8,0.2,1.6,0.2,2.4c0,0.3-0.1,0.6,0,0.9
		c0.1,0.2,0.1,0.5,0.1,0.8c0.1,0.5,0.2,1.1,0.4,1.6c0.4,1.1,0.9,2.1,1.4,3c0.8,1.7,1.7,3.5,1.4,5.5c-0.4,2.8-3.2,5.1-3,7.9
		c-0.2-0.7-0.9-1.2-1-2c-0.1-0.4,0.1-0.7,0.2-1.1c0.5-1.3,1.2-2.5,2-3.7c0.1-0.2,0.3-0.4,0.3-0.6c0-0.2-0.1-0.4-0.1-0.7
		c-0.8-2.1-1.6-4.1-2.3-6.2c-0.4-1.1-0.9-2.1-2-2.6c-0.7-0.3-1.6-0.2-1.9,0.6c-0.1,0.4,0,0.9,0,1.4c0.1,0.5,0.1,1,0.2,1.4
		c0.1,0.3,0.2,0.7,0.3,1c0.2,0.7,0.2,1.4,0.1,2.1c-0.1,1.2-0.8,2.4-1.8,2.9c0.5-2.4,0.4-5-0.5-7.3c-0.1-0.2-0.2-0.5-0.2-0.7
		s0.1-0.4,0.1-0.5c0.3-0.9,0.7-1.7,1.2-2.5c0.9-1.5,2.2-3,1.4-4.8c-0.5-1.2-1.5-2-2.4-2.9c-0.9-1-1.8-2.1-2.5-3.2
		c-0.1-0.1-0.2-0.3-0.2-0.4c0-0.2,0.1-0.4,0.2-0.5c0.6-1,1.3-1.9,2-2.9c0.3-0.5,0.7-0.9,1.1-1.4c0.3-0.4,1.2-1.2,0.5-1.7
		c-1-0.8-2.3-1.2-3.6-1.5c-1.1-0.2-1.9,0.7-2,1.7c-0.2,1.6-0.2,3.3-0.1,4.9c0.6,17.2,1.5,34.4-0.2,51.6c-0.4,4.2-0.8,8.5-1.2,12.7
		c-0.4,4.5-0.8,9-1.2,13.6c-0.1,1.8-0.3,3.6-0.5,5.5c-0.1,1.1-0.1,2.2-0.3,3.4c0,0.3-0.2,0.6-0.2,1c-0.1,0.4,0,0.9,0,1.3
		c0.2,2.2,0.3,4.5,0.3,6.7s-0.1,4.5-0.2,6.7c-0.1,1.1-0.2,2.2-0.3,3.3c-0.1,0.5-0.1,1.1-0.2,1.6c-0.1,0.7-0.1,1.5-0.2,2.2
		c-0.1,1.3-0.3,2.5-0.5,3.8c-0.2,0.9-0.3,1.8-0.5,2.6c-0.4,2.1-0.9,4.3-1,6.4c0,0.5,0,1.1,0,1.6c0,0.2,0.1,0.4,0.1,0.6
		c0.2,1,0.1,2.2,0.1,3.2c0,1.2,0.1,2.4,0.1,3.7c0.1,3,0.3,6,0.5,9c0,0.8,0.1,1.5,0.1,2.3c0,0.4,0,0.8,0.1,1.1c0,0.2,0.1,0.4,0.1,0.7
		c-0.1,1.5-0.2,3-0.3,4.5c2.3-0.9,4.7-1.7,7-2.6c0.6-0.2,1.2-0.4,1.6-0.8c0.5-0.4,0.7-1,1.1-1.6C157,319.9,158.1,318.7,159.3,317.9z
		"/>
	<path class="st4" d="M271.8,359.5c-0.2-0.5,0.1-1.2,0.6-1.7c0.8-0.7,1.8-0.9,2.7-1.3h0.1c2.1-1,4.4-1.5,6.3-2.8
		c4.9-3.2,10-4.7,15.9-4.2c5,0.4,7.9-2.5,9.5-7.7c1.6-5.1,1-10.5,2.2-15.7c0.7-3.1,1.1-6.2,3.1-8.8c1.5-2.1,1.1-4.4,1.2-6.7
		c0-2.3,0-4.6,0.1-6.9c0-0.5-0.1-1.2,0-1.7v-0.2c0.1-0.1,0.2-0.1,0.4-0.1c0.8,0.1,1.4,0.9,1.6,1.6c0.3,0.9,0.3,1.8,0.3,2.7
		c-0.1,7.4-0.3,14.8-1.1,22.2c-0.3,2.3-0.6,4.7-0.8,7c-0.2,2.6-0.3,5.2-0.3,7.8c-0.1,3-0.1,6.1-0.2,9.1c-0.1,2.6-0.1,5.2,0.3,7.8
		c0,0.2-3.6,0.9-3.9,0.9c-1.3,0.2-2.7,0.4-4,0.5c-2.7,0.2-5.5,0.1-8.2,0c-5.6-0.3-11.1-1.1-16.7-1.4c-1.4-0.1-2.8-0.1-4.2-0.1
		c-0.7,0-1.4,0-2.1,0.1c-0.6,0-1.4,0.2-2,0.1C272.2,359.9,272,359.7,271.8,359.5z"/>
	<path class="st1" d="M297.2,429.1c-6.4-0.2-12.8-0.5-19.2-0.2c-2.5,0.1-3.1-1-1.5-2.9c2.2-2.6,4.6-5.2,7.2-7.4
		c1.5-1.2,3.5-0.6,5.2,0.3c2.7,1.5,5.4,2.3,8.5,1.3c0.9-0.3,2-0.2,3,0c3.2,0.9,5.5,3.5,5.2,6.4c-0.1,1.8-3.4,2.5-5.8,2.4
		C298.9,429.1,298,429.1,297.2,429.1z"/>
	<path class="st4" d="M182.8,129.1c2.8,5.1,0.3,9.5-3.4,13.6c-1.1,1.2-2,3.1-3.9,2.4c-1.8-0.8-1.5-2.8-1.3-4.4
		c0.8-5.4-1.5-11,1.7-16.2c0.8-1.3,0.2-3.7,2.4-3.8c2.2-0.1,3.7,1.3,4.3,3.4C183,125.5,183.6,126.9,182.8,129.1z"/>
	<path class="st4" d="M298.1,138.1c-0.1,3.9-1,7.6-4.5,10.3c-2.1,1.6-3.8,1.6-4-1.5c-0.2-2.4-0.8-4.6-2-6.5
		c-1.4-2.2-1.5-3.8,0.3-5.7c2.4-2.6,5.3-2.6,8.2-1.8C298.7,133.6,297.9,136,298.1,138.1z"/>
	<path class="st4" d="M293.3,195.9c0.1-4,3.4-7.9,5.7-7.4c3.6,0.9,3.8,3.7,3.1,6.7c-0.7,2.9-1.1,5.8-1.3,8.7
		c-0.1,1.8-0.9,3.9-3.1,3.8c-2-0.1-2.5-2.1-2.3-3.7C295.6,200.7,293.3,198.1,293.3,195.9z"/>
	<path class="st4" d="M146.3,333.9c-0.2,0.6-0.4,1.3-0.6,2c-0.1,0.6-0.2,1.3,0,1.9c0.1,0.2,0.2,0.3,0.3,0.5c0.3,0.6,0.4,1.3,0.7,1.9
		c1.1,2.3,3.1,4,5.1,5.6c1.1,0.8,2.1,1.6,3.2,2.4c0.6,0.4,1.1,0.9,1.6,1.3c0.2,0.2,0.5,0.4,0.7,0.6c0.1,0.1,0.5,0.6,0.6,0.6
		c-3.3,1-6.2,0.6-9,1.3c-2,0.5-3.9-1-4.3-3.3c-0.4-2.1-0.7-4.2-0.8-6.4c0-1.5-0.2-2.9-0.2-4.4s0.1-3,0.3-4.4c0.1-1.1,0.4-2.2,1.2-3
		c0.4-0.3,0.8-0.5,1.3-0.8c1.2-0.5,2.3-1.1,3.5-1.6c0.6-0.3,1.1-0.3,1.7-0.5c0.6-0.2,1.1-0.5,1.7-0.7c0.9-0.4,1.8-0.7,2.7-0.5
		c-1,0.6-2,1.2-3.1,1.7c-0.5,0.3-1,0.5-1.6,0.8c-1.3,0.6-2.8,1-3.7,2.2c-0.4,0.5-0.6,1-0.9,1.6C146.6,333.1,146.5,333.5,146.3,333.9
		z"/>
	<path class="st4" d="M278.4,312.7c0-0.5,0-1,0-1.5c0.1-2-0.8-5,2.1-5.2s3.2,2.8,3.6,5c0.2,1.6,0.1,3.3-0.2,4.9
		c-0.3,1.9-1.3,3.5-3.5,3.4c-2.5-0.1-2-2.1-2.1-3.7C278.3,314.7,278.4,313.7,278.4,312.7L278.4,312.7z"/>
	<path class="st4" d="M123.8,415.3c0.9-2.2,2.7-3.8,4.8-4.7c1.8-0.8,2.7,0.7,3.3,2.1s1.8,1.9,3,2.4c1.3,0.6,2.5,1.3,1.8,2.9
		c-0.6,1.4-2.1,1.2-3,0.7c-2.4-1.1-4.6-2.2-7.5-0.8C124.7,418.6,124.3,416.6,123.8,415.3z"/>
	<path class="st4" d="M274.1,329c-0.3,3.2-2.9,3.9-5.3,4.1c-2,0.2-3.6-0.9-3.4-3.2c0.2-2.5,0.9-5.1,4.1-5.2
		C272.4,324.6,273.6,326.5,274.1,329z"/>
	<path class="st4" d="M158.9,340.7c0.5-1.7,0.5-5,4.1-4.7c2,0.1,3.6,1.6,3.5,4c-0.2,3.3-2.6,4.4-5.3,4.7
		C159.3,344.9,158.4,343.5,158.9,340.7z"/>
	<path class="st4" d="M158,283.4c0-2.3,0-5,1.8-5c3.1,0.1,3.1,3.3,3.3,5.6c0.1,1.5-0.1,3.7-2.3,3.6
		C157.8,287.5,158.3,284.8,158,283.4z"/>
	<path class="st4" d="M170.7,302.5c0.6-1.5-0.8-4.3,1.9-4.2c2.4,0.1,3.1,2.6,3.1,4.9c0,1.8-0.2,4.2-2.4,4.3
		C169.9,307.4,171.2,304.3,170.7,302.5z"/>
	<path class="st4" d="M178.8,163.2c-1.9-0.1-2.1-1.4-1.9-2.5c0.6-2.4,1.8-4.4,4.3-4.8c1-0.2,1.5,1.3,1.2,2.3
		C182,160.4,181.3,162.6,178.8,163.2z"/>
	<path class="st4" d="M295.6,333.5c-0.4,1.3-0.8,2.7-2.5,2.6c-1.5-0.1-1.8-1.2-1.8-2.5c0-1.4,0.6-2.2,2-2.2
		C294.6,331.5,295.5,332.1,295.6,333.5z"/>
	<path class="st4" d="M228.1,413.6c-1.3-0.8-1.6-2.1-1.2-3.4c0.2-0.9,0.7-2.1,1.9-1.6s1.2,1.8,0.9,3
		C229.4,412.5,229.4,413.7,228.1,413.6z"/>
	<path class="st5" d="M312.6,291.7c0,0.5,0,0.8,0,1c0,0.3-0.1,0.5-0.2,0.8c0-0.3,0-0.6,0-0.9C312.5,292.4,312.6,292.1,312.6,291.7z"
		/>
	<g>
		<path class="st4" d="M355.3,139.3c0,1.4,0.1,2.9,0,4.3c-0.2,1.9-1.4,4.1-3.1,3.7c-5.1-1.3-4.6,2-4.8,5c-0.1,1.8-0.2,4-2.3,4.3
			c-2.1,0.3-2.8-1.8-3.4-3.5c-1.4-3.8-2.6-7.6-4.2-11.3c-1-2.3-2.2-4-4.8-0.9c-2.4,2.9-5,2-5.4-1.8c-0.6-5.1-1.8-9.4-7.2-11.4
			c-2.2-0.8-1.8-3.3-2.3-5.1c-4.2-14.8-13.3-25.6-26.1-34.1c-9.1-6-17.4-13.3-27.5-17.7c-1.5-0.7-2.1-2-1.8-3.6
			c0.4-2.1,1.5-3.4,3.8-3.8c4.5-0.9,9-0.2,13.5,0.2c10.9,1,22,2.3,31.8,7c8.7,4.2,18.3,8.4,22.3,18.7c1.5,3.8,3.7,7,7.8,8.8
			c3.5,1.6,5.8,4.8,7.1,8.3C352.6,117,355.1,127.9,355.3,139.3z"/>
		<path class="st6" d="M353.1,349.9c2.8,0,10.2,6,10.8,8.9c0.5,2.6-0.8,4.1-2.9,5.6c-9.7,6.8-21.2,10.3-30.7,17.3
			c-0.2,0.2-0.6,0.3-0.9,0.4c-3.8,1.3-5.7-0.5-9.5-8.8c-1.3-2.9-2-5.6,1.5-8c7.7-5.2,16.7-7.7,24.7-12.1
			C348.4,352,350.3,350,353.1,349.9z"/>
		<path class="st4" d="M356.7,381c0-0.1,0-0.1,0.1-0.2c-0.3,0-0.6,0.3-0.8,0.6c-0.1,0.1-0.3,0.3-0.5,0.4c-0.1,0.1-0.2,0.1-0.2,0.2
			c-0.2,0.1-0.3,0.2-0.5,0.4c-1.5,1.3-2.9,2.7-3.9,4.4c-0.7,1.1-1.2,2.3-1.6,3.5c-0.4,1.3-0.6,2.7-0.7,4.1c0,1.2-0.7,2.2-1.9,2.5
			c-1.2,0.3-1.8-0.5-2.3-1.3c-1.3-2-1.6-6.2-4.5-5.2c-4,1.4-8.8,3-9.9,8.4c-1.2,6.3-2.2,12.6-3.3,18.9c0.6-8.5-0.5-16.9-1.4-25.3
			c-0.4-3.1,0.9-4.9,3.6-6.6c10.9-7,23.6-10.5,34.6-17.2c1.9-1.2,3.7-0.9,3.9,1.5c0.4,4.2,0.3,8.4,0.3,12.6c0,0.5-0.4,1.3-0.9,1.6
			c-0.9,0.5-1.4-0.2-1.9-0.8c-0.4-0.6-0.9-1.1-1.3-1.7c-0.3-0.4-0.7-0.8-1-1.2c-0.1-0.1-0.1-0.3-0.2-0.4s-0.4-0.2-0.6-0.3
			c-0.1,0-0.2,0-0.2,0c-0.1,0-0.1,0-0.2,0.1c-0.6,0.3-1.2,0.5-1.7,0.9c-0.7,0.5-1.2,1.3-1.4,2.1c-0.3,1-0.2,2-0.1,3
			c0,0.4,0.1,0.8,0.3,1.1s0.5,0.5,0.8,0.7c0.9,0.6,1.7,1.3,2.5,2.1c0.1,0.2,0.3,0.3,0.4,0.5c0.1,0.3,0.1,0.5,0.1,0.8
			c-0.2,2.6-0.6,5.2-1.1,7.8c-0.1,0.6-0.2,1.1-0.2,1.7c0.1,0.9,0.7,1.7,1.4,2.4c-0.1-0.1-0.2-0.1-0.4-0.2c-0.1-0.1-0.2-0.1-0.4-0.2
			c-0.2-0.1-0.5-0.3-0.7-0.5s-0.3-0.4-0.5-0.6s-0.4-0.4-0.7-0.5c0.1-0.3,0.3-0.6,0.4-0.9c0-0.1,0-0.2,0-0.3c0-0.4,0.1-0.8,0.2-1.2
			c0.5-2.2,0.8-4.5,1.1-6.8c0-0.2,0-0.4,0-0.5c0-0.2-0.1-0.3-0.2-0.4c-0.7-1-1.6-1.9-2.7-2.6c-0.3-0.2-0.6-0.3-0.9-0.3
			c-0.3,1-0.5,1.9-0.8,2.9c-0.2,0.7-0.4,1.4-0.8,2c-0.8,1.1-2,1.6-3.3,2c0.9-0.8,1.7-1.6,2.6-2.4c0.1-0.1,0.2-0.2,0.3-0.3
			c0.1-0.1,0.1-0.3,0.1-0.5c0-0.1,0-0.2,0-0.3c0-1.1,0-2.3,0-3.4c0-0.6,0-1.1,0-1.7c0-0.5-0.1-1.1-0.1-1.6c0-0.1,0-0.1,0-0.2
			s0.1-0.2,0.1-0.2c0.2-0.3,0.4-0.6,0.6-0.8c0.1-0.1,0.1-0.2,0.2-0.3c0-0.1,0.1-0.2,0.1-0.3c0.1-0.4,0.3-0.7,0.4-1.1
			C356.6,381.2,356.6,381.1,356.7,381z"/>
		<path class="st6" d="M352.9,303.8c2.5,1.9,2,3.7,2,5.2c-0.1,8.7-0.4,17.4-2.2,26c0,0.2-0.1,0.4-0.1,0.6c-0.2,1.4-0.1,2.8-0.3,4.2
			c0,0.4-0.1,0.7-0.1,1c-0.1,0.3-0.2,0.6-0.1,0.9c0,0.7,0,1.5-0.1,2.2c-0.7,0.4-1.4,0.8-2.1,1.1c-1,0.4-1.9,1-2.8,1.5
			c-1.6,0.7-3.3,1.2-4.9,2c-3.2,1.5-6.4,3.1-9.7,4.5c-0.6,0.3-1.1,0.5-1.6,0.8c-0.3,0.2-0.6,0.3-0.9,0.5c-1.2,0.6-2.5,1.2-3.7,1.8
			c-0.3,0.1-0.6,0.3-0.9,0.5c-2.2,1.3-4.4,3.3-7,3.1c0.1,0,0.7-4,0.8-4.4c0.2-1.5,0.4-3,0.6-4.4c0.1-0.7,0.2-1.5,0.2-2.2
			c0-0.3,0-0.6,0.1-0.9c0.1-0.2,0.1-0.4,0.2-0.7c0.1-1.4,0.1-2.7,0.2-4.1c0-0.8,0.1-1.5,0-2.3c-0.1-0.4,0-0.7,0-1.1
			c0-0.8,0-1.5,0-2.2c0-1.5,0-3,0-4.5c0.1-3,0.3-6,0.5-9c0.1-0.7,0.2-1.5,0.2-2.2c0-0.4,0-0.9,0-1.3c0.1-0.5,0.4,0.4,0.5,0.5
			c0.3,0.6,0.6,1.3,0.8,1.9c0.9,2.5,1.4,5.2,1.4,7.9c0,1.1-0.1,2.3-0.2,3.4c-0.9,6.4,4.5,9.1,7.1,13.3c1.5,2.4,10.9-1.7,13.3-5.1
			c5.3-7.5,6.6-16.1,7.3-25C351.8,313.3,352.4,308.9,352.9,303.8z"/>
		<path class="st4" d="M315.3,384c-2.5-1.5-4.6-2.2-5.9-3.6c-2-2.1-4.4-3.6-7-4.8c-3.4-1.5-7-2.4-10.6-3.5c-1.4-0.5-2.6-1.3-4.2-1.1
			c-1.9,0.2-3.8,0.7-5.7,0.9c-0.3,0-0.6,0.1-1,0.1s-0.8-0.2-1.1-0.5c-0.9-0.7-1.6-1.5-2.7-2c-2.6-1.4-5.5-2.3-8.4-2.8
			c0.7,0.1,1.9-0.4,2.6-0.5c0.9-0.2,1.8-0.3,2.8-0.4c1.8-0.2,3.7-0.2,5.5,0c3.1,0.4,6.2,0.3,9.4,0.5c3.3,0.2,6.6,0.5,9.9,0.9
			c1.9,0.2,4,0.4,5.7-0.2c3.4-1.2,5.4,0.5,6.9,2.8C313.9,373.7,315.3,378.2,315.3,384z"/>
		<path class="st7" d="M355.7,221.7c-0.2,0.1-0.5,0.2-0.7,0.3c-0.1,0-0.9,0.3-1,0.3c-0.3,2.9-0.3,5.9,0,8.8
			c-3.5,3.6-8.1,5.6-12.1,8.7c1.1,1.5,2.1,2.9,3.2,4.4c0.1,0.1,0.1,0.2,0.1,0.3c0,0.2-0.1,0.3-0.3,0.4c-1,0.7-1.9,1.4-2.9,2.1
			c-1.1,0.8-2.2,1.6-2.8,2.8c-0.5,1-0.6,2.1-0.7,3.1c-0.1,1.3-0.2,2.6-0.3,3.8c-0.1,1.5-0.3,3-0.4,4.5c0,0.6-0.1,1.2-0.3,1.9
			c-0.1,0.2-0.1,0.4,0,0.6c0,0.2,0.2,0.3,0.3,0.5c0.4,0.6,0.8,1.3,0.8,2.1c0.1,0.8-0.1,1.6-0.3,2.4c-0.5,2.2-0.5,4.5-0.1,6.7
			c-0.9-0.8-1.8-1.6-2-2.8c-0.1-0.5,0-1.1,0.1-1.6c0.2-1.2,0.4-2.4,0.6-3.7c0.1-0.5,0.2-1,0.2-1.5s-0.3-1-0.4-1.5
			c-1-4.2-1.1-8.5-0.9-12.8c0-0.7,0-1.4,0-2.1c0-0.4-0.2-0.9,0.1-1.2c0.5-0.5,1.2-0.9,1.8-1.3c0.6-0.4,1.2-0.8,1.8-1.3
			c0.3-0.2,0.5-0.4,0.6-0.7c0.1-0.2,0-0.5,0-0.8c-0.4-1.7-1-3.4-1.8-5c-0.1-0.2-0.3-0.5-0.3-0.8c0-0.8,0.8-1.2,1.5-1.5
			c3.4-1.3,6.6-3.3,9.4-5.7c0.3-0.3,0.6-0.6,0.9-1c0.3-0.5,0.3-1.1,0.4-1.6c0.1-2,0.2-4,0-6c-0.1-1.7-0.2-3.6,1-4.9
			c0.3-0.4,0.8-0.7,1-1.1c0.2-0.3,0.3-0.7,0.4-1c0.3-1.2,0.5-2.3,0.8-3.5c0.1-0.5,0.3-1,0.3-1.6c0-0.2,0-0.3,0.1-0.5
			c0.5-1,1.2,0.1,1.4,0.7c0.5,2.1,0.8,4.1,1,6.2c0.1,0.7,0.1,1.5,0.2,2.2c0,0.5,0.1,1,0.1,1.6c0,0.4-0.2,0.7-0.5,0.9
			C355.8,221.7,355.7,221.7,355.7,221.7z"/>
		<path class="st4" d="M129.6,371c4.8-4,9.8-7.8,14.4-12c3.2-2.9,7.4-2.2,9.9-0.9c7.3,3.7,14.8,1.9,22.2,2.4
			c1.5,0.1,3.2-0.8,4.5,1.2c-8.9,2-17.8,0.8-26.6,1.6c-8.7,0.8-15.5,7.3-24.1,8.9C129.9,371.7,129.8,371.4,129.6,371z"/>
		<path class="st4" d="M356.5,262.8c1.6,5,0.4,9.2-2.2,13.1c-1.7,2.5-1.5,5.2-1.2,7.9c0.1,1.6,0.4,3.3-1.5,4.2
			c-1.3,0.6-2.6,0.1-3.7-0.6c-1.8-1.1-1.2-2.7-0.9-4.3c0.2-1.4,0.7-2.9,0.5-4.3C346.5,271.3,350.5,266.6,356.5,262.8z"/>
		<path class="st4" d="M338.6,182c-0.2,2.1,0.5,6.3-2.2,6.1c-3.4-0.2-2-4.2-2-6.7c0-0.8,0.1-1.6,0.3-2.4c0.5-1.4-1-4.2,1.7-4.1
			c2,0.1,2.1,2.4,2.1,4.3C338.6,180.1,338.6,180.9,338.6,182z"/>
		<path class="st4" d="M330.9,317c0,2.2,0.1,4.3-2.7,4.4c-2.1,0.1-2.4-1.3-2.1-2.9c0.3-2.1,0-5.2,2.9-5.4
			C331.6,312.8,330.6,315.6,330.9,317z"/>
	</g>
	<path class="st1" d="M294.2,287.8c-0.2,1.2-0.4,2.4,0,3.5c0.3,1.1,1.3,2.2,2.5,2.2s2.2-1.1,2.5-2.3s0.1-2.4-0.2-3.6
		c-1.6-0.9-3.7-0.8-5.2,0.2"/>
	<path class="st1" d="M287.6,271.8c-0.5,0.7,0.2,1.7,1,1.8s1.6-0.5,1.9-1.2s0.4-1.6,0.4-2.4c-0.8-0.2-1.6-0.4-2.4-0.1
		c-0.8,0.2-1.5,1-1.3,1.8"/>
	<path class="st1" d="M195.8,131.8c0.1,1.8,2.3,3.1,3.9,2.2c1.6-0.9,1.7-3.4,0.2-4.4s-3.8,0.1-4.1,1.8"/>
	<path class="st1" d="M148.5,304.9c-2.1-1.8-5.8-1-7,1.5c-0.2,0.4-0.3,0.8-0.1,1.1c0.1,0.4,0.5,0.6,0.9,0.7c1.5,0.8,3.3,1.3,5,0.8
		c1.6-0.5,2.9-2.3,2.3-4c-0.3,0-0.6-0.1-0.9-0.1"/>
	<path class="st8" d="M313.1,153.9c-0.9,1.8-1.6,4-0.5,5.6c0.9,1.2,2.7,1.7,4,1s2-2.5,1.4-3.9c-1.9-0.6-3.6-1.7-5-3.1"/>
	<path class="st1" d="M192.3,116.7c-0.8,1.2-0.5,3,0.5,4s2.7,1.3,4,0.7c-0.1-1.8-0.9-3.5-2.3-4.6c-0.9-0.7-2.5-1-2.9,0.1"/>
	<path class="st1" d="M161.2,140.2c-1,1-1.5,2.5-1.4,3.9c1,0.7,2.3,1,3.6,0.8c0-1.4,0-2.8,0-4.2c-0.8-0.2-1.7-0.3-2.5-0.5"/>
	<path class="st1" d="M259,350.4c-1.9,1.1-3.4,3-4.1,5.1c-0.1,0.4-0.2,0.9,0,1.3s0.8,0.6,1.3,0.6c1.3,0.2,2.6,0.2,3.9,0
		c0.9-1.9,1.3-4,1.1-6.1c-0.8-0.1-1.5-0.3-2.1-0.8"/>
	<path class="st1" d="M146.2,403.2c1.4,0.8,3.2,1.1,4.8,0.7c0.5-1,0.7-2.2,0.2-3.2s-1.9-1.5-2.8-0.9c-0.4,0.3-0.6,0.7-0.9,1
		c-0.4,0.3-0.9,0.5-1.3,0.8s-0.9,0.7-0.8,1.2c0.1,0.5,0.9,0.8,1.1,0.4"/>
	<path class="st1" d="M146.9,418.4c0.8-1.5,1.6-2.9,2.5-4.3c0.2-0.4,0.6-0.8,1-0.6c0.2,0.1,0.3,0.4,0.5,0.6c0.8,1.3,2.6,1.5,4.2,1.8
		c1.5,0.3,3.3,1.5,2.8,3c-3.3,0-6.6,0-9.9,0c-0.5,0-1.2-0.4-0.8-0.8"/>
	<path class="st1" d="M265.6,401.8c-0.5,1.1-0.8,2.3-0.8,3.5c1.4,0.9,3.1,1.3,4.8,1.2c0.3-1.2,0.3-2.4,0-3.6
		c-0.2-1.1-0.8-2.2-1.8-2.6s-2.4,0.7-1.9,1.7"/>
	<path class="st1" d="M273.6,414.9c0.2,1.3,1.6,2.4,2.9,2.1c-0.5-1.1-0.9-2.2-1.4-3.3c-0.2-0.4-0.3-0.8-0.6-1
		c-0.7-0.6-1.9-0.4-2.3,0.4s0.2,2,1.1,2.1"/>
	<path class="st9" d="M352.6,189.3c-1.5,2.2-2.8,5.1-1.3,7.3c0.3,0.4,0.7,0.8,1,1.2c0.8,1.3,0.3,3,0.3,4.5s1.2,3.4,2.7,2.9
		c1.2-6.1,1.8-12.4,1.8-18.7c0-0.8,0-2.3-0.6-3c-0.4-0.5-1.1-0.4-1.5,0.1c-0.2,0.3-0.1,1-0.2,1.3c-0.1,0.5-0.4,1.1-0.6,1.6
		C353.8,187.5,353.2,188.4,352.6,189.3z"/>
	<path class="st9" d="M324.5,279.1c-0.6,0.4-1.3,0.6-2,0.7c0.4,1.5,0.9,3,1.3,4.6c0.2,0.7,0.4,1.5,0.4,2.2c0,1.7-1.4,3.3-3,3.6
		c-1.6-3.1-2-6.6-2-10c0-2.5,0.6-6.2,3.9-4.5C324.4,276.4,326.3,277.7,324.5,279.1z"/>
	<path class="st9" d="M333.1,293.2c-0.4,2.5,1.4,5,3.8,5.6c0.4-1.2,0.6-2.4,0.6-3.6c0-1,0-1.9-0.5-2.8s-1.4-1.5-2.3-1.4
		s-1.7,1.2-1.4,2.1"/>
	<path class="st9" d="M340.8,216.5c-1.2,1.6-2,3.6-2,5.6c0,0.6,0.1,1.2,0.4,1.6c0.4,0.5,1.1,0.7,1.5,0.3c0.6-1.4,1.2-2.9,1.8-4.3
		c0.2-0.5,0.4-1,0.4-1.5c-0.1-0.9-1.2-1.6-2.1-1.2"/>
	<path class="st9" d="M338.5,404.7c0.3,1.1,0,2.4,0,3.5c0.1,1.2,1,2.6,2.1,2.3c0.5-0.1,0.9-0.6,1.2-1.1c0.7-1,1.3-2.1,1.4-3.3
		s-0.6-2.5-1.7-2.9s-2.6,0.6-2.4,1.8"/>
	<path class="st9" d="M348.7,408.5c0.3-0.5,0.5-1,1-1.4c1.2-0.8,2.9,0.2,4.3,0c1.3-0.1,2.5-1.1,3.7-0.7c1.1,0.3,1.6,1.8,1,2.7
		c-0.3,0.5-1.6,1.1-2.2,1.4c-0.8,0.5-1.5,1-2.3,1.5c-1.5,1-3.1,1.9-4.7,2.8c-1.3,0.8-3,2.2-4.5,2.5c-1.8,0.4,0.2-2.4,0.6-3.1
		C346.7,412.4,347.7,410.5,348.7,408.5z"/>
	<path class="st9" d="M213.6,373.7c1.2-1,2.6-2.2,4.1-1.8c0.7,0.2,1.2,0.7,1.9,1c2.2,1.2,4.9,0.8,7.4,0.5c1-0.1,1.9-0.2,2.9,0
		c0.8,0.2,1.5,0.7,2.2,1c2.1,1,4.6,1,6.9,1.5s4.8,1.5,5.7,3.7c-0.1-0.2-3.4-0.1-3.8-0.1c-1.3,0-2.6-0.1-3.9-0.2
		c-2.6-0.1-5.2-0.3-7.8-0.5c-5.2-0.4-10.4-0.8-15.6-1.4c-0.7-0.1-1.5-0.2-2.2-0.2c-0.3,0-0.8,0-1.1-0.1c-0.4-0.2-0.3-0.1-0.1-0.4
		c0.4-0.6,1.2-1,1.7-1.5C212.5,374.7,213.1,374.2,213.6,373.7z"/>
	<path class="st9" d="M169.3,366.7c-0.7-0.4-1.7-0.2-2.1,0.5c-0.4,0.7-0.2,1.7,0.5,2.1s1.6,0.3,2.3-0.1s1.3-0.9,2-1.3
		c0.4-0.2,1-0.6,0.8-1c-0.1-0.2-0.3-0.4-0.6-0.4c-1.1-0.4-2.2-0.4-3.3,0"/>
	<path class="st4" d="M181.2,343.2c0.1-0.4,0.3-0.8,0.7-1c0.6-0.3,1.2,0.2,1.8,0.3c1.6,0.4,2.9-1.4,3.6-2.9s2.1-3.2,3.7-2.8
		c0.9,0.3,1.5,1.2,1.9,2c1.4,2.6,2.5,5.4,4.8,7.2c1.7,1.3,3.9,1.9,5.7,3.1s3.3,3.5,2.4,5.4c-0.1,0.2-2.4,0.2-2.7,0.2
		c-1.5,0.1-2.9,0.2-4.4,0.3c-2.9,0.2-5.9,0.3-8.9,0.4c-2.3,0.1-4.6,0.2-6.8-0.1c-1.9-0.3-4.1,0.5-6.1,0.5c-0.6,0-0.4-2.3-0.2-2.6
		c0.2-0.3,0.5-0.5,0.7-0.7c0.4-0.5,0.6-1.1,0.8-1.7C179.3,348.4,180.2,345.8,181.2,343.2z"/>
</g>
<g id="Color_Skull_2.0">
	<path class="st10" d="M196.2,267.4c1.7-6-1.5-11.4-6.1-16.8c-7.1-8.3-13.6-17-15.1-28.6c-3.3-26.2,11.3-51.8,35.4-61.1
		c25.3-9.8,53.3-1,68.4,21.4c6.7,9.9,10.1,20.8,10.1,32.8c0,11-3.5,20.5-11.2,28.4c-3.7,3.7-6.8,8-10.7,11.5
		c-4.1,3.6-5.6,7.7-5.3,12.9c0.2,4.1-0.3,8.2-0.2,12.3c0,0.3,0,0.6,0,0.8c0,0.4-0.1,0.7-0.1,1c0,0.2,0,2.1,0.1,2.1
		c-0.7,0-1.4,0-2,0.1c-0.8,0-1.6,0.1-2.4,0c-1.5-0.2-2.9-0.2-4.4-0.3c-0.3,0-0.6,0-1-0.1c-0.6,0-1.1-0.1-1.7-0.1
		c-0.2,0-0.4-0.1-0.7-0.1s-0.6,0-0.9,0c-1.1,0-2.3,0-3.5,0c0-0.6-0.1-1.2-0.1-1.8c-0.1-1.2-0.1-2.4-0.1-3.6c0-2.3-0.1-4.6-0.1-6.9
		c0-0.1,0-0.2-0.1-0.3c-0.1-0.1-0.2-0.1-0.3-0.1c-2.4-0.2-4.8,0-7.2,0.3c0,1.4,0,2.8-0.1,4.3c0,0.4,0,0.8,0,1.2c0,0.6,0,1.1-0.1,1.7
		c0,0.2-0.1,0.3-0.1,0.4c-0.1,0.2-0.1,0.5-0.1,0.7c-0.1,1.1-0.1,2.3,0.1,3.4c-0.7,0-1.4,0-2.2,0c-0.9,0-1.9,0-2.8-0.2
		c-1.1-0.2-2.3-0.1-3.4-0.2c-0.4,0-0.9,0-1.3-0.1c-1.1,0-2.2-0.2-3.3-0.2c-0.6,0-1.1,0-1.7,0c-0.1,0-1.6,0.1-1.7,0.2
		c0-1,0.1-2.1,0.1-3.1c0-0.5,0-1,0.1-1.6c0-0.5,0.1-1,0.1-1.5c0-2,0-4-0.1-6.1c-2.6-0.5-5.3-0.7-8-0.7c-0.1,2.3-0.2,4.6-0.4,6.9
		c-0.1,1.1-0.1,2.3-0.2,3.5c0,0.3,0,0.6,0,0.9c0,0.2,0,0.4-0.1,0.5c-0.1,0.2-0.6,0.2-0.8,0.2c-1.4,0.1-2.9,0-4.3-0.1
		c-0.6,0-1.3-0.1-1.9-0.1c-1.6-0.1-3.2-0.1-4.8-0.2c-0.5,0-1.1-0.1-1.6-0.1c-0.3-0.1-0.6-0.2-1-0.2c-0.1,0-1.7-0.1-1.7-0.1
		c0-0.1,0-0.2,0-0.3c0-1.1,0-2.3,0-3.5c0-0.5-0.1-1,0.1-1.5c0.1-0.2,0-0.4,0-0.6c0-0.5,0-1,0-1.5c0-1.3,0.1-2.5,0.1-3.8
		C196.1,269.4,196.1,269,196.2,267.4z M228.6,249c0.9,0.1,1.8,0.1,2.7,0.2c1.4,0.1,2.9,0.2,4.3,0.4c-0.5-1.5-1-3-1.6-4.4
		c-0.2-0.6-0.5-1.1-0.7-1.6s-0.5-0.9-0.7-1.4c-0.1-0.1-0.1-0.3-0.1-0.4c-0.1-0.5-0.3-0.9-0.4-1.4c-0.5-1.2-0.9-2.5-1.4-3.8
		c-0.2-0.6-0.4-1.1-0.7-1.7c0,0.1-0.2,0.4-0.2,0.4c-0.1,0.2-0.3,0.4-0.4,0.6c-1.3,1.8-2.5,3.6-3.6,5.5c-0.6,0.9-1.1,1.9-1.7,2.9
		c-0.3,0.5-0.5,1-0.8,1.4c-0.1,0.2-0.2,0.4-0.3,0.6c-0.1,0.4-0.5,0.8-0.8,1.2c-0.4,0.5-0.8,1-1.1,1.6c0,0,0.3,0,0.4,0
		c0.1,0,0.3,0,0.4,0c0.3,0,0.6,0,0.9,0c0.6,0,1.1,0,1.7-0.1c0.2,0,0.5-0.1,0.7-0.1c0.3,0,0.6,0,0.9,0.1c0.6,0,1.1,0.1,1.7,0.1
		C228.1,248.9,228.4,248.9,228.6,249z"/>
	<path class="st11" d="M193.9,264.6c1.6-5.9-1.5-11.2-6-16.5c-7-8.2-13.4-16.7-14.8-28c-3.2-25.7,11.1-50.7,34.7-59.8
		c24.8-9.6,52.2-1,67.1,21c6.5,9.7,9.9,20.4,10,32.1c0,10.8-3.4,20.1-11,27.8c-3.6,3.7-6.6,7.9-10.5,11.2c-4,3.5-5.5,7.5-5.2,12.7
		c0.2,4-0.3,8-0.2,12c0,0.3,0,0.5,0,0.8s-0.1,0.7-0.1,1c0,0.2,0,2,0.1,2c-0.7,0-1.3,0-2,0c-0.8,0-1.6,0.1-2.4,0
		c-1.4-0.2-2.9-0.2-4.3-0.3c-0.3,0-0.6,0-0.9-0.1c-0.6,0-1.1-0.1-1.7-0.1c-0.2,0-0.4-0.1-0.6-0.1c-0.3,0-0.6,0-0.9,0
		c-1.1,0-2.3,0-3.4,0c0-0.6-0.1-1.1-0.1-1.7c-0.1-1.2-0.1-2.3-0.1-3.5c0-2.3-0.1-4.5-0.1-6.8c0-0.1,0-0.2-0.1-0.3
		c-0.1-0.1-0.2-0.1-0.3-0.1c-2.3-0.2-4.7,0-7,0.3c0,1.4,0,2.8-0.1,4.2c0,0.4,0,0.8,0,1.2c0,0.5,0,1.1-0.1,1.7c0,0.2-0.1,0.3-0.1,0.4
		c-0.1,0.2-0.1,0.5-0.1,0.7c-0.1,1.1-0.1,2.2,0.1,3.3c-0.7,0-1.4,0-2.1,0c-0.9,0-1.8,0-2.7-0.2c-1.1-0.2-2.2-0.1-3.4-0.2
		c-0.4,0-0.9,0-1.3-0.1c-1.1,0-2.1-0.2-3.2-0.2c-0.6,0-1.1,0-1.7,0c-0.1,0-1.6,0.1-1.6,0.2c0-1,0.1-2,0.1-3.1c0-0.5,0-1,0.1-1.5
		c0-0.5,0.1-1,0.1-1.5c0-2,0-4-0.1-6c-2.6-0.4-5.2-0.7-7.8-0.7c-0.1,2.3-0.2,4.5-0.3,6.8c-0.1,1.1-0.1,2.3-0.2,3.4
		c0,0.3,0,0.6,0,0.9c0,0.2,0,0.4-0.1,0.5c-0.1,0.2-0.6,0.2-0.8,0.2c-1.4,0.1-2.8,0-4.2-0.1c-0.6,0-1.3-0.1-1.9-0.1
		c-1.6-0.1-3.2-0.1-4.7-0.2c-0.5,0-1-0.1-1.6-0.1c-0.3,0-0.6-0.2-1-0.2c-0.1,0-1.6-0.1-1.6-0.1c0-0.1,0-0.2,0-0.3c0-1.1,0-2.3,0-3.4
		c0-0.5-0.1-1,0.1-1.4c0.1-0.2,0-0.4,0-0.6c0-0.5,0-1,0-1.5c0-1.2,0.1-2.5,0.1-3.7C193.8,266.5,193.8,266.2,193.9,264.6z
		 M225.7,246.5c0.9,0.1,1.8,0.1,2.6,0.2c1.4,0.1,2.8,0.2,4.2,0.4c-0.5-1.4-0.9-2.9-1.5-4.4c-0.2-0.6-0.5-1.1-0.7-1.6
		s-0.5-0.9-0.7-1.4c-0.1-0.1-0.1-0.3-0.1-0.4c-0.1-0.5-0.3-0.9-0.4-1.4c-0.5-1.2-0.9-2.5-1.4-3.7c-0.2-0.6-0.4-1.1-0.7-1.7
		c0,0.1-0.2,0.3-0.2,0.4c-0.1,0.2-0.3,0.4-0.4,0.6c-1.2,1.8-2.4,3.6-3.5,5.4c-0.6,0.9-1.1,1.9-1.6,2.8c-0.3,0.5-0.5,0.9-0.8,1.4
		c-0.1,0.2-0.2,0.4-0.3,0.6c-0.1,0.4-0.5,0.8-0.8,1.1c-0.4,0.5-0.7,1-1.1,1.5c0,0,0.3,0,0.4,0c0.1,0,0.3,0,0.4,0c0.3,0,0.6,0,0.9,0
		c0.6,0,1.1,0,1.7-0.1c0.2,0,0.5-0.1,0.7-0.1c0.3,0,0.6,0,0.9,0.1c0.6,0,1.1,0.1,1.7,0.1C225.2,246.5,225.5,246.5,225.7,246.5z"/>
</g>
<g id="Skull_2.0">
	<path d="M264.7,165.8c-18.3-14.6-39-17-60.4-7.4c-34.3,15.4-43.5,61-22.9,83.7c2.9,3.2,5.1,6.9,8.1,10.1c2.7,2.9,3.6,6,3.4,9.9
		c-0.3,5.4-0.8,10.9,0,16.8l17.6,0.8l0.3-12.5l6.8,0.2v0.1c0,0.1,0,0.2,0,0.3c0,0.1,0,0.3,0,0.4c0,0.2,0,0.4,0,0.5
		c0,0.2,0,0.4,0,0.6s0,0.5,0,0.7c0,0.3,0,0.5,0,0.8s0,0.6,0,0.9s0,0.6,0,0.9s0,0.6,0,0.9s0,0.6,0,0.9s0,0.6,0,0.9s0,0.5,0,0.8
		c0,0.2,0,0.5,0,0.8c0,0.2,0,0.5,0,0.7s0,0.4,0,0.6c0,0.1,0,0.3,0,0.5c0,0.1,0,0.2,0,0.3c0,0.3-0.1,0.6-0.1,1c0.1,0,0.1,0,0.2,0h0.1
		l0,0h0.1c0.1,0,0.3,0,0.4,0c0.3,0,0.6,0,0.9,0c1.2,0,2.3,0.1,3.5,0.1c1.4,0.1,2.9,0.1,4.4,0.2c1.3,0.1,2.7,0.1,4,0.2
		c0.8,0,1.6,0.1,2.5,0.1c0.1,0,0.2,0,0.3,0c0.2,0,0.3,0,0.5-0.1c0-0.3,0.1-0.7,0.1-1v-0.1c0-0.1,0-0.3,0.1-0.4
		c0-0.3,0.1-0.6,0.1-0.8c0-0.2,0-0.4,0-0.6s0-0.4,0-0.5c0-0.2,0-0.3,0-0.5s0-0.4,0-0.6s0-0.5,0-0.8s0-0.6,0-0.8c0-0.3,0-0.6,0-0.9
		s0-0.6,0-0.9s0-0.6,0-0.9s0-0.6,0-0.9c0-0.2,0-0.5,0-0.8c0-0.2,0-0.4,0-0.6s0-0.3,0-0.5c0-0.1,0-0.2,0-0.3v-0.1l6.8,0.2l-0.3,12.4
		c1.1,0,18.5,0.8,18.5,0.8c0-3.6,0-7.2,0-10.9c0-1.7,0-3.4,0-5.1c0-0.5,0-1-0.1-1.4c0-1.2,0-2.4,0.2-3.5c0.2-1.2,0.6-2.5,1.4-3.5
		c0.2-0.2,0.4-0.5,0.6-0.7c0.3-0.3,0.5-0.5,0.8-0.8c0.5-0.5,1-1.1,1.5-1.6c1-1.1,2-2.1,3-3.2c1-1.1,1.9-2.1,2.9-3.2
		c1-1.1,1.9-2.1,2.8-3.2c0.9-1.1,1.9-2.1,2.8-3.2c0.9-1.1,1.8-2.1,2.7-3.2c0.5-0.5,0.9-1.1,1.4-1.6c3.4-4.2,5.8-8.9,6.6-14.3
		C289.9,199.4,282.8,180.2,264.7,165.8z M208,263.9c-0.2,0-0.4,0-0.7,0c-0.1,0-0.2,0-0.3,0c0,0.5,0,1,0,1.5c0,1-0.1,2.1-0.1,3.1
		c-0.1,2.1-0.2,4.3-0.2,6.4l-8.9-0.4c0-0.9,0.1-1.8,0.1-2.7c0.1-2,0.2-4,0.2-6.1c0.1-2.1,0.2-4.3,0.2-6.4c0-0.8,0.1-1.6,0.1-2.4
		c0-0.4-0.1-0.8-0.1-1.1c0-0.4-0.1-0.8-0.1-1.2c0-0.2-0.1-0.3-0.1-0.5c-0.1-0.1-0.1-0.3-0.2-0.4c-0.1-0.3-0.2-0.6-0.4-0.9
		c-0.3-0.6-0.6-1.2-0.9-1.8c-0.3-0.6-0.7-1.1-1.1-1.7c-0.2-0.3-0.5-0.7-0.8-1c-4.2-5.1-8.2-10.4-12.2-15.7
		c-5.7-7.8-6.7-16.9-5.6-26.1c2.5-20.7,13.3-35.7,32.7-43.4c19.1-7.6,37.2-4.4,52.4,9.3c15.5,13.9,21.2,31.6,16.2,52.3
		c-1.2,5.3-4.6,9.1-8,12.9c-4.2,4.7-8.5,9.3-12.8,13.9c-0.2,0.2-0.4,0.3-0.5,0.5c0,0.1,0,0.1-0.1,0.2c-0.1,0.1-0.1,0.2-0.2,0.3
		c-0.1,0.2-0.3,0.4-0.4,0.6c-0.1,0.1-0.1,0.2-0.2,0.3c0,0.1-0.1,0.1-0.1,0.2c-0.2,0.4-0.4,0.8-0.6,1.2c-0.4,0.9-0.6,1.9-0.8,2.9
		c-0.1,0.5-0.1,1-0.1,1.5c0,0.2,0,0.5,0,0.7c0,0.1,0,0.2,0,0.4c0,0.2,0,0.4,0,0.6c0,0.3,0,0.7,0,1c0,0.6,0,1.1,0,1.7
		c0,1.1,0,2.3,0,3.4s0,2.3,0,3.4s0,2.3,0,3.4c0,0.6,0,1.1,0,1.7c0,0.3,0,0.6,0,0.9c0,0.1,0,0.2,0,0.3v0.1c-0.1,0.1-0.2,0-0.2,0
		c-0.1,0-0.3,0-0.4,0c-0.5,0-1.1,0-1.6-0.1c-2.2-0.1-4.4-0.2-6.6-0.3c0.1-1.9,0.1-3.8,0.2-5.6c0-0.6,0.1-1.3,0.1-1.9
		c0-0.8,0-1.5,0-2.3c0-0.3,0-0.5,0-0.8l-1.3-0.2c-0.5-0.1-1-0.2-1.5-0.2c-1.1-0.1-2.1-0.2-3.2-0.3c-1.1-0.1-2.2-0.1-3.3-0.1
		s-2.2,0-3.3,0c-0.9,0-1.9,0-2.8,0l-0.4,11.5l-8.9-0.4l0.4-11.3c-0.5-0.1-1.1-0.2-1.6-0.3c-1.1-0.2-2.1-0.3-3.2-0.4
		c-1.1-0.1-2.2-0.1-3.3-0.2c-1.1,0-2.2,0-3.3-0.1c-0.5,0-1.1,0-1.6,0"/>
	<path d="M230.1,230.5c-0.1-0.1-0.1-0.3-0.2-0.4c-0.2-0.3-0.3-0.7-0.5-1c-0.1-0.2-0.2-0.4-0.3-0.6c-0.1-0.2-0.2-0.3-0.3-0.5
		c-0.4-0.6-0.7-1.3-1.1-1.9c-0.2-0.3-0.3-0.6-0.5-1c0-0.1-0.1-0.2-0.1-0.2c0-0.1-0.1-0.2-0.1-0.2c-0.1,0-0.1,0-0.1,0.1
		s-0.1,0.1-0.1,0.2c0,0.1-0.1,0.2-0.1,0.3c-0.1,0.2-0.2,0.4-0.3,0.5c-0.4,0.6-0.8,1.3-1.1,1.9c-0.4,0.6-0.8,1.3-1.1,1.9
		c-0.5,0.8-0.9,1.6-1.4,2.5c-0.2,0.3-0.3,0.6-0.5,0.8c-0.2,0.3-0.4,0.6-0.5,0.9c-0.2,0.3-0.4,0.6-0.6,1c-0.2,0.3-0.4,0.7-0.6,1
		c-0.2,0.4-0.4,0.7-0.6,1.1c-0.2,0.4-0.4,0.7-0.6,1.1c-0.2,0.4-0.4,0.8-0.6,1.1s-0.4,0.8-0.6,1.1c-0.2,0.4-0.4,0.7-0.6,1.1
		c-0.2,0.4-0.4,0.7-0.6,1.1c-0.2,0.4-0.4,0.7-0.6,1.1c-0.2,0.3-0.4,0.7-0.6,1c-0.2,0.3-0.4,0.6-0.5,0.9c-0.2,0.3-0.3,0.6-0.5,0.9
		c-0.1,0.3-0.3,0.5-0.4,0.8c-0.1,0.2-0.3,0.4-0.4,0.7c-0.1,0.2-0.2,0.4-0.3,0.6c-0.1,0.1-0.2,0.3-0.2,0.4c-0.1,0.1-0.1,0.2-0.2,0.3
		l-0.1,0.1h0.1c0.6,0,1.1,0,1.7,0.1c0.1,0,0.2,0,0.4,0c0.1,0,0.3,0,0.4,0c0.1,0,0.1,0,0.2,0c0.1,0,0.2,0,0.3,0s0.2,0,0.4,0
		c0.1,0,0.3,0,0.4,0c0.2,0,0.4,0,0.5,0c0.2,0,0.4,0,0.6,0c0.2,0,0.4,0,0.6,0c0.2,0,0.5,0,0.7,0s0.5,0,0.7,0c0.3,0,0.5,0,0.8,0
		s0.5,0,0.8,0s0.6,0,0.8,0c0.3,0,0.6,0,0.9,0s0.6,0,0.9,0s0.6,0,0.9,0s0.6,0,0.9,0c0.3,0,0.6,0,0.9,0c0.3,0,0.6,0,0.9,0
		c0.3,0,0.6,0,0.9,0c0.3,0,0.6,0,0.9,0c0.3,0,0.6,0,0.8,0c0.3,0,0.5,0,0.8,0s0.5,0,0.8,0c0.2,0,0.5,0,0.7,0s0.5,0,0.7,0s0.4,0,0.6,0
		c0.2,0,0.4,0,0.6,0c0.2,0,0.3,0,0.5,0l3.6,0.1c0.1,0,0.1,0,0.1,0c-0.2-0.6-0.5-1.1-0.7-1.7c-0.6-1.4-1.2-2.7-1.8-4.1
		c-0.8-1.7-1.5-3.5-2.3-5.2c-0.7-1.6-1.4-3.3-2.1-4.9c-0.5-1.1-0.9-2.2-1.4-3.2C230.4,230.8,230.3,230.7,230.1,230.5
		C230.1,230.6,230.1,230.6,230.1,230.5z M219.9,245.5c2.4-4.1,4.6-7.8,7.1-12.1c1.7,4.6,3.1,8.2,4.8,12.6
		C227.7,245.9,224.3,245.7,219.9,245.5z"/>
</g>
<g id="Stone_2.0">
	<path class="st12" d="M374.9,359.5c-5.1-4.1-8.9-9.4-13.7-14c0.3-5.1,0.9-9.7,0.9-14.3c-0.1-12.6,0.7-25.2-0.3-37.8
		c-0.6-7.7,1.5-15.1,3.6-22.5c4.1-14.1,1.8-28.6-0.3-42.5c-1.5-9.9-1.7-19.5-1-29.3c0.7-8.6,0.8-17.2,1.5-25.8
		c0.9-12.2,2-24.2-1.1-36.5c-2.7-10.4-3.3-21.3-7.5-31.3c-3.3-7.8-7.4-15-17.6-15.2c-1.4-9.2-6.4-15.8-14.2-20.5
		c-6-3.6-11.9-7-19.2-7.7c-9.3-0.9-17.9-5-27.1-6.5c-16-2.6-31.8-1.2-47.6,1.2c-21.2,3.3-42.1,7.4-58.4,23.6
		c-7.7,7.7-15.6,15-18.9,25.7c-0.9,3-2.9,5.6-4.4,8.3c-6.9,11.7-11.1,23.8-4.3,37.1c0.6,1.1,1.2,2.4,0.5,4.2
		c-5.2,0.4-5.6,4.1-5.5,8.5c0.3,13.3,0.4,26.6,0.5,39.8c0.1,12,0.6,24-1.6,35.8c-2.4,12.5-2.2,25.1-2.3,37.7c0,2.8,0.1,5.7-0.6,8.4
		c-2.1,9.4-1.6,18.8-1.1,28.2c0.7,12.8,0.1,25.5,1.6,38.6c-7.4,5.8-14.7,11.6-22.1,17.2c-2.6,1.9-4.1,4-4.1,7.4
		c0.2,14.1,0.2,28.2,0.3,42.3c0,3.8,1.8,5.9,5.7,6.2c18.1,1.1,36.1,2.2,54.1,3.4c23.4,1.5,46.7,2.9,70.1,4.4
		c26.5,1.7,53,3.5,79.5,5.2c3.6,0.2,6.9-0.6,10-2.5c13.9-8.4,27.9-16.8,41.9-25c3.4-2,4.7-4.6,4.7-8.5c0.1-12.3,0.4-24.6,0.7-36.8
		C377.6,363.5,377,361.2,374.9,359.5z M144.8,296.3c1.2-8.4,2.3-16.7,2.1-25.2c-0.3-11,1-21.8,2.6-32.6c2.2-15,1.4-30.1,1.1-45.2
		c-0.1-5.5-0.2-11-0.1-16.4c0-1.4,0.1-2.8,0.2-4.2c0.1-0.8,0.2-1.6,0.2-2.5c0-0.4,0.3-0.7,0.6-1c0.4-0.5,0.9-1,1.3-1.5
		c0.1-0.1,0.2-0.2,0.4-0.3c0.1,0,0.3,0,0.4,0.1c1.8,0.8,3.6,1.6,5.3,2.6c0.2,0.1,0.4,0.2,0.5,0.4s0.1,0.4,0,0.6
		c-0.4,2.4-2.7,4.1-4.1,6.1c-0.2,0.2-0.4,0.5-0.3,0.9c0,0.2,0.2,0.4,0.3,0.6c0.7,0.8,1.4,1.7,2.1,2.5s1.5,1.6,2.2,2.4
		c0.4,0.4,0.5,1.1,0.5,1.7c0.1,0.6-0.1,1.2-0.4,1.8c-0.8,2.1-1.9,4.1-2.6,6.2c-0.1,0.2-0.1,0.5-0.2,0.8c0,0.3,0.1,0.6,0.1,0.9
		c0.2,0.8,0.4,1.5,0.7,2.2c0.1,0.3,0.2,0.5,0.2,0.8c0,0.2-0.1,0.4-0.1,0.7c-0.2,0.9-0.5,1.8-0.7,2.7c0-0.1,0.2-0.3,0.3-0.4
		c0.1-0.2,0.3-0.4,0.4-0.7c0.2-0.3,0.5-0.6,0.6-0.9c0.1-0.2,0.1-0.4,0.1-0.6c0.1-0.4,0.2-0.8,0.3-1.2c0.1-0.3,0.1-0.6,0.1-0.8
		c-0.1-0.3-0.2-0.5-0.2-0.8c-0.2-0.6-0.2-1.3,0-1.9c0.3-1.2,1-2.3,1.7-3.4c0,0.1,0.7,0.4,0.8,0.4c0.2,0.1,0.3,0.1,0.4,0.3
		c0.1,0.2,0.3,0.4,0.4,0.7c0.3,0.4,0.5,0.9,0.8,1.4c0.5,0.9,0.9,1.9,1.3,2.8c0.1,0.2,0.1,0.4,0.2,0.5c0.4,1.2,0.8,2.5,0.5,3.8
		c-0.4,2-2,3.6-2.4,5.6c-0.3,1.2-0.1,2.5,0.5,3.6c-0.1-1-0.2-2,0.2-2.9c0.2-0.5,0.4-0.9,0.7-1.3c0.8-1.5,1.5-3.1,2.2-4.6
		c0.1-0.4,0.3-0.7,0.4-1.1s0-0.8,0-1.1c-0.1-0.8-0.2-1.7-0.2-2.5c0-0.3-0.1-0.6-0.2-0.9c-0.1-0.2-0.3-0.5-0.4-0.7
		c-0.5-0.6-0.9-1.2-1.3-1.9c-0.4-0.6-0.7-1.2-0.9-1.9c-0.3-0.9-0.3-2-0.3-3c0-0.5,0-1-0.1-1.5c-0.1-0.4-0.1-0.8-0.3-1.1
		c-0.1-0.2-0.2-0.6-0.3-0.8c-0.2-0.6-0.4-1.3-0.6-1.9c-0.1-0.3-0.2-0.5-0.3-0.8c-0.4-0.8-1.2-1.4-1.8-2s-0.3-1.6,0.1-2.2
		c0.3-0.4,0.6-0.8,0.9-1.2c0.7-0.8,1.4-1.7,2-2.6c0.3-0.4,0.6-0.8,0.9-1.2c0.3-0.5,0.6-1,0.8-1.5c0.1-0.6,0.1-1.2-0.2-1.6
		c-0.3-0.4-0.7-0.6-1-1c-0.6-0.6-0.8-1.4-1.1-2.1c-0.3-0.9-0.8-1.7-1.3-2.4c-0.3-0.4-0.6-0.7-0.9-1.1c-0.3-0.3-0.6-0.6-0.9-0.9
		c-0.2-0.2-0.3-0.4-0.3-0.7c-0.1-0.4-0.3-0.7-0.4-1.1c-0.4-0.9-0.8-1.9-1.1-2.9c-0.7-1.9-1.3-3.9-1.9-5.9c-0.6-2-1.2-4-1.9-6
		c-0.4-1.1-0.8-2.1-1.2-3.2c0.7-9.4,2.5-18.4,8.7-26c1.4-1.8,2.3-4.1,3-6.2c2.8-9.2,9-15.8,16.1-21.7c4.4-3.7,8.4-8.1,13.5-10.6
		c0.1-0.1,0.5,0.2,0.6,0.2c0.2,0.1,0.4,0.2,0.6,0.3c0.4,0.3,0.7,0.6,0.9,1c0.4,0.5,0.5,1.2,0.8,1.7c0.2,0.5,0.4,1.1,0.6,1.6
		c0.4,1.1,0.8,2.1,1.1,3.2c0.1,0.2,0.1,0.3,0.2,0.4c0,0.1,0.1,0.2,0.1,0.2s0.2,0.1,0.3,0.1c0.4,0.1,0.8,0.3,1.2,0.4
		c0.1,0-0.4,2.7-0.4,2.9c0,0.2,0,0.3,0,0.5c0,0.4-0.1,0.9-0.1,1.3c-0.1,0.9-0.1,1.8-0.2,2.7c0,0.3-0.1,0.7,0,1s0.2,0.5,0.3,0.8
		c0.8,1.6,1.7,3.2,2.6,4.8c-0.1-0.2-0.1-0.6-0.2-0.8c-0.1-0.3-0.1-0.5-0.2-0.8c-0.1-0.5-0.2-1.1-0.3-1.6c-0.1-0.7-0.2-1.4-0.3-2.2
		c0-0.3-0.1-0.5-0.1-0.8c0-0.2-0.1-0.3,0-0.5c0.1-0.3,0.2-0.6,0.4-0.8c0.1-0.3,0.3-0.6,0.4-0.9c0,0,0.6,0.1,0.7,0.2
		c0.2,0.1,0.4,0.2,0.6,0.2c0.6,0.1,1.1,0.3,1.6,0.6c0.2,0.1,0.4,0.2,0.6,0.4c0.1,0.2,0.2,0.4,0.3,0.6c0.5,1.3,1,2.7,1.6,4
		c0.1,0.2,0.2,0.5,0.4,0.7s0.4,0.3,0.6,0.4c1.3,0.8,2.7,1.6,4,2.4c-0.6-1-1.5-1.8-2.3-2.8c-1.2-1.5-2-3.3-2.3-5.2
		c-0.1-0.4-0.1-0.8-0.1-1.2c-1-0.7-2-1.3-3-2c-0.4-0.3-0.9-0.5-1.2-0.8c-0.1-0.1-0.2-0.3-0.2-0.5c-0.1-0.3-0.2-0.5-0.3-0.8
		c-0.4-1.1-0.7-2.2-1.1-3.2c-0.1-0.3-0.2-0.7-0.5-0.8c-0.1-0.1-0.3-0.1-0.5-0.2c-0.3-0.2-0.4-0.6-0.5-0.9c-0.1-0.4-0.2-0.9-0.3-1.3
		c-0.1-0.3-0.2-0.7-0.2-1.1c0-0.1,0-0.3,0-0.4c-0.1-0.7-0.3-1.4-0.3-2.1c-0.1-1.8,0.3-3.6,1.3-5.2c30.5-4.5,61.3-8.2,88.1,15.3V89
		c0,0.2,0,0.3,0,0.5c0,0.3,0,0.7,0,1c0,0.7,0,1.5,0,2.2c0,1.4,0,2.8,0,4.2c0,0.2,0,0.4,0,0.6c0,1.7,0,3.5,0,5.2c0,0.4,0,0.9-0.2,1.3
		c-0.1,0.1-0.1,0.2-0.2,0.4c-0.1,0.3-0.2,0.6-0.4,0.8c-0.3,0.5-0.6,1-1,1.6s-0.8,1.3-1,2c0-0.1,0.2-0.2,0.3-0.3
		c0.1-0.1,0.2-0.2,0.3-0.3c0.2-0.2,0.5-0.4,0.7-0.5c0.5-0.3,0.9-0.7,1.3-1.1c0.2-0.2,0.3-0.4,0.5-0.7c0.2-0.3,0.4-0.8,0.6-1.1
		c0.3-0.3,0.5-0.8,0.6-1.3c0.1-0.2,0.2-0.3,0.2-0.5c0.1-0.2,0.1-0.4,0.2-0.7c0.1-0.5,0.2-0.9,0.3-1.4c0.4-2,0.5-4,0.8-6
		c0.1-0.8,0.3-1.5,0.5-2.3c8.3,6.5,16.9,12.2,18.1,23.6c1,9.6,2.7,19,5.4,28.3c0.8,2.7,1.5,5.5,1.5,8.3c0,18.7,0.9,37.3-2.1,55.9
		c-1.6,9.9-1.5,20.2-1.6,30.3c0,10.8-0.6,21.6-1.6,32.3c-1,10.5-1,20.9,1.6,31.1c1.4,5.4,0.5,10.8-0.1,16.3
		c-1.2,10.7-1.7,21.5-2.4,32.3c-0.2,2.6-0.1,5.3-1.2,8.1c-54.4-3-108.7-6-163.3-9.1c0,0-0.2-1.7-0.2-1.8c-0.1-0.7-0.2-1.4-0.3-2.1
		c-0.2-1.4-0.3-2.7-0.4-4.1c-0.1-1.4,0-2.7,0.1-4c0-0.2,0-0.3,0-0.5c0-0.5,0.1-1.1,0.2-1.5c0.1-0.5,0.2-1.1,0.3-1.6
		c0.3-1.2,0.6-2.4,1.1-3.6c0.1-0.2,0.1-0.3,0.2-0.5c0.1-0.1,0.3-0.2,0.5-0.3c2.6-1,5.1-2,7.7-3c0.3-0.1,0.4-0.5,0.6-0.8
		c0.2-0.3,0.4-0.6,0.7-0.9c0.2-0.2,0.5-0.4,0.7-0.6c0.4-0.4,0.6-0.9,0.8-1.4c0.4-0.8,0.8-1.7,1.1-2.5c0.2-0.4,0.4-0.8,0.5-1.1
		c0-0.1,0-0.2,0.1-0.3c0.3-0.5,1-0.9,1.4-1.2c0.9-0.7,1.7-1.5,2.3-2.4c-0.8,0.4-1.4,0.9-2.2,1.4c-0.3,0.2-0.7,0.4-1.1,0.5
		c-0.1,0-0.2,0-0.4,0.1c-0.1,0-0.1,0.1-0.1,0.1c-0.2,0.2-0.4,0.5-0.6,0.8c-0.4,0.6-0.8,1.2-1.2,1.8c-0.5,0.7-1,1.4-1.5,2.2
		s-0.8,1.6-1.6,2c-0.2,0.1-0.5,0.2-0.8,0.3c-2.5,0.8-5.1,1.7-7.6,2.5c-0.5,0.2-1,0.3-1.5,0.7c0-0.3,0-0.7,0-1c0.1-0.5,0-1,0.1-1.4
		c0-0.7,0-1.3,0-2c0-1.4-0.1-2.7-0.1-4.1c-0.1-2.7-0.3-5.4-0.4-8C144.2,306.7,144,301.5,144.8,296.3z M142.6,361.1
		c1.4-1.1,3.2-0.8,4.8-0.7c32.1,1.8,64.2,3.5,96.3,5.3c21,1.2,42,2.4,63.1,3.5c1,0.1,2,0.3,3.1,0.4c2,4,3.6,8.1,4.8,13.1
		c-61.3-4-122.1-7.9-184-11.9C134.8,366.7,138.8,364,142.6,361.1z M317.8,428.1c-4.5,0.7-8.9,0.1-13-0.4c-0.2,0-0.4-0.2-0.5-0.3
		c-0.2-0.1-0.3-0.2-0.5-0.4c-0.3-0.2-0.6-0.5-0.9-0.8c-0.6-0.6-1-1.4-1.6-2c-0.2-0.2-0.5-0.4-0.6-0.6c-0.2-0.4-0.3-0.8-0.4-1.2
		c0-0.1,0-0.2-0.1-0.4c-0.1-0.1-0.2-0.2-0.2-0.4c-0.5-0.6-0.9-1.2-1.2-1.9c-0.1-0.2-0.1-0.5-0.1-0.7c0.1-0.6-0.2-1.2-0.4-1.7
		c-0.1-0.5-0.2-0.9-0.3-1.4c0-0.1-0.1-0.3-0.2-0.4c-0.2-0.3-0.5-0.5-0.8-0.7c-0.7-0.8-1.4-1.5-2.1-2.2c-0.3-0.3-0.6-0.5-0.9-0.7
		c0.2,0.1,0.3,0.4,0.5,0.6c0.1,0.2,0.3,0.4,0.5,0.6c0.3,0.4,0.6,0.8,0.8,1.4c0,0.2,0.2,0.5,0.3,0.7c0.3,0.6,0.5,1.1,0.6,1.7
		c0.2,0.8,0.3,1.6,0.3,2.4c0.1,0.7,0.1,1.5,0.2,2.2c0,0,0.5,0.2,0.6,0.2c0.1,0.1,0.1,0.3,0.1,0.5c0.2,0.5,0.5,1,0.8,1.5
		c0.1,0.2,0.2,0.4,0.3,0.6c0,0.1,0,0.3,0,0.5c0,0.4,0,0.8,0,1.2c0,0.2,0,0.5-0.1,0.7c-0.2,0.3-0.6,0.5-0.5,0.9c-0.4,0-1,0.1-1.4,0
		c-0.1,0-0.2,0-0.3-0.1c-0.7-0.1-1.3-0.1-2-0.1c-1.3-0.1-2.6-0.2-3.9-0.2c-11.3-0.7-22.6-1.5-33.9-2.2c-11.3-0.7-22.6-1.5-33.9-2.2
		c-11.3-0.7-22.6-1.5-33.9-2.2c-11.3-0.7-22.6-1.5-33.9-2.2c-5.7-0.4-11.3-0.7-17-1.1c-2.8-0.2-5.7-0.4-8.5-0.5
		c-1.4-0.1-2.8-0.2-4.2-0.3c-0.3,0-4.1-0.2-4.1-0.3c0-3.1,0-6.1,0-9.6l0.1-0.1c0.1-0.1,0.1-0.1,0.2-0.2c0.1-0.2,0.2-0.3,0.3-0.5
		c0.3-0.4,0.5-0.7,0.8-1.1s0.7-0.8,1-1.2c0.1-0.2,0.2-0.3,0.3-0.5c0.2-0.2,0.5-0.4,0.7-0.5c0.3-0.2,0.6-0.3,0.9-0.5
		c0.6-0.3,1.2-0.6,1.9-0.8c0.5-0.2,1-0.3,1.5-0.2c0.4,0.1,0.8,0.3,1.1,0.6c1.1,0.8,2.3,1.6,3.6,1.9c0.3,0.1,0.4-0.2,0.6-0.3
		c0.5-0.5,1.1-0.9,1.6-1.2c0.1-0.1,0.3-0.2,0.4-0.2c0.3-0.2,0.6-0.3,0.9-0.5c1.2-0.5,2.5-0.6,3.8-0.7c-0.9-0.3-1.9-0.5-3-0.6
		c-0.6,0-1.2,0-1.7,0.3c-0.1,0.1-0.2,0.2-0.2,0.2c-0.1,0.1-0.3,0.2-0.4,0.3c-0.3,0.2-0.6,0.4-0.9,0.6c-0.1,0-0.1,0.1-0.2,0.1
		c-0.2,0.1-0.4,0.2-0.5,0.4c-0.1,0.1-0.4,0.3-0.6,0.3c-0.1,0-0.3-0.1-0.5-0.2c-0.1-0.1-0.3-0.1-0.4-0.2c-0.3-0.2-0.6-0.4-0.8-0.5
		c-0.8-0.6-1.6-1.4-2.4-2.1c-0.1-0.1-0.2-0.1-0.3-0.2c-0.1,0-0.3,0-0.4,0c-0.3,0.1-0.6,0.1-0.9,0.2c-0.2,0-0.3,0.1-0.5,0.1
		c-0.1,0-0.2,0-0.3,0c-0.3,0-0.6,0.1-0.9,0.1c-0.4,0.1-0.9,0.2-1.3,0.3c-1.3,0.3-2.5,0.6-3.8,1c0-6.4,0-12.8,0-20.1
		c65.6,4.2,131,8.5,196.7,12.7C317.8,404.8,317.8,416.3,317.8,428.1z M320.1,358c0.5-6.1,0.7-11.5,1.3-16.9
		c0.9-8.7,0.5-17.6,2.4-26.2c0.8-3.7,0.5-7.7-0.4-11.4c-3.1-12-3-24-1.5-36.1c1.6-13.2,1.2-26.5,1.4-39.8
		c0.2-13.3,2.2-26.4,2.9-39.7c0.7-13.9,1.9-27.9-0.5-41.6c-1.9-10.9-5-21.6-6.3-32.7c-1-8.2-5.1-15-11.5-20.3c-2.4-2-4.6-4.1-7-6.2
		c-0.6-0.5-1.1-1-1.7-1.6c-0.1-0.1-0.2-0.1-0.2-0.2c-0.2-0.2-0.2-0.4-0.3-0.7c0.6-0.3,1.3-0.5,1.9-0.8c0.5-0.2,1-0.4,1.5-0.3
		c0.2,0,0.3,0.1,0.5,0.2c0.8,0.4,1.7,0.7,2.5,1.1c0.3,0.1,0.7,0.3,1,0.3c0.4,0,0.7-0.2,1-0.2c0.3-0.1,0.7,0,1-0.2
		c0.6-0.4,1.3-0.7,2.1-1c0.4-0.1,0.8-0.2,1.2-0.4c0.1,0,0.2-0.1,0.3-0.1c0.4,0,0.8,0.1,1.2,0.1c0.8,0.1,1.7,0.2,2.5,0.3
		c0,0-0.2-0.2-0.3-0.3c-0.1-0.1-0.2-0.1-0.4-0.2c-0.3-0.1-0.6-0.1-0.9-0.2c-0.1,0-0.3-0.1-0.4-0.1c-0.1-0.1-0.2-0.2-0.4-0.2
		c-0.4-0.2-0.9-0.2-1.3-0.3c-0.7-0.1-1.4,0-2,0.1c-0.8,0.1-1.6,0.4-2.5,0.5c-0.4,0.1-0.8,0.1-1.2,0.1c-0.2,0-0.4,0.1-0.6,0.1
		s-0.5,0-0.7-0.1c-0.4-0.2-0.7-0.4-1-0.7c-0.3-0.3-0.6-0.5-0.8-0.8c-0.1-0.1-0.3-0.2-0.4-0.3c-0.1-0.1-0.3-0.1-0.5,0
		c-0.2,0-0.4,0-0.6,0c-1.1,0-2.3,0.1-3.4,0.1c-0.6,0-1.1,0-1.7,0.1c-0.3,0-0.5,0-0.8,0c-0.1,0-0.3,0-0.5,0s-0.3-0.2-0.5-0.2
		c-1-0.8-2-1.6-3-2.4c-2-1.6-4.1-3.1-6.2-4.5c-4.2-2.9-8.6-5.6-13.3-7.8c-2.1-0.2-3.8-1.2-6.2-2.7c2.6,0.4,4.4,0.7,6.2,1
		c6.2-0.1,12,1.9,17.9,3.7c4.6,1.4,9.2,2.9,14,3.3c7.3,0.5,13,4.4,18.7,8.3c4.5,3.1,6,8.2,7.4,13c1,3.7-2.5,5.3-4.7,7.4v0.4
		c0,0.2,0.1,0.4,0.1,0.6c0.1,0.4,0.3,0.7,0.4,1.1c0.4,0.8,0.8,1.5,1.1,2.3c0.2,0.4,0.3,0.8,0.4,1.2c0.1,0.4,0.2,0.9,0.1,1.3
		c0,0.2-0.3,0.4-0.4,0.5c-0.6,0.8-1.3,1.6-1.9,2.3c1.6,3.7,2.6,7.6,2.9,11.6c0,0.6,0.1,1.2,0.3,1.7c0.2,0.4,0.6,0.8,0.9,1.1
		c1,0.9,2.2,1.8,3.4,2.4c-0.2-0.1-0.4-0.4-0.5-0.6c-0.2-0.2-0.4-0.4-0.5-0.6c-0.4-0.4-0.7-0.8-1-1.3c-0.2-0.3-0.6-0.6-0.6-1
		s-0.1-0.8-0.2-1.3s-0.2-0.9-0.3-1.3c-0.1-1.4-0.4-2.7-0.7-4c0-0.3-0.1-0.5-0.2-0.8c-0.1-0.5,0-1.1-0.1-1.6
		c-0.1-1.1-0.3-2.2-0.5-3.2c-0.1-0.2-0.1-0.5-0.2-0.7c0.4-0.7,0.9-1.3,1.5-1.8c0.3-0.3,0.5-0.6,0.8-0.8c0.3-0.2,0.6-0.5,0.9-0.7
		c-0.3-0.2-0.3-0.3-0.3-0.6c-0.1-0.4-0.2-0.9-0.3-1.3c-0.1-0.4-0.2-0.8-0.3-1.2c0-0.2-0.1-0.4-0.1-0.6c0-0.1-0.2-0.5-0.1-0.6
		c1.1-2.2,3.5-2.6,4.7-4c7.4,0.5,11.5,4.4,13.6,11.1c2.7,8.5,3.4,17.5,5.9,26c4.3,15.2,1.6,30.2,0.5,45.3
		c-0.6,8.7,0.3,17.6-1.4,26.2c-0.7,3.3-1.5,6.4-4.1,8.3c-0.9,3.7-0.1,7.1-0.3,10.5c-0.4,1-1.3,1.8-2.1,2.5c-0.7,0.7-1.5,1.3-2.3,1.9
		c0,0,0,0-0.1,0.1c-0.7,0.5-1.5,1-2.1,1.6c-0.3,0.3-0.6,0.6-0.9,0.9c-0.3,0.3-0.7,0.5-1.1,0.8c-0.7,0.4-1.4,0.9-2.1,1.4
		c-0.2,0.2-0.5,0.3-0.6,0.6c-0.1,0.1-0.2,0.2-0.4,0.4c-0.1,0.1-0.3,0.3-0.4,0.4c-0.1,0.1-0.2,0.2-0.2,0.3s0.1,0.1,0.1,0.2
		c0.5,0.6,0.7,1.5,1.1,2.2c0.1,0.2,0.3,0.4,0.4,0.7c0.1,0.1,0.1,0.2,0.1,0.4c0.2,0.4,0.3,0.8,0.3,1.2c0,0.2,0,0.4,0,0.6
		c-0.1,0.4,0.1,0.8-0.2,1.1c-0.4,0.4-0.9,0.8-1.3,1.2c-0.2,0.2-0.4,0.4-0.6,0.5c-0.4,0.4-0.9,0.7-1.3,1.1c-0.1,0.1-0.2,0.1-0.2,0.2
		c-0.1,0.1-0.1,0.3,0,0.5c0.3,2.2,0.6,4.5,0.9,6.7c0,0.3,0.1,0.7,0.1,1.1c-0.1,0.3-0.1,0.6-0.1,1c0,0.9,0.1,1.8,0.2,2.6
		c0.1,0.7,0.1,1.5,0.1,2.2c0,0.3,0,0.6,0,0.9c0.1,0.4,0.4,0.8,0.6,1.2c0.3,0.4,0.7,0.8,0.9,1.3c0.2,0.4,0,0.7,0.1,1.1
		c0,0.1,0.1,0.2,0.1,0.4c0.1,0.4,0,0.9,0,1.3c-0.1,0.9-0.2,1.8-0.5,2.7c-0.2,0.6-0.5,1.3-0.4,1.9c0,0.4,0.2,0.7,0.4,1
		c0.5,1.1,1.1,2.2,1.7,3.3c-0.4-3.7-0.1-7.5,0.8-11.1c0-0.2,0.1-0.4,0.1-0.6s-0.2-0.4-0.4-0.6c-0.3-0.4-0.6-0.8-0.9-1.2
		c-0.1-0.2-0.2-0.5-0.4-0.7c-0.1-0.2-0.1-0.5-0.3-0.6c0-4,0-8,0-11.8c1.4-2.6,4.9-3.1,5.8-5.7c0-2.3-2.1-2.9-2.8-4.9
		c3.7-2.7,7.5-5.5,11.7-8.6c0.1-2,0.3-4.4,0.4-6.9c1.4,0.3,1.6,1.4,1.7,2.3c0.7,13.5,4,27,1.1,40.6c-1,4.9-2.7,9.6-3.3,14.5
		c-1.6,13.8,0.5,27.5,0.2,41.2c-0.2,6.9,0.7,13.9-1.6,21.1C341.1,348.1,331,352.9,320.1,358z M320.8,368.8
		c11.1-5.2,22.1-10.4,33.2-15.7c3.7,2.3,6,5.8,8.7,8.8c-1.5,1.7-3.4,2.2-5.3,3.1c-0.2-0.1-0.4-0.2-0.6-0.3c-0.2-0.1-0.5-0.3-0.7-0.4
		s-0.4-0.3-0.7-0.3c-0.3-0.1-0.7-0.3-0.9-0.5c-0.1-0.1-0.1-0.2-0.1-0.4c-0.1-0.4-0.2-0.7-0.2-1.1c-0.1-0.5-0.2-0.9-0.4-1.4
		c-0.1-0.4-0.3-0.9-0.4-1.3c-0.4-0.3-0.9-0.5-1.4-0.6c-0.2-0.1-0.5-0.1-0.7-0.2c0,0,0.1,0.1,0.2,0.1c0.1,0.1,0.2,0.2,0.3,0.3
		c0,0,0.1,0.1,0.2,0.1s0.1,0,0.2,0.1c0.2,0,0.3,0.1,0.4,0.2c0.2,0.2,0.3,0.4,0.4,0.6c0,0.3,0.1,0.6,0.1,1c0,0.7,0.1,1.5,0,2.2
		c0,0.4,0,0.7-0.1,1.1c0,0.1,0,0.2,0,0.4c0,0.2,0.2,0.2,0.4,0.3c0.3,0.1,0.5,0.4,0.6,0.6s0.2,0.4,0.1,0.6c0,0.2-0.1,0.4-0.2,0.5
		c-0.2,0.4-0.5,0.6-0.9,0.8c-0.9,0.4-1.8,0.9-2.6,1.4c-8,4.2-16,8.5-24.4,12.9C323.7,377.6,322.3,373.5,320.8,368.8z M366.6,403.1
		c-12.6,7.5-25.2,15-38.3,22.7c0-11.8,0-22.6,0-33.9c10.2-5.4,20.3-10.7,30.5-16c0.3,0.4,0.5,0.9,0.6,1.4c0.1,0.3,0,0.7,0,1
		c0,0.2-0.1,0.3-0.2,0.5c0,0.1-0.1,0.2-0.2,0.4c-0.1,0.1-0.3,0.3-0.4,0.4c-0.2,0.1-0.3,0.3-0.5,0.5s-0.4,0.5-0.5,0.7
		c-0.1,0.1-0.2,0.2-0.2,0.4c-0.1,0.1-0.2,0.3-0.2,0.5c-0.3,0.5-0.6,1.1-1,1.6c-0.2,0.2-0.4,0.5-0.4,0.8c0,0.1,0,0.2,0.1,0.3
		c0,0.1,0,0.3,0,0.4c0,0.4,0,0.9,0,1.3c0,0.3,0,0.6,0,0.9c0,0.5,0,0.9,0,1.3c0,0.7,0.1,1.3,0.1,2c0,0.5-0.1,1.2-0.4,1.6
		c-0.1,0.1-0.2,0.2-0.3,0.3c0,0-0.1,0.1-0.1,0.2s-0.1,0.1-0.2,0.2c-0.7,0.8-1.6,1.4-2.5,2c0.6-0.1,1.2-0.2,1.7-0.5
		c0.4-0.2,0.8-0.5,1.3-0.7c0.1,0,0.2-0.2,0.4-0.2c0,0,0,0,0.1,0l0,0c0.2-0.3,0.3-0.6,0.5-1c0.1-0.1,0.1-0.3,0.2-0.5s0.1-0.3,0.2-0.5
		c0-0.1,0.1-0.2,0.1-0.3c0.1-0.4,0.2-0.8,0.4-1.2c0.1-0.2,0.1-0.4,0.2-0.6c0-0.1,0.1-0.2,0.1-0.4c0-0.2,0-0.4,0.1-0.5
		c0-0.2,0.1-0.4,0.3-0.5c0.1,0,0.1,0,0.2,0c0.2,0,0.5,0,0.7,0.1c0.1,0,0.2,0.1,0.3,0.2c0.2,0.1,0.4,0.3,0.5,0.4
		c0.3,0.3,0.7,0.5,1,0.9c0.1,0.1,0.2,0.2,0.3,0.3c0.2,0.2,0.4,0.4,0.6,0.7c0.1,0.1,0.1,0.2,0.2,0.3c0,0.1,0,0.2,0,0.2
		c0,0.4,0,0.7-0.1,1.1c0,0.2,0,0.4-0.1,0.5c0,0.2-0.1,0.3-0.1,0.5s-0.1,0.5-0.1,0.8c-0.1,0.5-0.2,1-0.2,1.5c-0.1,0.5-0.2,1-0.3,1.5
		c0,0.2-0.1,0.4-0.2,0.6c0,0.2-0.1,0.5-0.1,0.7c-0.1,0.5-0.1,0.9-0.2,1.4c0,0.2-0.1,0.5-0.2,0.7c0,0.1-0.3,0.6-0.3,0.6
		c0.3,0.4,0.7,0.8,1.1,1.2c0.1,0.1,0.2,0.1,0.3,0.2c0.1,0.1,0.2,0.1,0.2,0.2c0,0,0,0,0.1,0s0.2,0.1,0.2,0.1c0.2,0.1,0.4,0.3,0.5,0.4
		c0-0.1-0.1-0.2-0.1-0.2c-0.1-0.1-0.2-0.2-0.2-0.3c-0.1-0.1-0.1-0.2-0.1-0.3c-0.1-0.2-0.3-0.4-0.5-0.7c-0.1-0.2-0.3-0.4-0.4-0.7
		c-0.1-0.3,0-0.5,0-0.8c0.2-1.1,0.4-2.2,0.6-3.4c0.1-0.4,0.1-0.8,0.4-1.2c0.2-0.4,0.2-1,0.3-1.4c0-0.1,0-0.2,0-0.3
		c0-0.1,0-0.2,0-0.2c0-0.2,0-0.3,0-0.5c0-0.3,0.1-0.6,0.2-1c0.2-0.6,0.4-1.3,0.3-2c0,0,0,0,0-0.1l-0.2-0.1c-0.1,0-0.1-0.1-0.2-0.1
		c-0.1-0.1-0.3-0.2-0.5-0.3s-0.3-0.2-0.4-0.3c-0.1-0.1-0.3-0.2-0.4-0.3c-0.1-0.2-0.4-0.5-0.5-0.6c-0.2-0.2-0.5-0.5-0.7-0.7
		c-0.5-0.4-1-0.8-1.4-1.3c0-0.3,0-0.7,0-1c0-0.2,0-0.3,0-0.5c0-0.3,0-0.7,0.2-1c0.1-0.2,0.1-0.3,0.2-0.4c0-0.1,0.1-0.1,0.1-0.2
		c0.3-0.5,0.6-1,1-1.5c1.7-2,2.7-4.3,2.5-7.1c1.1-0.8,2.2-1.7,4.1-1.6C367.3,382.5,366.9,392.7,366.6,403.1z"/>
</g>
<g id="Eyes_B_2.0">
	<path class="st0" d="M244.1,211c-2.4,3.6-2.6,8.5-0.9,12.5c0.5,1.2,1.2,2.3,2.3,3c2.2,1.3,5,0.1,7.3-1.1c3-1.6,6.1-3.5,7.3-6.7
		c0.9-2.3,0.5-5-0.6-7.2c-0.6-1.4-1.5-2.6-2.5-3.7c-0.7-0.7-1.3-1.6-2.4-1.7c-2.5-0.4-5.2,0.4-7.3,1.7
		C246,208.7,244.9,209.8,244.1,211z"/>
	<path class="st0" d="M198.6,211.7c-0.8,1.4-1.4,2.9-1.5,4.5c-0.2,2.7,1.1,5.2,2.3,7.6c0.2,0.5,0.5,1,0.9,1.3s0.9,0.4,1.4,0.5
		c5,0.7,10.2-1.3,13.4-5.2c0.6-0.8,1.1-1.6,1.4-2.5c0.4-1.4,0.4-2.8,0.3-4.2c-0.1-2-0.3-4.3-1.8-5.7c-0.7-0.7-1.6-1.2-2.5-1.6
		c-1.1-0.6-2.4-1.3-3.6-1.7c-0.9-0.2-2,0.1-2.8,0.4c-2.1,0.7-3.9,2.1-5.4,3.7c-0.4,0.5-0.8,0.9-1.2,1.4c-0.2,0.3-0.4,0.5-0.5,0.8
		C198.9,211.2,198.8,211.5,198.6,211.7z"/>
	<path class="st10" d="M248.2,227.4c-1-0.1-2-0.3-3-0.5c-0.4-0.6-0.7-1.1-1-1.7c-0.3-0.6-0.4-1.1-0.7-1.7c-0.6-1.2-0.9-2.4-1.1-3.7
		c-0.4-2.9,0.1-5.9,1.6-8.3s3.9-4.4,6.6-5.3c1.1-0.4,2.4-0.6,3.6-0.2c0.8,0.2,1.4,0.7,2,1.3c0.3,0.3,0.6,0.6,0.8,0.9
		c0.2,0.3,0.5,0.6,0.7,0.9c-0.3,0-0.6-0.1-0.9-0.1s-0.7-0.1-1-0.1c-5.9,0-10.8,4.8-10.8,10.8C245,222.7,246.2,225.4,248.2,227.4z"/>
	<path class="st10" d="M200.6,225.7c-0.1,0-0.4-0.6-0.4-0.7c-0.1-0.2-0.3-0.5-0.4-0.8c-0.2-0.5-0.5-1.1-0.6-1.6
		c-0.2-0.6-0.2-1.1-0.4-1.7c-0.2-0.7-0.4-1.4-0.6-2.1c-0.4-1.4-0.6-2.8-0.4-4.3c0.2-2.4,1.5-4.7,3.3-6.4s4.1-2.8,6.5-3.3
		c0.8-0.2,1.6-0.3,2.5-0.1c1,0.2,1.9,0.8,2.6,1.6c0.4,0.4,0.7,0.8,1,1.2c0.1,0.2,0.3,0.4,0.1,0.6c-0.1,0.1-0.2,0.1-0.3,0.1
		c-0.3,0-0.7-0.1-1-0.1s-0.7-0.1-1-0.1c-5.9,0-10.8,4.8-10.8,10.8c0,2.9,1.1,5.5,3,7.5C203.5,226.2,200.6,225.7,200.6,225.7z"/>
	<path d="M205,228.5c-7.6,0-13.8-6.2-13.8-13.8s6.2-13.8,13.8-13.8s13.8,6.2,13.8,13.8S212.6,228.5,205,228.5z M205,204.9
		c-5.4,0-9.8,4.4-9.8,9.8s4.4,9.8,9.8,9.8s9.8-4.4,9.8-9.8S210.4,204.9,205,204.9z"/>
	<path d="M249.4,229.5c-7.6,0-13.8-6.2-13.8-13.8s6.2-13.8,13.8-13.8s13.8,6.2,13.8,13.8S257,229.5,249.4,229.5z M249.4,205.9
		c-5.4,0-9.8,4.4-9.8,9.8s4.4,9.8,9.8,9.8s9.8-4.4,9.8-9.8S254.8,205.9,249.4,205.9z"/>
	<path d="M198.6,223.6c-1.4-2.1-2.1-4.5-2.1-6.9c0-7.1,5.7-12.8,12.8-12.8c0.1,0,0.3,0,0.4,0c0.8,0.8,1.6,1.5,2.2,2.3
		c-0.9-0.2-1.7-0.3-2.6-0.3c-5.9,0-10.8,4.8-10.8,10.8c0,2.9,1.1,5.5,3,7.5L198.6,223.6z"/>
	<path d="M246.2,225.3c-1-0.1-2-0.3-3-0.5c-1.4-2.1-2.2-4.6-2.2-7.2c0-6.8,5.4-12.4,12.1-12.8l2.6,2.1c-0.6-0.1-1.3-0.2-2-0.2
		c-5.9,0-10.8,4.8-10.8,10.8C243,220.6,244.2,223.3,246.2,225.3z"/>
</g>
</svg>
