<?xml version="1.0" encoding="utf-8"?>
<!-- Generator: Adobe Illustrator 25.0.0, SVG Export Plug-In . SVG Version: 6.00 Build 0)  -->
<svg version="1.1" id="Layer_1" xmlns="http://www.w3.org/2000/svg" xmlns:xlink="http://www.w3.org/1999/xlink" x="0px" y="0px" 
viewBox="0 0 555.28 701.89"
	  style="enable-background:new 0 0 595.28 841.89;" xml:space="preserve">
<style type="text/css">
	.st0{fill:#E90069;}
	.st1{fill:#202020;}
	.st2{fill:#237BE5;}
	.st3{fill:#3885C6;}
	.st4{fill:#D4D4D4;}
	.st5{fill:#FFFAFC;}
	.st6{fill:#F06A7F;}
	.st7{fill:#F1F1F1;}
	.st8{fill:#CBCBCB;}
	.st9{fill:#136DB7;}
	.st10{fill:#B4B4B4;}
	.st11{fill:#38C3E8;}
	.st12{fill:#13B5EC;}
	.st13{fill-rule:evenodd;clip-rule:evenodd;fill:#FFFFFF;}
</style>
<path class="st0" d="M159.12,494.48h270.33v18.78c0,0-29.74,67.61-128.46,74.07S159.12,494.48,159.12,494.48z"/>
<g>
	<path class="st1" d="M296.2,591.45v-13.06c-53.37-0.48-113.85-32.93-140.52-90.89c-3.61,2.23-6.93,4.56-9.93,6.97
		C174.45,556.33,239.13,590.94,296.2,591.45z"/>
	<path class="st1" d="M296.25,578.39v13.06c56.07-0.5,119.47-33.92,148.89-93.74c-2.86-2.61-6.08-5.13-9.63-7.55
		C408.24,546.45,348.8,577.92,296.25,578.39z"/>
</g>
<g>
	<path class="st2" d="M237.45,253.33l3.89-2.67c-23.13-25.09-61.79-40.08-75.91-44.22c-15.28,39.26-11.07,78.76-5.5,100.16
		l0.01-0.01C180.63,280.98,208.23,263.38,237.45,253.33z"/>
	<path class="st2" d="M237.45,253.33c-29.21,10.05-56.81,27.65-77.51,53.26c-22.05,27.29-36.28,63.66-36.28,109.67
		c0,13.43,2.49,25.94,6.99,37.47c9.96-2.58,45.55-9.66,70.73,12.92c0,0,30.62-59.95,94.81-57.34V243.18
		C276.92,243.33,256.83,246.66,237.45,253.33z"/>
	<path class="st2" d="M354.96,253.33l-3.89-2.67c23.13-25.09,61.79-40.08,75.91-44.22c15.28,39.26,11.07,78.76,5.5,100.16
		l-0.01-0.01C411.77,280.98,384.18,263.38,354.96,253.33z"/>
	<path class="st2" d="M354.8,253.29c29.21,10.05,56.81,27.65,77.51,53.26c22.05,27.29,36.28,63.66,36.28,109.67
		c0,13.43-2.49,25.94-6.99,37.47c-9.96-2.58-45.55-9.66-70.73,12.92c0,0-30.62-59.95-94.81-57.34V243.14
		C315.33,243.28,335.42,246.62,354.8,253.29z"/>
</g>
<path class="st1" d="M224.88,342.37c12.41,5.29,29.71,23.98,24.67,35.78c-5.03,11.81-30.49,12.27-42.9,6.97s-18.4-19.15-13.36-30.96
	C198.32,342.36,212.46,337.07,224.88,342.37z"/>
<path class="st3" d="M149.27,484.82c32.71,39.12,91.45,61.06,144.45,62.07C278.86,546.47,200.08,541.54,149.27,484.82z"/>
<path class="st4" d="M296.2,546.93c-0.82-0.01-1.65-0.02-2.48-0.04C295.32,546.94,296.2,546.93,296.2,546.93z"/>
<path class="st4" d="M201.39,466.66c-25.18-22.59-60.77-15.51-70.73-12.92c4.41,11.32,10.76,24.6,18.61,33.99
	c50.8,56.73,129.59,58.75,144.45,59.17c0.83,0.02,1.65,0.03,2.48,0.04V409.32C232.02,406.71,201.39,466.66,201.39,466.66z"/>
<path class="st1" d="M123.67,416.26c0-46.02,14.23-82.39,36.28-109.67l-0.01,0.01c-5.57-21.41-9.78-60.9,5.5-100.16
	c14.12,4.15,52.78,19.14,75.91,44.22l-5.53,3.24c19.38-6.67,41.11-10.57,60.37-10.72v-10.93c-16.99,0.13-34.58,2.58-51.86,7.42
	c-32.33-33.76-84.76-45.04-84.76-45.04c-24.66,56.63-15.29,96.36-11.43,108.12c-22.5,28.96-36.89,67.12-36.89,115.04
	c0,88.29,100.01,139.5,184.94,140.08v-10.93C216.97,546.4,123.67,498.62,123.67,416.26z"/>
<ellipse class="st5" cx="226.57" cy="364.7" rx="9.64" ry="11.21"/>
<path class="st1" d="M205.68,326.88c-0.33-3.32,1.18-6.58,3.77-8.68c2.86-2.31,8.03-4.65,16.95-3.68
	c17.03,1.85,28.42,19.4,29.42,23.74c0,0,2.6,7-3.62,9.91c-6.17,2.89-10.1-0.43-14.55-5.19c-9.76-10.44-19.74-8.38-23.39-8.7
	c-1.07-0.1-3.72,0.06-5.56-1.5C207.45,331.72,206,330.21,205.68,326.88z"/>
<path class="st1" d="M413.51,286.87c0,0,5.29-23.51,0-51.74c0,0-22.89,9.12-42.3,24.65C364.23,265.36,413.51,286.87,413.51,286.87z"
	/>
<path class="st3" d="M443.18,484.82c-32.71,39.12-91.45,61.06-144.45,62.07C313.59,546.47,392.37,541.54,443.18,484.82z"/>
<path class="st4" d="M296.25,546.93c0.82-0.01,1.65-0.02,2.48-0.04C297.13,546.94,296.25,546.93,296.25,546.93z"/>
<path class="st4" d="M390.4,466.66c25.18-22.59,60.77-15.51,70.73-12.92c-4.41,11.32-10.76,24.6-18.61,33.99
	c-50.8,56.73-129.59,58.75-144.45,59.17c-0.83,0.02-1.65,0.03-2.48,0.04V409.32C359.78,406.71,390.4,466.66,390.4,466.66z"/>
<path class="st1" d="M350.8,448.85l-10.64,2.61c0,0,4.34,24.33-14.33,21.5c-18.68-2.82-23.89-14.77-23.89-14.77v-20.85
	c0,0,25.41-9.56,25.19-22.15c-0.22-12.56-30.77-12.17-30.94-12.16c-0.18,0-30.73-0.4-30.94,12.16
	c-0.22,12.6,25.19,22.15,25.19,22.15v20.85c0,0-5.21,11.95-23.89,14.77c-18.68,2.82-14.33-21.5-14.33-21.5l-10.64-2.61
	c0,0-7.38,28.02,17.59,34.75c0,0,4.34,26.27,37.02,26.28v0c0,0,0.01,0,0.01,0s0.01,0,0.01,0v0c32.67-0.01,37.02-26.28,37.02-26.28
	C358.19,476.86,350.8,448.85,350.8,448.85z"/>
<path class="st6" d="M296.2,481.92v-0.06c-19.22,0-25.3,9.77-25.3,9.77c11.47,12.12,25.21,10.65,25.3,10.64v0.06
	c0,0,13.79,1.52,25.3-10.64C321.5,491.69,315.41,481.92,296.2,481.92z"/>
<path class="st1" d="M468.78,416.26c0-46.02-14.23-82.39-36.28-109.67l0.01,0.01c5.57-21.41,9.78-60.9-5.5-100.16
	c-14.12,4.15-52.78,19.14-75.91,44.22l5.53,3.24c-19.38-6.67-41.16-10.57-60.42-10.72v-10.93c16.99,0.13,34.64,2.58,51.92,7.42
	c32.33-33.76,84.76-45.04,84.76-45.04c24.66,56.63,15.29,96.36,11.43,108.12c22.5,28.96,36.89,67.12,36.89,115.04
	c0,88.29-100.25,139.5-185.17,140.08l0.1-10.93C375.34,546.4,468.78,498.62,468.78,416.26z"/>
<ellipse class="st1" cx="375.52" cy="371.87" rx="26.14" ry="28.83"/>
<ellipse class="st5" cx="365.88" cy="364.82" rx="9.64" ry="11.21"/>
<path class="st1" d="M386.77,328.18c0.33-3.32-1.18-6.58-3.77-8.68c-2.86-2.31-8.03-4.65-16.95-3.68
	c-17.03,1.85-28.8,19.32-29.42,23.74c0,0-2.09,8.83,4.54,10.3c7.22,1.61,11.38-2.6,15.66-7.51c7.18-8.23,19.64-6.44,23.26-6.83
	c1.06-0.11,2.1-0.41,3.02-0.96C384.51,333.72,386.45,331.51,386.77,328.18z"/>
<g>
	<path class="st1" d="M367.38,526.96c9.91-40.97-6.19-60.14-28.48-86.66c-14.42-17.16-30.76-36.62-41.29-64.98
		c-21.17-57.06,2.57-113.08,13.76-134.52l3.09-5.92l6.65,0.63c13.5,1.29,34.24,6.91,36.64,7.66c43.55,13.7,65.86,39.36,77.43,50.86
		l0.03,7.76l3.91,4.79c1.7,2.2,2.13-4.68,2-2.56c23.62,30.92,35.59,68.65,35.59,112.22c0,27.54-9.36,52.72-27.83,74.84
		c-16.04,19.21-38.81,35.5-65.86,47.1l-1.39,0.59l-17.55,1.82L367.38,526.96z"/>
	<path class="st7" d="M356.62,253.9c-2.61-0.98-22.52-7.37-34.46-8.51c-11.21,21.48-32.88,73.58-13.25,126.48
		c25.63,69.05,88.21,82.59,70.11,157.43l2.08-0.22c48.84-20.95,87.67-59.68,87.67-112.82c0-46.02-14.23-82.39-36.28-109.67
		l0.01,0.01c1.66-6.38-0.01-0.01-0.01-0.01S400.34,270.31,356.62,253.9z"/>
</g>
<path class="st8" d="M408.72,382.16c0,23.08-16.91,6.18-37.76,6.18s-37.76,16.9-37.76-6.18c0-23.08,16.91-41.79,37.76-41.79
	S408.72,359.08,408.72,382.16z"/>
<path class="st1" d="M409.08,375c0,20.15-16.29,5.4-36.38,5.4s-36.38,14.76-36.38-5.4c0-20.15,16.29-36.49,36.38-36.49
	S409.08,354.85,409.08,375z"/>
<ellipse class="st5" cx="372.7" cy="364.7" rx="9.64" ry="11.21"/>
<g>
	<path class="st8" d="M435.12,313.07l0.01,0.01C436.64,306.92,435.12,313.07,435.12,313.07z"/>
	<path class="st8" d="M418.82,338.2L418.82,338.2c19.22,24.14,31.84,51.7,31.84,92.4c0,24.96-8.28,42.62-23.6,59.95
		c20.45-18.72,33.79-43.21,33.79-72.72c0-40.71-12.4-72.88-31.61-97.02c0,0-28.37-34.68-66.47-49.2
		c-2.28-0.87-18.77-7.68-29.17-8.69c-1.39,2.7,0,0,0,0s0.5-3.75,0,0C328.16,303.85,418.82,338.2,418.82,338.2"/>
	<path class="st8" d="M424.23,327.52L424.23,327.52C425.74,321.37,424.23,327.52,424.23,327.52z"/>
</g>
<g>
	<path class="st9" d="M181.46,454.87c-4.93-10.97-8.63-23.09-10.48-36.44c-10.43-75.41,27.13-111.84,27.13-111.84
		s-21.52-43.56-26.69-85.37c0,0-16.1,31.37-1.33,88.28c0,0-47.59,50.05-33.39,127.75c0.92,5.06,2.24,9.88,3.88,14.49
		C150.98,450.19,166.44,449.5,181.46,454.87z"/>
</g>
<path class="st1" d="M178.94,286.87c0,0-5.29-23.51,0-51.74c0,0,22.89,9.12,42.3,24.65C228.22,265.36,178.94,286.87,178.94,286.87z"
	/>
<path class="st10" d="M275.89,541.48c0,0-66.76-25.11-94.43-86.61c-15.02-5.38-30.48-4.69-40.89-3.13
	C166.53,524.84,275.89,541.48,275.89,541.48z"/>
<g>
	<g id="Layer_1-2">
		<circle class="st1" cx="296.25" cy="587.77" r="36.72"/>
		<g>
			<path class="st11" d="M270.39,586.21c-0.03,0.51-0.05,1.03-0.05,1.55c0,14.31,11.6,25.91,25.91,25.91
				c14.31,0,25.91-11.6,25.91-25.91c0-0.52-0.02-1.04-0.05-1.55c-7.68,2.02-16.49,3.17-25.86,3.17
				C286.88,589.39,278.07,588.24,270.39,586.21z"/>
			<path class="st12" d="M296.25,561.85c-13.79,0-25.06,10.77-25.86,24.36c7.68,2.02,16.49,3.17,25.86,3.17
				c9.37,0,18.18-1.15,25.86-3.17C321.31,572.63,310.04,561.85,296.25,561.85z"/>
		</g>
		<g>
			<path class="st13" d="M298.2,582.75l5.83-3.4v6.8L298.2,582.75z M304.03,597.32l-7.77,4.53l-7.77-4.53v-7.94l7.77,4.53l7.77-4.53
				V597.32z M288.48,579.35l5.83,3.4l-5.83,3.4V579.35z M297.23,584.37l5.83,3.4l-5.83,3.4V584.37z M295.28,591.17l-5.83-3.4
				l5.83-3.4V591.17z M303.06,577.73l-6.8,3.89l-6.8-3.89l6.8-4.05L303.06,577.73z M286.54,577.08v21.22l9.72,5.51l9.72-5.51v-21.22
				l-9.72-5.51L286.54,577.08z"/>
		</g>
	</g>
</g>
</svg>
